; NON-PLATED HOLES START AT T1
; THROUGH (PLATED) HOLES START AT T100
M48
INCH
T100C0.038000
T101C0.040000
T102C0.031496
T103C0.035000
T104C0.035433
T105C0.098425
T106C0.039370
%
T100
X003891Y018002
X010183Y033628
X010208Y018027
X003891Y033628
T101
X018513Y036220
X015591Y036220
X014213Y036220
X019891Y036220
T102
X029387Y006619
X029387Y004021
T103
X015131Y013330
X008691Y003120
X008691Y006120
X003691Y003120
X010091Y009120
X002691Y006120
X003691Y006120
X009791Y013920
X006791Y013920
X003791Y009220
X004691Y003120
X006691Y006120
X007691Y003120
X006791Y009220
X007691Y006120
X002691Y003120
X008791Y012120
X014091Y014920
X005691Y006120
X014131Y013330
X010091Y006120
X018191Y011320
X004691Y006120
X014091Y017920
X006691Y003120
X016131Y013330
X005691Y003120
X015191Y011320
X008791Y009120
T104
X030489Y003903
X030489Y006737
T105
X030491Y001820
X030491Y008820
T106
X021991Y001320
X020991Y009320
X014991Y009320
X023491Y017720
X023491Y021720
X017991Y001320
X013991Y009320
X022991Y009320
X026991Y009320
X019991Y009320
X014991Y001320
X015991Y001320
X016991Y009320
X023491Y024720
X023491Y035820
X025991Y009320
X024991Y009320
X021991Y009320
X023491Y031820
X027991Y009320
X023491Y012720
X018991Y001320
X023491Y032820
X023491Y022720
X020991Y001320
X023491Y033820
X016991Y001320
X023491Y026720
X023491Y025720
X023491Y023720
X023491Y015720
X023491Y014720
X023491Y030820
X024991Y001320
X023491Y013720
X022991Y001320
X023491Y034820
X018991Y009320
X017991Y009320
X023991Y001320
X023491Y016720
X015991Y009320
X013991Y001320
X023991Y009320
X019991Y001320
X028991Y009320
T00
M30
