G04 MADE WITH FRITZING*
G04 WWW.FRITZING.ORG*
G04 DOUBLE SIDED*
G04 HOLES PLATED*
G04 CONTOUR ON CENTER OF CONTOUR VECTOR*
%ASAXBY*%
%FSLAX23Y23*%
%MOIN*%
%OFA0B0*%
%SFA1.0B1.0*%
%ADD10C,0.075000*%
%ADD11C,0.070000*%
%ADD12C,0.095000*%
%ADD13C,0.149999*%
%ADD14C,0.051496*%
%ADD15C,0.078000*%
%ADD16C,0.079370*%
%ADD17C,0.080000*%
%ADD18R,0.095000X0.095000*%
%ADD19R,0.080000X0.080000*%
%ADD20R,0.075000X0.075000*%
%ADD21C,0.024000*%
%ADD22C,0.032000*%
%ADD23C,0.048000*%
%ADD24R,0.001000X0.001000*%
%LNCOPPER1*%
G90*
G70*
G54D10*
X2218Y3725D03*
X1849Y3494D03*
X2445Y2761D03*
X2474Y1791D03*
X2593Y713D03*
X121Y3731D03*
X1532Y408D03*
G54D11*
X2199Y132D03*
X2099Y932D03*
X2899Y932D03*
X1399Y132D03*
G54D12*
X3049Y674D03*
G54D11*
X2499Y932D03*
X1699Y932D03*
X1799Y132D03*
G54D13*
X3049Y182D03*
G54D11*
X2699Y932D03*
X2299Y932D03*
X1899Y932D03*
X1499Y932D03*
X1599Y132D03*
X1999Y132D03*
X2399Y132D03*
G54D14*
X2939Y662D03*
G54D11*
X2799Y932D03*
X2599Y932D03*
X2399Y932D03*
X2199Y932D03*
X1999Y932D03*
X1799Y932D03*
X1599Y932D03*
X1399Y932D03*
X1499Y132D03*
X1699Y132D03*
X1899Y132D03*
X2099Y132D03*
X2299Y132D03*
X2499Y132D03*
G54D13*
X3049Y882D03*
G54D14*
X2939Y402D03*
G54D12*
X3049Y390D03*
G54D15*
X1021Y1803D03*
X389Y1800D03*
X1018Y3363D03*
X389Y3363D03*
G54D10*
X1409Y1492D03*
X1409Y1792D03*
X1819Y1132D03*
X1519Y1132D03*
X879Y912D03*
X879Y1212D03*
X979Y1392D03*
X679Y1392D03*
X1009Y612D03*
X1009Y912D03*
G54D16*
X2349Y3082D03*
X2349Y3182D03*
X2349Y3282D03*
X2349Y3382D03*
X2349Y3482D03*
X2349Y3582D03*
X2349Y1272D03*
X2349Y1372D03*
X2349Y1472D03*
X2349Y1572D03*
X2349Y1672D03*
X2349Y1772D03*
X2349Y2172D03*
X2349Y2272D03*
X2349Y2372D03*
X2349Y2472D03*
X2349Y2572D03*
X2349Y2672D03*
G54D17*
X1989Y3622D03*
X1851Y3622D03*
G54D10*
X1413Y1333D03*
X1513Y1333D03*
X1613Y1333D03*
G54D17*
X1559Y3622D03*
X1421Y3622D03*
G54D10*
X869Y612D03*
X869Y312D03*
X769Y612D03*
X769Y312D03*
X669Y612D03*
X669Y312D03*
X569Y612D03*
X569Y312D03*
X469Y612D03*
X469Y312D03*
X369Y612D03*
X369Y312D03*
X269Y612D03*
X269Y312D03*
X679Y922D03*
X379Y922D03*
G54D18*
X3049Y674D03*
X3049Y390D03*
G54D19*
X1989Y3622D03*
X1559Y3622D03*
G54D20*
X869Y612D03*
G54D21*
X898Y612D02*
X981Y612D01*
G54D22*
D02*
X969Y752D02*
X1008Y803D01*
D02*
X810Y752D02*
X969Y752D01*
D02*
X768Y691D02*
X810Y752D01*
D02*
X1008Y803D02*
X1009Y883D01*
D02*
X769Y641D02*
X768Y691D01*
D02*
X981Y912D02*
X908Y912D01*
D02*
X678Y899D02*
X670Y635D01*
D02*
X679Y945D02*
X679Y1369D01*
D02*
X210Y913D02*
X356Y921D01*
D02*
X169Y573D02*
X169Y862D01*
D02*
X519Y513D02*
X230Y513D01*
D02*
X570Y452D02*
X519Y513D01*
D02*
X230Y513D02*
X169Y573D01*
D02*
X169Y862D02*
X210Y913D01*
D02*
X569Y335D02*
X570Y452D01*
D02*
X2610Y2532D02*
X2619Y3322D01*
D02*
X2619Y3322D02*
X2558Y3382D01*
D02*
X2558Y2472D02*
X2610Y2532D01*
D02*
X2558Y3382D02*
X2380Y3382D01*
D02*
X2380Y2472D02*
X2558Y2472D01*
D02*
X2608Y2422D02*
X2618Y1642D01*
D02*
X2618Y1642D02*
X2538Y1582D01*
D02*
X2538Y1582D02*
X2380Y1574D01*
D02*
X2558Y2472D02*
X2608Y2422D01*
D02*
X2380Y2472D02*
X2558Y2472D01*
D02*
X3140Y303D02*
X1548Y292D01*
D02*
X3229Y412D02*
X3140Y303D01*
D02*
X3229Y1473D02*
X3229Y412D01*
D02*
X3118Y1573D02*
X3229Y1473D01*
D02*
X1548Y292D02*
X1499Y243D01*
D02*
X1499Y243D02*
X1499Y163D01*
D02*
X2385Y1572D02*
X3118Y1573D01*
D02*
X2249Y2813D02*
X2309Y2862D01*
D02*
X2309Y2862D02*
X2488Y2862D01*
D02*
X2488Y2862D02*
X2528Y2911D01*
D02*
X2528Y2911D02*
X2530Y3222D01*
D02*
X2530Y3222D02*
X2479Y3282D01*
D02*
X2248Y2433D02*
X2249Y2813D01*
D02*
X2479Y3282D02*
X2380Y3282D01*
D02*
X2323Y2388D02*
X2248Y2433D01*
D02*
X2248Y1852D02*
X2248Y1541D01*
D02*
X2538Y1953D02*
X2500Y1893D01*
D02*
X2289Y1893D02*
X2248Y1852D01*
D02*
X2500Y1893D02*
X2289Y1893D01*
D02*
X2538Y2322D02*
X2538Y1953D01*
D02*
X2248Y1541D02*
X2324Y1489D01*
D02*
X2490Y2372D02*
X2538Y2322D01*
D02*
X2380Y2372D02*
X2490Y2372D01*
D02*
X3100Y521D02*
X3168Y632D01*
D02*
X3168Y632D02*
X3168Y1393D01*
D02*
X3168Y1393D02*
X3089Y1473D01*
D02*
X3089Y1473D02*
X2385Y1472D01*
D02*
X1480Y521D02*
X3100Y521D01*
D02*
X1409Y462D02*
X1480Y521D01*
D02*
X1400Y163D02*
X1409Y462D01*
D02*
X1518Y1161D02*
X1514Y1304D01*
D02*
X1960Y1133D02*
X1848Y1132D01*
D02*
X1998Y1092D02*
X1960Y1133D01*
D02*
X1999Y963D02*
X1998Y1092D01*
D02*
X1409Y1443D02*
X1409Y1463D01*
D02*
X1412Y1362D02*
X1409Y1443D01*
G54D23*
D02*
X1019Y3682D02*
X1018Y3393D01*
D02*
X2040Y3741D02*
X1079Y3741D01*
D02*
X2099Y3172D02*
X2099Y3673D01*
D02*
X2169Y3081D02*
X2099Y3172D01*
D02*
X2099Y3673D02*
X2040Y3741D01*
D02*
X1079Y3741D02*
X1019Y3682D01*
D02*
X2318Y3082D02*
X2169Y3081D01*
G54D22*
D02*
X1659Y2092D02*
X1659Y1672D01*
D02*
X1659Y1672D02*
X1579Y1571D01*
D02*
X1579Y1571D02*
X1198Y1571D01*
D02*
X1198Y1571D02*
X1001Y1410D01*
D02*
X1739Y2162D02*
X1659Y2092D01*
D02*
X2318Y2172D02*
X1739Y2162D01*
D02*
X2418Y612D02*
X1038Y612D01*
D02*
X2498Y681D02*
X2418Y612D01*
D02*
X2499Y901D02*
X2498Y681D01*
D02*
X390Y1542D02*
X380Y951D01*
D02*
X389Y1770D02*
X390Y1542D01*
D02*
X870Y2813D02*
X879Y1241D01*
D02*
X1827Y3602D02*
X870Y2813D01*
G36*
X2066Y3808D02*
X2066Y3788D01*
X2068Y3788D01*
X2068Y3786D01*
X2072Y3786D01*
X2072Y3784D01*
X2074Y3784D01*
X2074Y3782D01*
X2076Y3782D01*
X2076Y3780D01*
X2078Y3780D01*
X2078Y3778D01*
X2080Y3778D01*
X2080Y3776D01*
X2082Y3776D01*
X2082Y3774D01*
X2084Y3774D01*
X2084Y3772D01*
X2086Y3772D01*
X2086Y3770D01*
X2088Y3770D01*
X2088Y3768D01*
X2090Y3768D01*
X2090Y3764D01*
X2092Y3764D01*
X2092Y3762D01*
X2094Y3762D01*
X2094Y3760D01*
X2096Y3760D01*
X2096Y3758D01*
X2098Y3758D01*
X2098Y3756D01*
X2100Y3756D01*
X2100Y3754D01*
X2102Y3754D01*
X2102Y3752D01*
X2104Y3752D01*
X2104Y3748D01*
X2106Y3748D01*
X2106Y3746D01*
X2108Y3746D01*
X2108Y3744D01*
X2110Y3744D01*
X2110Y3742D01*
X2112Y3742D01*
X2112Y3740D01*
X2114Y3740D01*
X2114Y3738D01*
X2116Y3738D01*
X2116Y3736D01*
X2118Y3736D01*
X2118Y3732D01*
X2120Y3732D01*
X2120Y3730D01*
X2122Y3730D01*
X2122Y3728D01*
X2124Y3728D01*
X2124Y3726D01*
X2126Y3726D01*
X2126Y3724D01*
X2128Y3724D01*
X2128Y3722D01*
X2130Y3722D01*
X2130Y3720D01*
X2132Y3720D01*
X2132Y3718D01*
X2134Y3718D01*
X2134Y3714D01*
X2136Y3714D01*
X2136Y3712D01*
X2138Y3712D01*
X2138Y3710D01*
X2140Y3710D01*
X2140Y3708D01*
X2142Y3708D01*
X2142Y3706D01*
X2144Y3706D01*
X2144Y3702D01*
X2146Y3702D01*
X2146Y3698D01*
X2148Y3698D01*
X2148Y3694D01*
X2150Y3694D01*
X2150Y3690D01*
X2152Y3690D01*
X2152Y3680D01*
X2154Y3680D01*
X2154Y3652D01*
X2360Y3652D01*
X2360Y3650D01*
X2368Y3650D01*
X2368Y3648D01*
X2374Y3648D01*
X2374Y3646D01*
X2380Y3646D01*
X2380Y3644D01*
X2382Y3644D01*
X2382Y3642D01*
X2386Y3642D01*
X2386Y3640D01*
X2390Y3640D01*
X2390Y3638D01*
X2392Y3638D01*
X2392Y3636D01*
X2394Y3636D01*
X2394Y3634D01*
X2396Y3634D01*
X2396Y3632D01*
X2398Y3632D01*
X2398Y3630D01*
X2400Y3630D01*
X2400Y3628D01*
X2402Y3628D01*
X2402Y3626D01*
X2404Y3626D01*
X2404Y3624D01*
X2406Y3624D01*
X2406Y3620D01*
X2408Y3620D01*
X2408Y3618D01*
X2410Y3618D01*
X2410Y3614D01*
X2412Y3614D01*
X2412Y3610D01*
X2414Y3610D01*
X2414Y3604D01*
X2416Y3604D01*
X2416Y3598D01*
X2418Y3598D01*
X2418Y3566D01*
X2416Y3566D01*
X2416Y3560D01*
X2414Y3560D01*
X2414Y3554D01*
X2412Y3554D01*
X2412Y3550D01*
X2410Y3550D01*
X2410Y3548D01*
X2408Y3548D01*
X2408Y3544D01*
X2406Y3544D01*
X2406Y3520D01*
X2408Y3520D01*
X2408Y3518D01*
X2410Y3518D01*
X2410Y3514D01*
X2412Y3514D01*
X2412Y3510D01*
X2414Y3510D01*
X2414Y3504D01*
X2416Y3504D01*
X2416Y3498D01*
X2418Y3498D01*
X2418Y3466D01*
X2416Y3466D01*
X2416Y3460D01*
X2414Y3460D01*
X2414Y3454D01*
X2412Y3454D01*
X2412Y3450D01*
X2410Y3450D01*
X2410Y3448D01*
X2408Y3448D01*
X2408Y3428D01*
X2568Y3428D01*
X2568Y3426D01*
X2574Y3426D01*
X2574Y3424D01*
X2578Y3424D01*
X2578Y3422D01*
X2582Y3422D01*
X2582Y3420D01*
X2586Y3420D01*
X2586Y3418D01*
X2588Y3418D01*
X2588Y3416D01*
X2590Y3416D01*
X2590Y3414D01*
X2592Y3414D01*
X2592Y3412D01*
X2594Y3412D01*
X2594Y3410D01*
X2596Y3410D01*
X2596Y3408D01*
X2598Y3408D01*
X2598Y3406D01*
X2600Y3406D01*
X2600Y3404D01*
X2602Y3404D01*
X2602Y3402D01*
X2604Y3402D01*
X2604Y3400D01*
X2606Y3400D01*
X2606Y3398D01*
X2608Y3398D01*
X2608Y3396D01*
X2610Y3396D01*
X2610Y3394D01*
X2612Y3394D01*
X2612Y3392D01*
X2614Y3392D01*
X2614Y3390D01*
X2616Y3390D01*
X2616Y3388D01*
X2618Y3388D01*
X2618Y3386D01*
X2620Y3386D01*
X2620Y3384D01*
X2622Y3384D01*
X2622Y3382D01*
X2624Y3382D01*
X2624Y3380D01*
X2626Y3380D01*
X2626Y3378D01*
X2628Y3378D01*
X2628Y3376D01*
X2630Y3376D01*
X2630Y3374D01*
X2632Y3374D01*
X2632Y3372D01*
X2634Y3372D01*
X2634Y3370D01*
X2636Y3370D01*
X2636Y3368D01*
X2638Y3368D01*
X2638Y3366D01*
X2640Y3366D01*
X2640Y3364D01*
X2642Y3364D01*
X2642Y3362D01*
X2644Y3362D01*
X2644Y3360D01*
X2646Y3360D01*
X2646Y3358D01*
X2648Y3358D01*
X2648Y3356D01*
X2650Y3356D01*
X2650Y3354D01*
X2652Y3354D01*
X2652Y3352D01*
X2654Y3352D01*
X2654Y3350D01*
X2656Y3350D01*
X2656Y3346D01*
X2658Y3346D01*
X2658Y3344D01*
X2660Y3344D01*
X2660Y3340D01*
X2662Y3340D01*
X2662Y3332D01*
X2664Y3332D01*
X2664Y3184D01*
X2662Y3184D01*
X2662Y3006D01*
X2660Y3006D01*
X2660Y2828D01*
X2658Y2828D01*
X2658Y2648D01*
X2656Y2648D01*
X2656Y2524D01*
X2654Y2524D01*
X2654Y2516D01*
X2652Y2516D01*
X2652Y2512D01*
X2650Y2512D01*
X2650Y2508D01*
X2648Y2508D01*
X2648Y2506D01*
X2646Y2506D01*
X2646Y2502D01*
X2644Y2502D01*
X2644Y2500D01*
X2642Y2500D01*
X2642Y2498D01*
X2640Y2498D01*
X2640Y2496D01*
X2638Y2496D01*
X2638Y2494D01*
X2636Y2494D01*
X2636Y2490D01*
X2634Y2490D01*
X2634Y2488D01*
X2632Y2488D01*
X2632Y2486D01*
X2630Y2486D01*
X2630Y2464D01*
X2632Y2464D01*
X2632Y2462D01*
X2634Y2462D01*
X2634Y2460D01*
X2636Y2460D01*
X2636Y2458D01*
X2638Y2458D01*
X2638Y2456D01*
X2640Y2456D01*
X2640Y2454D01*
X2642Y2454D01*
X2642Y2452D01*
X2644Y2452D01*
X2644Y2450D01*
X2646Y2450D01*
X2646Y2448D01*
X2648Y2448D01*
X2648Y2444D01*
X2650Y2444D01*
X2650Y2440D01*
X2652Y2440D01*
X2652Y2434D01*
X2654Y2434D01*
X2654Y2374D01*
X2656Y2374D01*
X2656Y2218D01*
X2658Y2218D01*
X2658Y2064D01*
X2660Y2064D01*
X2660Y1908D01*
X2662Y1908D01*
X2662Y1752D01*
X2664Y1752D01*
X2664Y1620D01*
X3124Y1620D01*
X3124Y1618D01*
X3132Y1618D01*
X3132Y1616D01*
X3138Y1616D01*
X3138Y1614D01*
X3142Y1614D01*
X3142Y1612D01*
X3144Y1612D01*
X3144Y1610D01*
X3148Y1610D01*
X3148Y1608D01*
X3150Y1608D01*
X3150Y1606D01*
X3152Y1606D01*
X3152Y1604D01*
X3154Y1604D01*
X3154Y1602D01*
X3156Y1602D01*
X3156Y1600D01*
X3158Y1600D01*
X3158Y1598D01*
X3160Y1598D01*
X3160Y1596D01*
X3162Y1596D01*
X3162Y1594D01*
X3166Y1594D01*
X3166Y1592D01*
X3168Y1592D01*
X3168Y1590D01*
X3170Y1590D01*
X3170Y1588D01*
X3172Y1588D01*
X3172Y1586D01*
X3174Y1586D01*
X3174Y1584D01*
X3176Y1584D01*
X3176Y1582D01*
X3178Y1582D01*
X3178Y1580D01*
X3180Y1580D01*
X3180Y1578D01*
X3182Y1578D01*
X3182Y1576D01*
X3186Y1576D01*
X3186Y1574D01*
X3188Y1574D01*
X3188Y1572D01*
X3190Y1572D01*
X3190Y1570D01*
X3192Y1570D01*
X3192Y1568D01*
X3194Y1568D01*
X3194Y1566D01*
X3196Y1566D01*
X3196Y1564D01*
X3198Y1564D01*
X3198Y1562D01*
X3200Y1562D01*
X3200Y1560D01*
X3202Y1560D01*
X3202Y1558D01*
X3206Y1558D01*
X3206Y1556D01*
X3208Y1556D01*
X3208Y1554D01*
X3210Y1554D01*
X3210Y1552D01*
X3212Y1552D01*
X3212Y1550D01*
X3214Y1550D01*
X3214Y1548D01*
X3216Y1548D01*
X3216Y1546D01*
X3218Y1546D01*
X3218Y1544D01*
X3220Y1544D01*
X3220Y1542D01*
X3222Y1542D01*
X3222Y1540D01*
X3224Y1540D01*
X3224Y1538D01*
X3228Y1538D01*
X3228Y1536D01*
X3230Y1536D01*
X3230Y1534D01*
X3232Y1534D01*
X3232Y1532D01*
X3234Y1532D01*
X3234Y1530D01*
X3236Y1530D01*
X3236Y1528D01*
X3238Y1528D01*
X3238Y1526D01*
X3240Y1526D01*
X3240Y1524D01*
X3242Y1524D01*
X3242Y1522D01*
X3244Y1522D01*
X3244Y1520D01*
X3248Y1520D01*
X3248Y1518D01*
X3250Y1518D01*
X3250Y1516D01*
X3252Y1516D01*
X3252Y1514D01*
X3254Y1514D01*
X3254Y1512D01*
X3256Y1512D01*
X3256Y1510D01*
X3276Y1510D01*
X3276Y3808D01*
X2066Y3808D01*
G37*
D02*
G36*
X2154Y3652D02*
X2154Y3188D01*
X2156Y3188D01*
X2156Y3186D01*
X2158Y3186D01*
X2158Y3182D01*
X2160Y3182D01*
X2160Y3180D01*
X2162Y3180D01*
X2162Y3178D01*
X2164Y3178D01*
X2164Y3174D01*
X2166Y3174D01*
X2166Y3172D01*
X2168Y3172D01*
X2168Y3170D01*
X2170Y3170D01*
X2170Y3168D01*
X2172Y3168D01*
X2172Y3164D01*
X2174Y3164D01*
X2174Y3162D01*
X2176Y3162D01*
X2176Y3160D01*
X2178Y3160D01*
X2178Y3156D01*
X2180Y3156D01*
X2180Y3154D01*
X2182Y3154D01*
X2182Y3152D01*
X2184Y3152D01*
X2184Y3150D01*
X2186Y3150D01*
X2186Y3146D01*
X2188Y3146D01*
X2188Y3144D01*
X2190Y3144D01*
X2190Y3142D01*
X2192Y3142D01*
X2192Y3138D01*
X2194Y3138D01*
X2194Y3136D01*
X2286Y3136D01*
X2286Y3156D01*
X2284Y3156D01*
X2284Y3160D01*
X2282Y3160D01*
X2282Y3168D01*
X2280Y3168D01*
X2280Y3196D01*
X2282Y3196D01*
X2282Y3204D01*
X2284Y3204D01*
X2284Y3210D01*
X2286Y3210D01*
X2286Y3214D01*
X2288Y3214D01*
X2288Y3218D01*
X2290Y3218D01*
X2290Y3220D01*
X2292Y3220D01*
X2292Y3244D01*
X2290Y3244D01*
X2290Y3248D01*
X2288Y3248D01*
X2288Y3252D01*
X2286Y3252D01*
X2286Y3256D01*
X2284Y3256D01*
X2284Y3260D01*
X2282Y3260D01*
X2282Y3268D01*
X2280Y3268D01*
X2280Y3296D01*
X2282Y3296D01*
X2282Y3304D01*
X2284Y3304D01*
X2284Y3310D01*
X2286Y3310D01*
X2286Y3314D01*
X2288Y3314D01*
X2288Y3318D01*
X2290Y3318D01*
X2290Y3320D01*
X2292Y3320D01*
X2292Y3344D01*
X2290Y3344D01*
X2290Y3348D01*
X2288Y3348D01*
X2288Y3352D01*
X2286Y3352D01*
X2286Y3356D01*
X2284Y3356D01*
X2284Y3360D01*
X2282Y3360D01*
X2282Y3368D01*
X2280Y3368D01*
X2280Y3396D01*
X2282Y3396D01*
X2282Y3404D01*
X2284Y3404D01*
X2284Y3410D01*
X2286Y3410D01*
X2286Y3414D01*
X2288Y3414D01*
X2288Y3418D01*
X2290Y3418D01*
X2290Y3420D01*
X2292Y3420D01*
X2292Y3444D01*
X2290Y3444D01*
X2290Y3448D01*
X2288Y3448D01*
X2288Y3452D01*
X2286Y3452D01*
X2286Y3456D01*
X2284Y3456D01*
X2284Y3460D01*
X2282Y3460D01*
X2282Y3468D01*
X2280Y3468D01*
X2280Y3496D01*
X2282Y3496D01*
X2282Y3504D01*
X2284Y3504D01*
X2284Y3510D01*
X2286Y3510D01*
X2286Y3514D01*
X2288Y3514D01*
X2288Y3518D01*
X2290Y3518D01*
X2290Y3520D01*
X2292Y3520D01*
X2292Y3544D01*
X2290Y3544D01*
X2290Y3548D01*
X2288Y3548D01*
X2288Y3552D01*
X2286Y3552D01*
X2286Y3556D01*
X2284Y3556D01*
X2284Y3560D01*
X2282Y3560D01*
X2282Y3568D01*
X2280Y3568D01*
X2280Y3596D01*
X2282Y3596D01*
X2282Y3604D01*
X2284Y3604D01*
X2284Y3610D01*
X2286Y3610D01*
X2286Y3614D01*
X2288Y3614D01*
X2288Y3618D01*
X2290Y3618D01*
X2290Y3620D01*
X2292Y3620D01*
X2292Y3624D01*
X2294Y3624D01*
X2294Y3626D01*
X2296Y3626D01*
X2296Y3628D01*
X2298Y3628D01*
X2298Y3630D01*
X2300Y3630D01*
X2300Y3632D01*
X2302Y3632D01*
X2302Y3634D01*
X2304Y3634D01*
X2304Y3636D01*
X2306Y3636D01*
X2306Y3638D01*
X2310Y3638D01*
X2310Y3640D01*
X2312Y3640D01*
X2312Y3642D01*
X2316Y3642D01*
X2316Y3644D01*
X2320Y3644D01*
X2320Y3646D01*
X2324Y3646D01*
X2324Y3648D01*
X2330Y3648D01*
X2330Y3650D01*
X2338Y3650D01*
X2338Y3652D01*
X2154Y3652D01*
G37*
D02*
G36*
X2664Y1620D02*
X2664Y1618D01*
X2854Y1618D01*
X2854Y1620D01*
X2664Y1620D01*
G37*
D02*
G36*
X1898Y3572D02*
X1898Y3570D01*
X1896Y3570D01*
X1896Y3568D01*
X1894Y3568D01*
X1894Y3566D01*
X1892Y3566D01*
X1892Y3564D01*
X1888Y3564D01*
X1888Y3562D01*
X1884Y3562D01*
X1884Y3560D01*
X1882Y3560D01*
X1882Y3558D01*
X1876Y3558D01*
X1876Y3556D01*
X1870Y3556D01*
X1870Y3554D01*
X1860Y3554D01*
X1860Y3552D01*
X1838Y3552D01*
X1838Y3550D01*
X1834Y3550D01*
X1834Y3548D01*
X1832Y3548D01*
X1832Y3546D01*
X1830Y3546D01*
X1830Y3544D01*
X1828Y3544D01*
X1828Y3542D01*
X1826Y3542D01*
X1826Y3540D01*
X1822Y3540D01*
X1822Y3538D01*
X1820Y3538D01*
X1820Y3536D01*
X1818Y3536D01*
X1818Y3534D01*
X1816Y3534D01*
X1816Y3532D01*
X1812Y3532D01*
X1812Y3530D01*
X1810Y3530D01*
X1810Y3528D01*
X1808Y3528D01*
X1808Y3526D01*
X1806Y3526D01*
X1806Y3524D01*
X1804Y3524D01*
X1804Y3522D01*
X1800Y3522D01*
X1800Y3520D01*
X1798Y3520D01*
X1798Y3518D01*
X1796Y3518D01*
X1796Y3516D01*
X1794Y3516D01*
X1794Y3514D01*
X1792Y3514D01*
X1792Y3512D01*
X1788Y3512D01*
X1788Y3510D01*
X1786Y3510D01*
X1786Y3508D01*
X1784Y3508D01*
X1784Y3506D01*
X1782Y3506D01*
X1782Y3504D01*
X1778Y3504D01*
X1778Y3502D01*
X1776Y3502D01*
X1776Y3500D01*
X1774Y3500D01*
X1774Y3498D01*
X1772Y3498D01*
X1772Y3496D01*
X1770Y3496D01*
X1770Y3494D01*
X1766Y3494D01*
X1766Y3492D01*
X1764Y3492D01*
X1764Y3490D01*
X1762Y3490D01*
X1762Y3488D01*
X1760Y3488D01*
X1760Y3486D01*
X1758Y3486D01*
X1758Y3484D01*
X1754Y3484D01*
X1754Y3482D01*
X1752Y3482D01*
X1752Y3480D01*
X1750Y3480D01*
X1750Y3478D01*
X1748Y3478D01*
X1748Y3476D01*
X1746Y3476D01*
X1746Y3474D01*
X1742Y3474D01*
X1742Y3472D01*
X1740Y3472D01*
X1740Y3470D01*
X1738Y3470D01*
X1738Y3468D01*
X1736Y3468D01*
X1736Y3466D01*
X1732Y3466D01*
X1732Y3464D01*
X1730Y3464D01*
X1730Y3462D01*
X1728Y3462D01*
X1728Y3460D01*
X1726Y3460D01*
X1726Y3458D01*
X1724Y3458D01*
X1724Y3456D01*
X1720Y3456D01*
X1720Y3454D01*
X1718Y3454D01*
X1718Y3452D01*
X1716Y3452D01*
X1716Y3450D01*
X1714Y3450D01*
X1714Y3448D01*
X1712Y3448D01*
X1712Y3446D01*
X1708Y3446D01*
X1708Y3444D01*
X1706Y3444D01*
X1706Y3442D01*
X1704Y3442D01*
X1704Y3440D01*
X1702Y3440D01*
X1702Y3438D01*
X1698Y3438D01*
X1698Y3436D01*
X1696Y3436D01*
X1696Y3434D01*
X1694Y3434D01*
X1694Y3432D01*
X1692Y3432D01*
X1692Y3430D01*
X1690Y3430D01*
X1690Y3428D01*
X1686Y3428D01*
X1686Y3426D01*
X1684Y3426D01*
X1684Y3424D01*
X1682Y3424D01*
X1682Y3422D01*
X1680Y3422D01*
X1680Y3420D01*
X1678Y3420D01*
X1678Y3418D01*
X1674Y3418D01*
X1674Y3416D01*
X1672Y3416D01*
X1672Y3414D01*
X1670Y3414D01*
X1670Y3412D01*
X1668Y3412D01*
X1668Y3410D01*
X1666Y3410D01*
X1666Y3408D01*
X1662Y3408D01*
X1662Y3406D01*
X1660Y3406D01*
X1660Y3404D01*
X1658Y3404D01*
X1658Y3402D01*
X1656Y3402D01*
X1656Y3400D01*
X1652Y3400D01*
X1652Y3398D01*
X1650Y3398D01*
X1650Y3396D01*
X1648Y3396D01*
X1648Y3394D01*
X1646Y3394D01*
X1646Y3392D01*
X1644Y3392D01*
X1644Y3390D01*
X1640Y3390D01*
X1640Y3388D01*
X1638Y3388D01*
X1638Y3386D01*
X1636Y3386D01*
X1636Y3384D01*
X1634Y3384D01*
X1634Y3382D01*
X1632Y3382D01*
X1632Y3380D01*
X1628Y3380D01*
X1628Y3378D01*
X1626Y3378D01*
X1626Y3376D01*
X1624Y3376D01*
X1624Y3374D01*
X1622Y3374D01*
X1622Y3372D01*
X1618Y3372D01*
X1618Y3370D01*
X1616Y3370D01*
X1616Y3368D01*
X1614Y3368D01*
X1614Y3366D01*
X1612Y3366D01*
X1612Y3364D01*
X1610Y3364D01*
X1610Y3362D01*
X1606Y3362D01*
X1606Y3360D01*
X1604Y3360D01*
X1604Y3358D01*
X1602Y3358D01*
X1602Y3356D01*
X1600Y3356D01*
X1600Y3354D01*
X1598Y3354D01*
X1598Y3352D01*
X1594Y3352D01*
X1594Y3350D01*
X1592Y3350D01*
X1592Y3348D01*
X1590Y3348D01*
X1590Y3346D01*
X1588Y3346D01*
X1588Y3344D01*
X1584Y3344D01*
X1584Y3342D01*
X1582Y3342D01*
X1582Y3340D01*
X1580Y3340D01*
X1580Y3338D01*
X1578Y3338D01*
X1578Y3336D01*
X1576Y3336D01*
X1576Y3334D01*
X1572Y3334D01*
X1572Y3332D01*
X1570Y3332D01*
X1570Y3330D01*
X1568Y3330D01*
X1568Y3328D01*
X1566Y3328D01*
X1566Y3326D01*
X1564Y3326D01*
X1564Y3324D01*
X1560Y3324D01*
X1560Y3322D01*
X1558Y3322D01*
X1558Y3320D01*
X1556Y3320D01*
X1556Y3318D01*
X1554Y3318D01*
X1554Y3316D01*
X1552Y3316D01*
X1552Y3314D01*
X1548Y3314D01*
X1548Y3312D01*
X1546Y3312D01*
X1546Y3310D01*
X1544Y3310D01*
X1544Y3308D01*
X1542Y3308D01*
X1542Y3306D01*
X1538Y3306D01*
X1538Y3304D01*
X1536Y3304D01*
X1536Y3302D01*
X1534Y3302D01*
X1534Y3300D01*
X1532Y3300D01*
X1532Y3298D01*
X1530Y3298D01*
X1530Y3296D01*
X1526Y3296D01*
X1526Y3294D01*
X1524Y3294D01*
X1524Y3292D01*
X1522Y3292D01*
X1522Y3290D01*
X1520Y3290D01*
X1520Y3288D01*
X1518Y3288D01*
X1518Y3286D01*
X1514Y3286D01*
X1514Y3284D01*
X1512Y3284D01*
X1512Y3282D01*
X1510Y3282D01*
X1510Y3280D01*
X1508Y3280D01*
X1508Y3278D01*
X1504Y3278D01*
X1504Y3276D01*
X1502Y3276D01*
X1502Y3274D01*
X1500Y3274D01*
X1500Y3272D01*
X1498Y3272D01*
X1498Y3270D01*
X1496Y3270D01*
X1496Y3268D01*
X1492Y3268D01*
X1492Y3266D01*
X1490Y3266D01*
X1490Y3264D01*
X1488Y3264D01*
X1488Y3262D01*
X1486Y3262D01*
X1486Y3260D01*
X1484Y3260D01*
X1484Y3258D01*
X1480Y3258D01*
X1480Y3256D01*
X1478Y3256D01*
X1478Y3254D01*
X1476Y3254D01*
X1476Y3252D01*
X1474Y3252D01*
X1474Y3250D01*
X1472Y3250D01*
X1472Y3248D01*
X1468Y3248D01*
X1468Y3246D01*
X1466Y3246D01*
X1466Y3244D01*
X1464Y3244D01*
X1464Y3242D01*
X1462Y3242D01*
X1462Y3240D01*
X1458Y3240D01*
X1458Y3238D01*
X1456Y3238D01*
X1456Y3236D01*
X1454Y3236D01*
X1454Y3234D01*
X1452Y3234D01*
X1452Y3232D01*
X1450Y3232D01*
X1450Y3230D01*
X1446Y3230D01*
X1446Y3228D01*
X1444Y3228D01*
X1444Y3226D01*
X1442Y3226D01*
X1442Y3224D01*
X1440Y3224D01*
X1440Y3222D01*
X1438Y3222D01*
X1438Y3220D01*
X1434Y3220D01*
X1434Y3218D01*
X1432Y3218D01*
X1432Y3216D01*
X1430Y3216D01*
X1430Y3214D01*
X1428Y3214D01*
X1428Y3212D01*
X1424Y3212D01*
X1424Y3210D01*
X1422Y3210D01*
X1422Y3208D01*
X1420Y3208D01*
X1420Y3206D01*
X1418Y3206D01*
X1418Y3204D01*
X1416Y3204D01*
X1416Y3202D01*
X1412Y3202D01*
X1412Y3200D01*
X1410Y3200D01*
X1410Y3198D01*
X1408Y3198D01*
X1408Y3196D01*
X1406Y3196D01*
X1406Y3194D01*
X1404Y3194D01*
X1404Y3192D01*
X1400Y3192D01*
X1400Y3190D01*
X1398Y3190D01*
X1398Y3188D01*
X1396Y3188D01*
X1396Y3186D01*
X1394Y3186D01*
X1394Y3184D01*
X1390Y3184D01*
X1390Y3182D01*
X1388Y3182D01*
X1388Y3180D01*
X1386Y3180D01*
X1386Y3178D01*
X1384Y3178D01*
X1384Y3176D01*
X1382Y3176D01*
X1382Y3174D01*
X1378Y3174D01*
X1378Y3172D01*
X1376Y3172D01*
X1376Y3170D01*
X1374Y3170D01*
X1374Y3168D01*
X1372Y3168D01*
X1372Y3166D01*
X1370Y3166D01*
X1370Y3164D01*
X1366Y3164D01*
X1366Y3162D01*
X1364Y3162D01*
X1364Y3160D01*
X1362Y3160D01*
X1362Y3158D01*
X1360Y3158D01*
X1360Y3156D01*
X1358Y3156D01*
X1358Y3154D01*
X1354Y3154D01*
X1354Y3152D01*
X1352Y3152D01*
X1352Y3150D01*
X1350Y3150D01*
X1350Y3148D01*
X1348Y3148D01*
X1348Y3146D01*
X1344Y3146D01*
X1344Y3144D01*
X1342Y3144D01*
X1342Y3142D01*
X1340Y3142D01*
X1340Y3140D01*
X1338Y3140D01*
X1338Y3138D01*
X1336Y3138D01*
X1336Y3136D01*
X1332Y3136D01*
X1332Y3134D01*
X1330Y3134D01*
X1330Y3132D01*
X1328Y3132D01*
X1328Y3130D01*
X1326Y3130D01*
X1326Y3128D01*
X1324Y3128D01*
X1324Y3126D01*
X1320Y3126D01*
X1320Y3124D01*
X1318Y3124D01*
X1318Y3122D01*
X1316Y3122D01*
X1316Y3120D01*
X1314Y3120D01*
X1314Y3118D01*
X1310Y3118D01*
X1310Y3116D01*
X1308Y3116D01*
X1308Y3114D01*
X1306Y3114D01*
X1306Y3112D01*
X1304Y3112D01*
X1304Y3110D01*
X1302Y3110D01*
X1302Y3108D01*
X1298Y3108D01*
X1298Y3106D01*
X1296Y3106D01*
X1296Y3104D01*
X1294Y3104D01*
X1294Y3102D01*
X1292Y3102D01*
X1292Y3100D01*
X1290Y3100D01*
X1290Y3098D01*
X1286Y3098D01*
X1286Y3096D01*
X1284Y3096D01*
X1284Y3094D01*
X1282Y3094D01*
X1282Y3092D01*
X1280Y3092D01*
X1280Y3090D01*
X1276Y3090D01*
X1276Y3088D01*
X1274Y3088D01*
X1274Y3086D01*
X1272Y3086D01*
X1272Y3084D01*
X1270Y3084D01*
X1270Y3082D01*
X1268Y3082D01*
X1268Y3080D01*
X1264Y3080D01*
X1264Y3078D01*
X1262Y3078D01*
X1262Y3076D01*
X1260Y3076D01*
X1260Y3074D01*
X1258Y3074D01*
X1258Y3072D01*
X1256Y3072D01*
X1256Y3070D01*
X1252Y3070D01*
X1252Y3068D01*
X1250Y3068D01*
X1250Y3066D01*
X1248Y3066D01*
X1248Y3064D01*
X1246Y3064D01*
X1246Y3062D01*
X1244Y3062D01*
X1244Y3060D01*
X1240Y3060D01*
X1240Y3058D01*
X1238Y3058D01*
X1238Y3056D01*
X1236Y3056D01*
X1236Y3054D01*
X1234Y3054D01*
X1234Y3052D01*
X1230Y3052D01*
X1230Y3050D01*
X1228Y3050D01*
X1228Y3048D01*
X1226Y3048D01*
X1226Y3046D01*
X1224Y3046D01*
X1224Y3044D01*
X1222Y3044D01*
X1222Y3042D01*
X1218Y3042D01*
X1218Y3040D01*
X1216Y3040D01*
X1216Y3038D01*
X1214Y3038D01*
X1214Y3036D01*
X1212Y3036D01*
X1212Y3034D01*
X1210Y3034D01*
X1210Y3032D01*
X1206Y3032D01*
X1206Y3030D01*
X1204Y3030D01*
X1204Y3028D01*
X1202Y3028D01*
X1202Y3026D01*
X1200Y3026D01*
X1200Y3024D01*
X1196Y3024D01*
X1196Y3022D01*
X1194Y3022D01*
X1194Y3020D01*
X1192Y3020D01*
X1192Y3018D01*
X1190Y3018D01*
X1190Y3016D01*
X1188Y3016D01*
X1188Y3014D01*
X1184Y3014D01*
X1184Y3012D01*
X2342Y3012D01*
X2342Y3014D01*
X2332Y3014D01*
X2332Y3016D01*
X2324Y3016D01*
X2324Y3018D01*
X2320Y3018D01*
X2320Y3020D01*
X2316Y3020D01*
X2316Y3022D01*
X2312Y3022D01*
X2312Y3024D01*
X2310Y3024D01*
X2310Y3026D01*
X2308Y3026D01*
X2308Y3028D01*
X2156Y3028D01*
X2156Y3030D01*
X2150Y3030D01*
X2150Y3032D01*
X2144Y3032D01*
X2144Y3034D01*
X2142Y3034D01*
X2142Y3036D01*
X2138Y3036D01*
X2138Y3038D01*
X2136Y3038D01*
X2136Y3040D01*
X2134Y3040D01*
X2134Y3042D01*
X2132Y3042D01*
X2132Y3044D01*
X2130Y3044D01*
X2130Y3046D01*
X2128Y3046D01*
X2128Y3048D01*
X2126Y3048D01*
X2126Y3050D01*
X2124Y3050D01*
X2124Y3052D01*
X2122Y3052D01*
X2122Y3056D01*
X2120Y3056D01*
X2120Y3058D01*
X2118Y3058D01*
X2118Y3060D01*
X2116Y3060D01*
X2116Y3062D01*
X2114Y3062D01*
X2114Y3066D01*
X2112Y3066D01*
X2112Y3068D01*
X2110Y3068D01*
X2110Y3070D01*
X2108Y3070D01*
X2108Y3074D01*
X2106Y3074D01*
X2106Y3076D01*
X2104Y3076D01*
X2104Y3078D01*
X2102Y3078D01*
X2102Y3082D01*
X2100Y3082D01*
X2100Y3084D01*
X2098Y3084D01*
X2098Y3086D01*
X2096Y3086D01*
X2096Y3088D01*
X2094Y3088D01*
X2094Y3092D01*
X2092Y3092D01*
X2092Y3094D01*
X2090Y3094D01*
X2090Y3096D01*
X2088Y3096D01*
X2088Y3100D01*
X2086Y3100D01*
X2086Y3102D01*
X2084Y3102D01*
X2084Y3104D01*
X2082Y3104D01*
X2082Y3108D01*
X2080Y3108D01*
X2080Y3110D01*
X2078Y3110D01*
X2078Y3112D01*
X2076Y3112D01*
X2076Y3114D01*
X2074Y3114D01*
X2074Y3118D01*
X2072Y3118D01*
X2072Y3120D01*
X2070Y3120D01*
X2070Y3122D01*
X2068Y3122D01*
X2068Y3126D01*
X2066Y3126D01*
X2066Y3128D01*
X2064Y3128D01*
X2064Y3130D01*
X2062Y3130D01*
X2062Y3132D01*
X2060Y3132D01*
X2060Y3136D01*
X2058Y3136D01*
X2058Y3138D01*
X2056Y3138D01*
X2056Y3140D01*
X2054Y3140D01*
X2054Y3144D01*
X2052Y3144D01*
X2052Y3148D01*
X2050Y3148D01*
X2050Y3152D01*
X2048Y3152D01*
X2048Y3158D01*
X2046Y3158D01*
X2046Y3552D01*
X1920Y3552D01*
X1920Y3572D01*
X1898Y3572D01*
G37*
D02*
G36*
X2410Y3236D02*
X2410Y3214D01*
X2412Y3214D01*
X2412Y3210D01*
X2414Y3210D01*
X2414Y3204D01*
X2416Y3204D01*
X2416Y3198D01*
X2418Y3198D01*
X2418Y3166D01*
X2416Y3166D01*
X2416Y3160D01*
X2414Y3160D01*
X2414Y3154D01*
X2412Y3154D01*
X2412Y3150D01*
X2410Y3150D01*
X2410Y3148D01*
X2408Y3148D01*
X2408Y3144D01*
X2406Y3144D01*
X2406Y3120D01*
X2408Y3120D01*
X2408Y3118D01*
X2410Y3118D01*
X2410Y3114D01*
X2412Y3114D01*
X2412Y3110D01*
X2414Y3110D01*
X2414Y3104D01*
X2416Y3104D01*
X2416Y3098D01*
X2418Y3098D01*
X2418Y3066D01*
X2416Y3066D01*
X2416Y3060D01*
X2414Y3060D01*
X2414Y3054D01*
X2412Y3054D01*
X2412Y3050D01*
X2410Y3050D01*
X2410Y3048D01*
X2408Y3048D01*
X2408Y3044D01*
X2406Y3044D01*
X2406Y3042D01*
X2404Y3042D01*
X2404Y3038D01*
X2402Y3038D01*
X2402Y3036D01*
X2400Y3036D01*
X2400Y3034D01*
X2398Y3034D01*
X2398Y3032D01*
X2396Y3032D01*
X2396Y3030D01*
X2394Y3030D01*
X2394Y3028D01*
X2392Y3028D01*
X2392Y3026D01*
X2388Y3026D01*
X2388Y3024D01*
X2386Y3024D01*
X2386Y3022D01*
X2382Y3022D01*
X2382Y3020D01*
X2378Y3020D01*
X2378Y3018D01*
X2374Y3018D01*
X2374Y3016D01*
X2366Y3016D01*
X2366Y3014D01*
X2356Y3014D01*
X2356Y3012D01*
X2482Y3012D01*
X2482Y3048D01*
X2484Y3048D01*
X2484Y3206D01*
X2482Y3206D01*
X2482Y3208D01*
X2480Y3208D01*
X2480Y3212D01*
X2478Y3212D01*
X2478Y3214D01*
X2476Y3214D01*
X2476Y3216D01*
X2474Y3216D01*
X2474Y3218D01*
X2472Y3218D01*
X2472Y3220D01*
X2470Y3220D01*
X2470Y3224D01*
X2468Y3224D01*
X2468Y3226D01*
X2466Y3226D01*
X2466Y3228D01*
X2464Y3228D01*
X2464Y3230D01*
X2462Y3230D01*
X2462Y3232D01*
X2460Y3232D01*
X2460Y3234D01*
X2458Y3234D01*
X2458Y3236D01*
X2410Y3236D01*
G37*
D02*
G36*
X1182Y3012D02*
X1182Y3010D01*
X2482Y3010D01*
X2482Y3012D01*
X1182Y3012D01*
G37*
D02*
G36*
X1182Y3012D02*
X1182Y3010D01*
X2482Y3010D01*
X2482Y3012D01*
X1182Y3012D01*
G37*
D02*
G36*
X1180Y3010D02*
X1180Y3008D01*
X1178Y3008D01*
X1178Y3006D01*
X1176Y3006D01*
X1176Y3004D01*
X1172Y3004D01*
X1172Y3002D01*
X1170Y3002D01*
X1170Y3000D01*
X1168Y3000D01*
X1168Y2998D01*
X1166Y2998D01*
X1166Y2996D01*
X1164Y2996D01*
X1164Y2994D01*
X1160Y2994D01*
X1160Y2992D01*
X1158Y2992D01*
X1158Y2990D01*
X1156Y2990D01*
X1156Y2988D01*
X1154Y2988D01*
X1154Y2986D01*
X1150Y2986D01*
X1150Y2984D01*
X1148Y2984D01*
X1148Y2982D01*
X1146Y2982D01*
X1146Y2980D01*
X1144Y2980D01*
X1144Y2978D01*
X1142Y2978D01*
X1142Y2976D01*
X1138Y2976D01*
X1138Y2974D01*
X1136Y2974D01*
X1136Y2972D01*
X1134Y2972D01*
X1134Y2970D01*
X1132Y2970D01*
X1132Y2968D01*
X1130Y2968D01*
X1130Y2966D01*
X1126Y2966D01*
X1126Y2964D01*
X1124Y2964D01*
X1124Y2962D01*
X1122Y2962D01*
X1122Y2960D01*
X1120Y2960D01*
X1120Y2958D01*
X1116Y2958D01*
X1116Y2956D01*
X1114Y2956D01*
X1114Y2954D01*
X1112Y2954D01*
X1112Y2952D01*
X1110Y2952D01*
X1110Y2950D01*
X1108Y2950D01*
X1108Y2948D01*
X1104Y2948D01*
X1104Y2946D01*
X1102Y2946D01*
X1102Y2944D01*
X1100Y2944D01*
X1100Y2942D01*
X1098Y2942D01*
X1098Y2940D01*
X1096Y2940D01*
X1096Y2938D01*
X1092Y2938D01*
X1092Y2936D01*
X1090Y2936D01*
X1090Y2934D01*
X1088Y2934D01*
X1088Y2932D01*
X1086Y2932D01*
X1086Y2930D01*
X1082Y2930D01*
X1082Y2928D01*
X1080Y2928D01*
X1080Y2926D01*
X1078Y2926D01*
X1078Y2924D01*
X1076Y2924D01*
X1076Y2922D01*
X1074Y2922D01*
X1074Y2920D01*
X1070Y2920D01*
X1070Y2918D01*
X1068Y2918D01*
X1068Y2916D01*
X1066Y2916D01*
X1066Y2914D01*
X1064Y2914D01*
X1064Y2912D01*
X1062Y2912D01*
X1062Y2910D01*
X1058Y2910D01*
X1058Y2908D01*
X1056Y2908D01*
X1056Y2906D01*
X1054Y2906D01*
X1054Y2904D01*
X1052Y2904D01*
X1052Y2902D01*
X1050Y2902D01*
X1050Y2900D01*
X1046Y2900D01*
X1046Y2898D01*
X1044Y2898D01*
X1044Y2896D01*
X1042Y2896D01*
X1042Y2894D01*
X1040Y2894D01*
X1040Y2892D01*
X1036Y2892D01*
X1036Y2890D01*
X1034Y2890D01*
X1034Y2888D01*
X1032Y2888D01*
X1032Y2886D01*
X1030Y2886D01*
X1030Y2884D01*
X1028Y2884D01*
X1028Y2882D01*
X1024Y2882D01*
X1024Y2880D01*
X1022Y2880D01*
X1022Y2878D01*
X1020Y2878D01*
X1020Y2876D01*
X1018Y2876D01*
X1018Y2874D01*
X1016Y2874D01*
X1016Y2872D01*
X1012Y2872D01*
X1012Y2870D01*
X1010Y2870D01*
X1010Y2868D01*
X1008Y2868D01*
X1008Y2866D01*
X1006Y2866D01*
X1006Y2864D01*
X1002Y2864D01*
X1002Y2862D01*
X1000Y2862D01*
X1000Y2860D01*
X998Y2860D01*
X998Y2858D01*
X996Y2858D01*
X996Y2856D01*
X994Y2856D01*
X994Y2854D01*
X990Y2854D01*
X990Y2852D01*
X988Y2852D01*
X988Y2850D01*
X986Y2850D01*
X986Y2848D01*
X984Y2848D01*
X984Y2846D01*
X982Y2846D01*
X982Y2844D01*
X978Y2844D01*
X978Y2842D01*
X976Y2842D01*
X976Y2840D01*
X974Y2840D01*
X974Y2838D01*
X972Y2838D01*
X972Y2836D01*
X970Y2836D01*
X970Y2834D01*
X966Y2834D01*
X966Y2832D01*
X964Y2832D01*
X964Y2830D01*
X962Y2830D01*
X962Y2828D01*
X960Y2828D01*
X960Y2826D01*
X956Y2826D01*
X956Y2824D01*
X954Y2824D01*
X954Y2822D01*
X952Y2822D01*
X952Y2820D01*
X950Y2820D01*
X950Y2818D01*
X948Y2818D01*
X948Y2816D01*
X944Y2816D01*
X944Y2814D01*
X942Y2814D01*
X942Y2812D01*
X940Y2812D01*
X940Y2810D01*
X938Y2810D01*
X938Y2808D01*
X936Y2808D01*
X936Y2806D01*
X932Y2806D01*
X932Y2804D01*
X930Y2804D01*
X930Y2802D01*
X928Y2802D01*
X928Y2800D01*
X926Y2800D01*
X926Y2798D01*
X922Y2798D01*
X922Y2796D01*
X920Y2796D01*
X920Y2794D01*
X918Y2794D01*
X918Y2792D01*
X916Y2792D01*
X916Y2694D01*
X918Y2694D01*
X918Y2330D01*
X920Y2330D01*
X920Y1966D01*
X922Y1966D01*
X922Y1872D01*
X1032Y1872D01*
X1032Y1870D01*
X1040Y1870D01*
X1040Y1868D01*
X1046Y1868D01*
X1046Y1866D01*
X1050Y1866D01*
X1050Y1864D01*
X1054Y1864D01*
X1054Y1862D01*
X1058Y1862D01*
X1058Y1860D01*
X1418Y1860D01*
X1418Y1858D01*
X1428Y1858D01*
X1428Y1856D01*
X1434Y1856D01*
X1434Y1854D01*
X1438Y1854D01*
X1438Y1852D01*
X1442Y1852D01*
X1442Y1850D01*
X1446Y1850D01*
X1446Y1848D01*
X1448Y1848D01*
X1448Y1846D01*
X1452Y1846D01*
X1452Y1844D01*
X1454Y1844D01*
X1454Y1842D01*
X1456Y1842D01*
X1456Y1840D01*
X1458Y1840D01*
X1458Y1838D01*
X1460Y1838D01*
X1460Y1836D01*
X1462Y1836D01*
X1462Y1832D01*
X1464Y1832D01*
X1464Y1830D01*
X1466Y1830D01*
X1466Y1826D01*
X1468Y1826D01*
X1468Y1824D01*
X1470Y1824D01*
X1470Y1820D01*
X1472Y1820D01*
X1472Y1814D01*
X1474Y1814D01*
X1474Y1806D01*
X1476Y1806D01*
X1476Y1778D01*
X1474Y1778D01*
X1474Y1770D01*
X1472Y1770D01*
X1472Y1766D01*
X1470Y1766D01*
X1470Y1762D01*
X1468Y1762D01*
X1468Y1758D01*
X1466Y1758D01*
X1466Y1754D01*
X1464Y1754D01*
X1464Y1752D01*
X1462Y1752D01*
X1462Y1750D01*
X1460Y1750D01*
X1460Y1746D01*
X1458Y1746D01*
X1458Y1744D01*
X1456Y1744D01*
X1456Y1742D01*
X1452Y1742D01*
X1452Y1740D01*
X1450Y1740D01*
X1450Y1738D01*
X1448Y1738D01*
X1448Y1736D01*
X1444Y1736D01*
X1444Y1734D01*
X1442Y1734D01*
X1442Y1732D01*
X1438Y1732D01*
X1438Y1730D01*
X1432Y1730D01*
X1432Y1728D01*
X1426Y1728D01*
X1426Y1726D01*
X1414Y1726D01*
X1414Y1724D01*
X1612Y1724D01*
X1612Y2094D01*
X1614Y2094D01*
X1614Y2106D01*
X1616Y2106D01*
X1616Y2110D01*
X1618Y2110D01*
X1618Y2114D01*
X1620Y2114D01*
X1620Y2118D01*
X1622Y2118D01*
X1622Y2120D01*
X1624Y2120D01*
X1624Y2122D01*
X1626Y2122D01*
X1626Y2124D01*
X1628Y2124D01*
X1628Y2126D01*
X1630Y2126D01*
X1630Y2128D01*
X1632Y2128D01*
X1632Y2130D01*
X1634Y2130D01*
X1634Y2132D01*
X1636Y2132D01*
X1636Y2134D01*
X1638Y2134D01*
X1638Y2136D01*
X1640Y2136D01*
X1640Y2138D01*
X1644Y2138D01*
X1644Y2140D01*
X1646Y2140D01*
X1646Y2142D01*
X1648Y2142D01*
X1648Y2144D01*
X1650Y2144D01*
X1650Y2146D01*
X1652Y2146D01*
X1652Y2148D01*
X1654Y2148D01*
X1654Y2150D01*
X1656Y2150D01*
X1656Y2152D01*
X1660Y2152D01*
X1660Y2154D01*
X1662Y2154D01*
X1662Y2156D01*
X1664Y2156D01*
X1664Y2158D01*
X1666Y2158D01*
X1666Y2160D01*
X1668Y2160D01*
X1668Y2162D01*
X1670Y2162D01*
X1670Y2164D01*
X1672Y2164D01*
X1672Y2166D01*
X1676Y2166D01*
X1676Y2168D01*
X1678Y2168D01*
X1678Y2170D01*
X1680Y2170D01*
X1680Y2172D01*
X1682Y2172D01*
X1682Y2174D01*
X1684Y2174D01*
X1684Y2176D01*
X1686Y2176D01*
X1686Y2178D01*
X1688Y2178D01*
X1688Y2180D01*
X1692Y2180D01*
X1692Y2182D01*
X1694Y2182D01*
X1694Y2184D01*
X1696Y2184D01*
X1696Y2186D01*
X1698Y2186D01*
X1698Y2188D01*
X1700Y2188D01*
X1700Y2190D01*
X1702Y2190D01*
X1702Y2192D01*
X1706Y2192D01*
X1706Y2194D01*
X1708Y2194D01*
X1708Y2196D01*
X1710Y2196D01*
X1710Y2198D01*
X1712Y2198D01*
X1712Y2200D01*
X1716Y2200D01*
X1716Y2202D01*
X1720Y2202D01*
X1720Y2204D01*
X1724Y2204D01*
X1724Y2206D01*
X1732Y2206D01*
X1732Y2208D01*
X1810Y2208D01*
X1810Y2210D01*
X1926Y2210D01*
X1926Y2212D01*
X2042Y2212D01*
X2042Y2214D01*
X2160Y2214D01*
X2160Y2216D01*
X2276Y2216D01*
X2276Y2218D01*
X2290Y2218D01*
X2290Y2238D01*
X2288Y2238D01*
X2288Y2242D01*
X2286Y2242D01*
X2286Y2246D01*
X2284Y2246D01*
X2284Y2250D01*
X2282Y2250D01*
X2282Y2258D01*
X2280Y2258D01*
X2280Y2286D01*
X2282Y2286D01*
X2282Y2294D01*
X2284Y2294D01*
X2284Y2300D01*
X2286Y2300D01*
X2286Y2304D01*
X2288Y2304D01*
X2288Y2308D01*
X2290Y2308D01*
X2290Y2310D01*
X2292Y2310D01*
X2292Y2334D01*
X2290Y2334D01*
X2290Y2338D01*
X2288Y2338D01*
X2288Y2342D01*
X2286Y2342D01*
X2286Y2346D01*
X2284Y2346D01*
X2284Y2350D01*
X2282Y2350D01*
X2282Y2358D01*
X2280Y2358D01*
X2280Y2360D01*
X2278Y2360D01*
X2278Y2362D01*
X2276Y2362D01*
X2276Y2364D01*
X2272Y2364D01*
X2272Y2366D01*
X2268Y2366D01*
X2268Y2368D01*
X2266Y2368D01*
X2266Y2370D01*
X2262Y2370D01*
X2262Y2372D01*
X2258Y2372D01*
X2258Y2374D01*
X2256Y2374D01*
X2256Y2376D01*
X2252Y2376D01*
X2252Y2378D01*
X2248Y2378D01*
X2248Y2380D01*
X2246Y2380D01*
X2246Y2382D01*
X2242Y2382D01*
X2242Y2384D01*
X2238Y2384D01*
X2238Y2386D01*
X2236Y2386D01*
X2236Y2388D01*
X2232Y2388D01*
X2232Y2390D01*
X2228Y2390D01*
X2228Y2392D01*
X2226Y2392D01*
X2226Y2394D01*
X2222Y2394D01*
X2222Y2396D01*
X2220Y2396D01*
X2220Y2398D01*
X2218Y2398D01*
X2218Y2400D01*
X2216Y2400D01*
X2216Y2402D01*
X2214Y2402D01*
X2214Y2404D01*
X2212Y2404D01*
X2212Y2406D01*
X2210Y2406D01*
X2210Y2408D01*
X2208Y2408D01*
X2208Y2412D01*
X2206Y2412D01*
X2206Y2416D01*
X2204Y2416D01*
X2204Y2422D01*
X2202Y2422D01*
X2202Y2738D01*
X2204Y2738D01*
X2204Y2824D01*
X2206Y2824D01*
X2206Y2830D01*
X2208Y2830D01*
X2208Y2836D01*
X2210Y2836D01*
X2210Y2838D01*
X2212Y2838D01*
X2212Y2842D01*
X2214Y2842D01*
X2214Y2844D01*
X2216Y2844D01*
X2216Y2846D01*
X2218Y2846D01*
X2218Y2848D01*
X2220Y2848D01*
X2220Y2850D01*
X2224Y2850D01*
X2224Y2852D01*
X2226Y2852D01*
X2226Y2854D01*
X2228Y2854D01*
X2228Y2856D01*
X2230Y2856D01*
X2230Y2858D01*
X2232Y2858D01*
X2232Y2860D01*
X2236Y2860D01*
X2236Y2862D01*
X2238Y2862D01*
X2238Y2864D01*
X2240Y2864D01*
X2240Y2866D01*
X2242Y2866D01*
X2242Y2868D01*
X2244Y2868D01*
X2244Y2870D01*
X2248Y2870D01*
X2248Y2872D01*
X2250Y2872D01*
X2250Y2874D01*
X2252Y2874D01*
X2252Y2876D01*
X2254Y2876D01*
X2254Y2878D01*
X2258Y2878D01*
X2258Y2880D01*
X2260Y2880D01*
X2260Y2882D01*
X2262Y2882D01*
X2262Y2884D01*
X2264Y2884D01*
X2264Y2886D01*
X2266Y2886D01*
X2266Y2888D01*
X2270Y2888D01*
X2270Y2890D01*
X2272Y2890D01*
X2272Y2892D01*
X2274Y2892D01*
X2274Y2894D01*
X2276Y2894D01*
X2276Y2896D01*
X2278Y2896D01*
X2278Y2898D01*
X2282Y2898D01*
X2282Y2900D01*
X2284Y2900D01*
X2284Y2902D01*
X2288Y2902D01*
X2288Y2904D01*
X2292Y2904D01*
X2292Y2906D01*
X2298Y2906D01*
X2298Y2908D01*
X2466Y2908D01*
X2466Y2910D01*
X2468Y2910D01*
X2468Y2912D01*
X2470Y2912D01*
X2470Y2914D01*
X2472Y2914D01*
X2472Y2916D01*
X2474Y2916D01*
X2474Y2920D01*
X2476Y2920D01*
X2476Y2922D01*
X2478Y2922D01*
X2478Y2924D01*
X2480Y2924D01*
X2480Y2926D01*
X2482Y2926D01*
X2482Y3010D01*
X1180Y3010D01*
G37*
D02*
G36*
X922Y1872D02*
X922Y1734D01*
X1010Y1734D01*
X1010Y1736D01*
X1000Y1736D01*
X1000Y1738D01*
X996Y1738D01*
X996Y1740D01*
X990Y1740D01*
X990Y1742D01*
X988Y1742D01*
X988Y1744D01*
X984Y1744D01*
X984Y1746D01*
X980Y1746D01*
X980Y1748D01*
X978Y1748D01*
X978Y1750D01*
X976Y1750D01*
X976Y1752D01*
X974Y1752D01*
X974Y1754D01*
X972Y1754D01*
X972Y1756D01*
X970Y1756D01*
X970Y1758D01*
X968Y1758D01*
X968Y1760D01*
X966Y1760D01*
X966Y1762D01*
X964Y1762D01*
X964Y1766D01*
X962Y1766D01*
X962Y1768D01*
X960Y1768D01*
X960Y1772D01*
X958Y1772D01*
X958Y1776D01*
X956Y1776D01*
X956Y1782D01*
X954Y1782D01*
X954Y1790D01*
X952Y1790D01*
X952Y1816D01*
X954Y1816D01*
X954Y1824D01*
X956Y1824D01*
X956Y1830D01*
X958Y1830D01*
X958Y1834D01*
X960Y1834D01*
X960Y1838D01*
X962Y1838D01*
X962Y1840D01*
X964Y1840D01*
X964Y1844D01*
X966Y1844D01*
X966Y1846D01*
X968Y1846D01*
X968Y1848D01*
X970Y1848D01*
X970Y1850D01*
X972Y1850D01*
X972Y1852D01*
X974Y1852D01*
X974Y1854D01*
X976Y1854D01*
X976Y1856D01*
X978Y1856D01*
X978Y1858D01*
X980Y1858D01*
X980Y1860D01*
X984Y1860D01*
X984Y1862D01*
X988Y1862D01*
X988Y1864D01*
X990Y1864D01*
X990Y1866D01*
X996Y1866D01*
X996Y1868D01*
X1000Y1868D01*
X1000Y1870D01*
X1010Y1870D01*
X1010Y1872D01*
X922Y1872D01*
G37*
D02*
G36*
X1060Y1860D02*
X1060Y1858D01*
X1064Y1858D01*
X1064Y1856D01*
X1066Y1856D01*
X1066Y1854D01*
X1068Y1854D01*
X1068Y1852D01*
X1070Y1852D01*
X1070Y1850D01*
X1072Y1850D01*
X1072Y1848D01*
X1074Y1848D01*
X1074Y1846D01*
X1076Y1846D01*
X1076Y1842D01*
X1078Y1842D01*
X1078Y1840D01*
X1080Y1840D01*
X1080Y1836D01*
X1082Y1836D01*
X1082Y1832D01*
X1084Y1832D01*
X1084Y1828D01*
X1086Y1828D01*
X1086Y1822D01*
X1088Y1822D01*
X1088Y1812D01*
X1090Y1812D01*
X1090Y1794D01*
X1088Y1794D01*
X1088Y1784D01*
X1086Y1784D01*
X1086Y1778D01*
X1084Y1778D01*
X1084Y1774D01*
X1082Y1774D01*
X1082Y1770D01*
X1080Y1770D01*
X1080Y1766D01*
X1078Y1766D01*
X1078Y1764D01*
X1076Y1764D01*
X1076Y1760D01*
X1074Y1760D01*
X1074Y1758D01*
X1072Y1758D01*
X1072Y1756D01*
X1070Y1756D01*
X1070Y1754D01*
X1068Y1754D01*
X1068Y1752D01*
X1066Y1752D01*
X1066Y1750D01*
X1064Y1750D01*
X1064Y1748D01*
X1060Y1748D01*
X1060Y1746D01*
X1058Y1746D01*
X1058Y1744D01*
X1054Y1744D01*
X1054Y1742D01*
X1050Y1742D01*
X1050Y1740D01*
X1046Y1740D01*
X1046Y1738D01*
X1040Y1738D01*
X1040Y1736D01*
X1032Y1736D01*
X1032Y1734D01*
X1374Y1734D01*
X1374Y1736D01*
X1370Y1736D01*
X1370Y1738D01*
X1368Y1738D01*
X1368Y1740D01*
X1366Y1740D01*
X1366Y1742D01*
X1364Y1742D01*
X1364Y1744D01*
X1360Y1744D01*
X1360Y1748D01*
X1358Y1748D01*
X1358Y1750D01*
X1356Y1750D01*
X1356Y1752D01*
X1354Y1752D01*
X1354Y1756D01*
X1352Y1756D01*
X1352Y1758D01*
X1350Y1758D01*
X1350Y1762D01*
X1348Y1762D01*
X1348Y1766D01*
X1346Y1766D01*
X1346Y1772D01*
X1344Y1772D01*
X1344Y1778D01*
X1342Y1778D01*
X1342Y1806D01*
X1344Y1806D01*
X1344Y1814D01*
X1346Y1814D01*
X1346Y1818D01*
X1348Y1818D01*
X1348Y1822D01*
X1350Y1822D01*
X1350Y1826D01*
X1352Y1826D01*
X1352Y1830D01*
X1354Y1830D01*
X1354Y1832D01*
X1356Y1832D01*
X1356Y1834D01*
X1358Y1834D01*
X1358Y1838D01*
X1360Y1838D01*
X1360Y1840D01*
X1362Y1840D01*
X1362Y1842D01*
X1364Y1842D01*
X1364Y1844D01*
X1368Y1844D01*
X1368Y1846D01*
X1370Y1846D01*
X1370Y1848D01*
X1372Y1848D01*
X1372Y1850D01*
X1376Y1850D01*
X1376Y1852D01*
X1380Y1852D01*
X1380Y1854D01*
X1384Y1854D01*
X1384Y1856D01*
X1390Y1856D01*
X1390Y1858D01*
X1400Y1858D01*
X1400Y1860D01*
X1060Y1860D01*
G37*
D02*
G36*
X922Y1734D02*
X922Y1732D01*
X1378Y1732D01*
X1378Y1734D01*
X922Y1734D01*
G37*
D02*
G36*
X922Y1734D02*
X922Y1732D01*
X1378Y1732D01*
X1378Y1734D01*
X922Y1734D01*
G37*
D02*
G36*
X922Y1732D02*
X922Y1724D01*
X1406Y1724D01*
X1406Y1726D01*
X1392Y1726D01*
X1392Y1728D01*
X1386Y1728D01*
X1386Y1730D01*
X1382Y1730D01*
X1382Y1732D01*
X922Y1732D01*
G37*
D02*
G36*
X922Y1724D02*
X922Y1722D01*
X1612Y1722D01*
X1612Y1724D01*
X922Y1724D01*
G37*
D02*
G36*
X922Y1724D02*
X922Y1722D01*
X1612Y1722D01*
X1612Y1724D01*
X922Y1724D01*
G37*
D02*
G36*
X922Y1722D02*
X922Y1600D01*
X924Y1600D01*
X924Y1450D01*
X946Y1450D01*
X946Y1452D01*
X950Y1452D01*
X950Y1454D01*
X954Y1454D01*
X954Y1456D01*
X960Y1456D01*
X960Y1458D01*
X970Y1458D01*
X970Y1460D01*
X990Y1460D01*
X990Y1462D01*
X992Y1462D01*
X992Y1464D01*
X996Y1464D01*
X996Y1466D01*
X998Y1466D01*
X998Y1468D01*
X1000Y1468D01*
X1000Y1470D01*
X1002Y1470D01*
X1002Y1472D01*
X1006Y1472D01*
X1006Y1474D01*
X1008Y1474D01*
X1008Y1476D01*
X1010Y1476D01*
X1010Y1478D01*
X1012Y1478D01*
X1012Y1480D01*
X1014Y1480D01*
X1014Y1482D01*
X1018Y1482D01*
X1018Y1484D01*
X1020Y1484D01*
X1020Y1486D01*
X1022Y1486D01*
X1022Y1488D01*
X1024Y1488D01*
X1024Y1490D01*
X1028Y1490D01*
X1028Y1492D01*
X1030Y1492D01*
X1030Y1494D01*
X1032Y1494D01*
X1032Y1496D01*
X1034Y1496D01*
X1034Y1498D01*
X1036Y1498D01*
X1036Y1500D01*
X1040Y1500D01*
X1040Y1502D01*
X1042Y1502D01*
X1042Y1504D01*
X1044Y1504D01*
X1044Y1506D01*
X1046Y1506D01*
X1046Y1508D01*
X1050Y1508D01*
X1050Y1510D01*
X1052Y1510D01*
X1052Y1512D01*
X1054Y1512D01*
X1054Y1514D01*
X1056Y1514D01*
X1056Y1516D01*
X1058Y1516D01*
X1058Y1518D01*
X1062Y1518D01*
X1062Y1520D01*
X1064Y1520D01*
X1064Y1522D01*
X1066Y1522D01*
X1066Y1524D01*
X1068Y1524D01*
X1068Y1526D01*
X1072Y1526D01*
X1072Y1528D01*
X1074Y1528D01*
X1074Y1530D01*
X1076Y1530D01*
X1076Y1532D01*
X1078Y1532D01*
X1078Y1534D01*
X1080Y1534D01*
X1080Y1536D01*
X1084Y1536D01*
X1084Y1538D01*
X1086Y1538D01*
X1086Y1540D01*
X1088Y1540D01*
X1088Y1542D01*
X1090Y1542D01*
X1090Y1544D01*
X1094Y1544D01*
X1094Y1546D01*
X1096Y1546D01*
X1096Y1548D01*
X1098Y1548D01*
X1098Y1550D01*
X1100Y1550D01*
X1100Y1552D01*
X1102Y1552D01*
X1102Y1554D01*
X1106Y1554D01*
X1106Y1556D01*
X1108Y1556D01*
X1108Y1558D01*
X1110Y1558D01*
X1110Y1560D01*
X1112Y1560D01*
X1112Y1562D01*
X1116Y1562D01*
X1116Y1564D01*
X1118Y1564D01*
X1118Y1566D01*
X1120Y1566D01*
X1120Y1568D01*
X1122Y1568D01*
X1122Y1570D01*
X1124Y1570D01*
X1124Y1572D01*
X1128Y1572D01*
X1128Y1574D01*
X1130Y1574D01*
X1130Y1576D01*
X1132Y1576D01*
X1132Y1578D01*
X1134Y1578D01*
X1134Y1580D01*
X1138Y1580D01*
X1138Y1582D01*
X1140Y1582D01*
X1140Y1584D01*
X1142Y1584D01*
X1142Y1586D01*
X1144Y1586D01*
X1144Y1588D01*
X1146Y1588D01*
X1146Y1590D01*
X1150Y1590D01*
X1150Y1592D01*
X1152Y1592D01*
X1152Y1594D01*
X1154Y1594D01*
X1154Y1596D01*
X1156Y1596D01*
X1156Y1598D01*
X1160Y1598D01*
X1160Y1600D01*
X1162Y1600D01*
X1162Y1602D01*
X1164Y1602D01*
X1164Y1604D01*
X1166Y1604D01*
X1166Y1606D01*
X1170Y1606D01*
X1170Y1608D01*
X1172Y1608D01*
X1172Y1610D01*
X1176Y1610D01*
X1176Y1612D01*
X1178Y1612D01*
X1178Y1614D01*
X1184Y1614D01*
X1184Y1616D01*
X1194Y1616D01*
X1194Y1618D01*
X1558Y1618D01*
X1558Y1620D01*
X1560Y1620D01*
X1560Y1622D01*
X1562Y1622D01*
X1562Y1626D01*
X1564Y1626D01*
X1564Y1628D01*
X1566Y1628D01*
X1566Y1630D01*
X1568Y1630D01*
X1568Y1634D01*
X1570Y1634D01*
X1570Y1636D01*
X1572Y1636D01*
X1572Y1638D01*
X1574Y1638D01*
X1574Y1640D01*
X1576Y1640D01*
X1576Y1644D01*
X1578Y1644D01*
X1578Y1646D01*
X1580Y1646D01*
X1580Y1648D01*
X1582Y1648D01*
X1582Y1650D01*
X1584Y1650D01*
X1584Y1654D01*
X1586Y1654D01*
X1586Y1656D01*
X1588Y1656D01*
X1588Y1658D01*
X1590Y1658D01*
X1590Y1660D01*
X1592Y1660D01*
X1592Y1664D01*
X1594Y1664D01*
X1594Y1666D01*
X1596Y1666D01*
X1596Y1668D01*
X1598Y1668D01*
X1598Y1670D01*
X1600Y1670D01*
X1600Y1674D01*
X1602Y1674D01*
X1602Y1676D01*
X1604Y1676D01*
X1604Y1678D01*
X1606Y1678D01*
X1606Y1680D01*
X1608Y1680D01*
X1608Y1684D01*
X1610Y1684D01*
X1610Y1686D01*
X1612Y1686D01*
X1612Y1722D01*
X922Y1722D01*
G37*
D02*
G36*
X2510Y3336D02*
X2510Y3316D01*
X2512Y3316D01*
X2512Y3314D01*
X2514Y3314D01*
X2514Y3312D01*
X2516Y3312D01*
X2516Y3308D01*
X2518Y3308D01*
X2518Y3306D01*
X2520Y3306D01*
X2520Y3304D01*
X2522Y3304D01*
X2522Y3302D01*
X2524Y3302D01*
X2524Y3300D01*
X2526Y3300D01*
X2526Y3298D01*
X2528Y3298D01*
X2528Y3294D01*
X2530Y3294D01*
X2530Y3292D01*
X2532Y3292D01*
X2532Y3290D01*
X2534Y3290D01*
X2534Y3288D01*
X2536Y3288D01*
X2536Y3286D01*
X2538Y3286D01*
X2538Y3282D01*
X2540Y3282D01*
X2540Y3280D01*
X2542Y3280D01*
X2542Y3278D01*
X2544Y3278D01*
X2544Y3276D01*
X2546Y3276D01*
X2546Y3274D01*
X2548Y3274D01*
X2548Y3272D01*
X2550Y3272D01*
X2550Y3268D01*
X2552Y3268D01*
X2552Y3266D01*
X2572Y3266D01*
X2572Y3304D01*
X2570Y3304D01*
X2570Y3306D01*
X2568Y3306D01*
X2568Y3308D01*
X2566Y3308D01*
X2566Y3310D01*
X2564Y3310D01*
X2564Y3312D01*
X2562Y3312D01*
X2562Y3314D01*
X2560Y3314D01*
X2560Y3316D01*
X2558Y3316D01*
X2558Y3318D01*
X2556Y3318D01*
X2556Y3320D01*
X2554Y3320D01*
X2554Y3322D01*
X2552Y3322D01*
X2552Y3324D01*
X2550Y3324D01*
X2550Y3326D01*
X2548Y3326D01*
X2548Y3328D01*
X2546Y3328D01*
X2546Y3330D01*
X2544Y3330D01*
X2544Y3332D01*
X2542Y3332D01*
X2542Y3334D01*
X2540Y3334D01*
X2540Y3336D01*
X2510Y3336D01*
G37*
D02*
G36*
X2548Y2864D02*
X2548Y2862D01*
X2546Y2862D01*
X2546Y2860D01*
X2544Y2860D01*
X2544Y2858D01*
X2542Y2858D01*
X2542Y2854D01*
X2540Y2854D01*
X2540Y2852D01*
X2538Y2852D01*
X2538Y2850D01*
X2536Y2850D01*
X2536Y2848D01*
X2534Y2848D01*
X2534Y2844D01*
X2532Y2844D01*
X2532Y2842D01*
X2530Y2842D01*
X2530Y2840D01*
X2528Y2840D01*
X2528Y2838D01*
X2526Y2838D01*
X2526Y2834D01*
X2524Y2834D01*
X2524Y2832D01*
X2522Y2832D01*
X2522Y2830D01*
X2520Y2830D01*
X2520Y2828D01*
X2518Y2828D01*
X2518Y2826D01*
X2514Y2826D01*
X2514Y2824D01*
X2512Y2824D01*
X2512Y2822D01*
X2508Y2822D01*
X2508Y2820D01*
X2502Y2820D01*
X2502Y2818D01*
X2494Y2818D01*
X2494Y2816D01*
X2324Y2816D01*
X2324Y2814D01*
X2322Y2814D01*
X2322Y2812D01*
X2320Y2812D01*
X2320Y2810D01*
X2316Y2810D01*
X2316Y2808D01*
X2314Y2808D01*
X2314Y2806D01*
X2312Y2806D01*
X2312Y2804D01*
X2310Y2804D01*
X2310Y2802D01*
X2308Y2802D01*
X2308Y2800D01*
X2304Y2800D01*
X2304Y2798D01*
X2302Y2798D01*
X2302Y2796D01*
X2300Y2796D01*
X2300Y2794D01*
X2298Y2794D01*
X2298Y2792D01*
X2296Y2792D01*
X2296Y2742D01*
X2360Y2742D01*
X2360Y2740D01*
X2368Y2740D01*
X2368Y2738D01*
X2374Y2738D01*
X2374Y2736D01*
X2380Y2736D01*
X2380Y2734D01*
X2382Y2734D01*
X2382Y2732D01*
X2386Y2732D01*
X2386Y2730D01*
X2390Y2730D01*
X2390Y2728D01*
X2392Y2728D01*
X2392Y2726D01*
X2394Y2726D01*
X2394Y2724D01*
X2396Y2724D01*
X2396Y2722D01*
X2398Y2722D01*
X2398Y2720D01*
X2400Y2720D01*
X2400Y2718D01*
X2402Y2718D01*
X2402Y2716D01*
X2404Y2716D01*
X2404Y2714D01*
X2406Y2714D01*
X2406Y2710D01*
X2408Y2710D01*
X2408Y2708D01*
X2410Y2708D01*
X2410Y2704D01*
X2412Y2704D01*
X2412Y2700D01*
X2414Y2700D01*
X2414Y2694D01*
X2416Y2694D01*
X2416Y2688D01*
X2418Y2688D01*
X2418Y2656D01*
X2416Y2656D01*
X2416Y2650D01*
X2414Y2650D01*
X2414Y2644D01*
X2412Y2644D01*
X2412Y2640D01*
X2410Y2640D01*
X2410Y2638D01*
X2408Y2638D01*
X2408Y2634D01*
X2406Y2634D01*
X2406Y2610D01*
X2408Y2610D01*
X2408Y2608D01*
X2410Y2608D01*
X2410Y2604D01*
X2412Y2604D01*
X2412Y2600D01*
X2414Y2600D01*
X2414Y2594D01*
X2416Y2594D01*
X2416Y2588D01*
X2418Y2588D01*
X2418Y2556D01*
X2416Y2556D01*
X2416Y2550D01*
X2414Y2550D01*
X2414Y2544D01*
X2412Y2544D01*
X2412Y2540D01*
X2410Y2540D01*
X2410Y2538D01*
X2408Y2538D01*
X2408Y2518D01*
X2538Y2518D01*
X2538Y2520D01*
X2540Y2520D01*
X2540Y2522D01*
X2542Y2522D01*
X2542Y2524D01*
X2544Y2524D01*
X2544Y2528D01*
X2546Y2528D01*
X2546Y2530D01*
X2548Y2530D01*
X2548Y2532D01*
X2550Y2532D01*
X2550Y2534D01*
X2552Y2534D01*
X2552Y2536D01*
X2554Y2536D01*
X2554Y2538D01*
X2556Y2538D01*
X2556Y2542D01*
X2558Y2542D01*
X2558Y2544D01*
X2560Y2544D01*
X2560Y2546D01*
X2562Y2546D01*
X2562Y2548D01*
X2564Y2548D01*
X2564Y2648D01*
X2566Y2648D01*
X2566Y2828D01*
X2568Y2828D01*
X2568Y2864D01*
X2548Y2864D01*
G37*
D02*
G36*
X2296Y2742D02*
X2296Y2732D01*
X2316Y2732D01*
X2316Y2734D01*
X2320Y2734D01*
X2320Y2736D01*
X2324Y2736D01*
X2324Y2738D01*
X2330Y2738D01*
X2330Y2740D01*
X2338Y2740D01*
X2338Y2742D01*
X2296Y2742D01*
G37*
D02*
G36*
X2550Y1888D02*
X2550Y1884D01*
X2548Y1884D01*
X2548Y1880D01*
X2546Y1880D01*
X2546Y1878D01*
X2544Y1878D01*
X2544Y1874D01*
X2542Y1874D01*
X2542Y1872D01*
X2540Y1872D01*
X2540Y1868D01*
X2538Y1868D01*
X2538Y1866D01*
X2536Y1866D01*
X2536Y1864D01*
X2534Y1864D01*
X2534Y1860D01*
X2530Y1860D01*
X2530Y1858D01*
X2528Y1858D01*
X2528Y1856D01*
X2526Y1856D01*
X2526Y1854D01*
X2522Y1854D01*
X2522Y1852D01*
X2520Y1852D01*
X2520Y1850D01*
X2514Y1850D01*
X2514Y1848D01*
X2504Y1848D01*
X2504Y1846D01*
X2392Y1846D01*
X2392Y1826D01*
X2394Y1826D01*
X2394Y1824D01*
X2396Y1824D01*
X2396Y1822D01*
X2398Y1822D01*
X2398Y1820D01*
X2400Y1820D01*
X2400Y1818D01*
X2402Y1818D01*
X2402Y1816D01*
X2404Y1816D01*
X2404Y1814D01*
X2406Y1814D01*
X2406Y1810D01*
X2408Y1810D01*
X2408Y1808D01*
X2410Y1808D01*
X2410Y1804D01*
X2412Y1804D01*
X2412Y1800D01*
X2414Y1800D01*
X2414Y1794D01*
X2416Y1794D01*
X2416Y1788D01*
X2418Y1788D01*
X2418Y1756D01*
X2416Y1756D01*
X2416Y1750D01*
X2414Y1750D01*
X2414Y1744D01*
X2412Y1744D01*
X2412Y1740D01*
X2410Y1740D01*
X2410Y1738D01*
X2408Y1738D01*
X2408Y1734D01*
X2406Y1734D01*
X2406Y1710D01*
X2408Y1710D01*
X2408Y1708D01*
X2410Y1708D01*
X2410Y1704D01*
X2412Y1704D01*
X2412Y1700D01*
X2414Y1700D01*
X2414Y1694D01*
X2416Y1694D01*
X2416Y1688D01*
X2418Y1688D01*
X2418Y1656D01*
X2416Y1656D01*
X2416Y1650D01*
X2414Y1650D01*
X2414Y1644D01*
X2412Y1644D01*
X2412Y1622D01*
X2440Y1622D01*
X2440Y1624D01*
X2478Y1624D01*
X2478Y1626D01*
X2518Y1626D01*
X2518Y1628D01*
X2524Y1628D01*
X2524Y1630D01*
X2526Y1630D01*
X2526Y1632D01*
X2530Y1632D01*
X2530Y1634D01*
X2532Y1634D01*
X2532Y1636D01*
X2534Y1636D01*
X2534Y1638D01*
X2538Y1638D01*
X2538Y1640D01*
X2540Y1640D01*
X2540Y1642D01*
X2542Y1642D01*
X2542Y1644D01*
X2546Y1644D01*
X2546Y1646D01*
X2548Y1646D01*
X2548Y1648D01*
X2550Y1648D01*
X2550Y1650D01*
X2554Y1650D01*
X2554Y1652D01*
X2556Y1652D01*
X2556Y1654D01*
X2558Y1654D01*
X2558Y1656D01*
X2562Y1656D01*
X2562Y1658D01*
X2564Y1658D01*
X2564Y1660D01*
X2566Y1660D01*
X2566Y1662D01*
X2570Y1662D01*
X2570Y1664D01*
X2572Y1664D01*
X2572Y1750D01*
X2570Y1750D01*
X2570Y1888D01*
X2550Y1888D01*
G37*
D02*
G36*
X2638Y882D02*
X2638Y880D01*
X2636Y880D01*
X2636Y878D01*
X2632Y878D01*
X2632Y876D01*
X2630Y876D01*
X2630Y874D01*
X2626Y874D01*
X2626Y872D01*
X2620Y872D01*
X2620Y870D01*
X2614Y870D01*
X2614Y868D01*
X2684Y868D01*
X2684Y870D01*
X2678Y870D01*
X2678Y872D01*
X2672Y872D01*
X2672Y874D01*
X2668Y874D01*
X2668Y876D01*
X2666Y876D01*
X2666Y878D01*
X2662Y878D01*
X2662Y880D01*
X2660Y880D01*
X2660Y882D01*
X2638Y882D01*
G37*
D02*
G36*
X2738Y882D02*
X2738Y880D01*
X2736Y880D01*
X2736Y878D01*
X2732Y878D01*
X2732Y876D01*
X2730Y876D01*
X2730Y874D01*
X2726Y874D01*
X2726Y872D01*
X2720Y872D01*
X2720Y870D01*
X2714Y870D01*
X2714Y868D01*
X2784Y868D01*
X2784Y870D01*
X2778Y870D01*
X2778Y872D01*
X2772Y872D01*
X2772Y874D01*
X2768Y874D01*
X2768Y876D01*
X2766Y876D01*
X2766Y878D01*
X2762Y878D01*
X2762Y880D01*
X2760Y880D01*
X2760Y882D01*
X2738Y882D01*
G37*
D02*
G36*
X2838Y882D02*
X2838Y880D01*
X2836Y880D01*
X2836Y878D01*
X2832Y878D01*
X2832Y876D01*
X2830Y876D01*
X2830Y874D01*
X2826Y874D01*
X2826Y872D01*
X2820Y872D01*
X2820Y870D01*
X2814Y870D01*
X2814Y868D01*
X2884Y868D01*
X2884Y870D01*
X2878Y870D01*
X2878Y872D01*
X2872Y872D01*
X2872Y874D01*
X2868Y874D01*
X2868Y876D01*
X2866Y876D01*
X2866Y878D01*
X2862Y878D01*
X2862Y880D01*
X2860Y880D01*
X2860Y882D01*
X2838Y882D01*
G37*
D02*
G36*
X2544Y878D02*
X2544Y868D01*
X2584Y868D01*
X2584Y870D01*
X2578Y870D01*
X2578Y872D01*
X2572Y872D01*
X2572Y874D01*
X2568Y874D01*
X2568Y876D01*
X2566Y876D01*
X2566Y878D01*
X2544Y878D01*
G37*
D02*
G36*
X2920Y872D02*
X2920Y870D01*
X2914Y870D01*
X2914Y868D01*
X2946Y868D01*
X2946Y870D01*
X2944Y870D01*
X2944Y872D01*
X2920Y872D01*
G37*
D02*
G36*
X2544Y868D02*
X2544Y866D01*
X2946Y866D01*
X2946Y868D01*
X2544Y868D01*
G37*
D02*
G36*
X2544Y868D02*
X2544Y866D01*
X2946Y866D01*
X2946Y868D01*
X2544Y868D01*
G37*
D02*
G36*
X2544Y868D02*
X2544Y866D01*
X2946Y866D01*
X2946Y868D01*
X2544Y868D01*
G37*
D02*
G36*
X2544Y868D02*
X2544Y866D01*
X2946Y866D01*
X2946Y868D01*
X2544Y868D01*
G37*
D02*
G36*
X2544Y868D02*
X2544Y866D01*
X2946Y866D01*
X2946Y868D01*
X2544Y868D01*
G37*
D02*
G36*
X2544Y866D02*
X2544Y778D01*
X3030Y778D01*
X3030Y780D01*
X3022Y780D01*
X3022Y782D01*
X3016Y782D01*
X3016Y784D01*
X3010Y784D01*
X3010Y786D01*
X3006Y786D01*
X3006Y788D01*
X3002Y788D01*
X3002Y790D01*
X2998Y790D01*
X2998Y792D01*
X2994Y792D01*
X2994Y794D01*
X2992Y794D01*
X2992Y796D01*
X2988Y796D01*
X2988Y798D01*
X2986Y798D01*
X2986Y800D01*
X2982Y800D01*
X2982Y802D01*
X2980Y802D01*
X2980Y804D01*
X2978Y804D01*
X2978Y806D01*
X2976Y806D01*
X2976Y808D01*
X2974Y808D01*
X2974Y810D01*
X2972Y810D01*
X2972Y812D01*
X2970Y812D01*
X2970Y814D01*
X2968Y814D01*
X2968Y818D01*
X2966Y818D01*
X2966Y820D01*
X2964Y820D01*
X2964Y822D01*
X2962Y822D01*
X2962Y826D01*
X2960Y826D01*
X2960Y828D01*
X2958Y828D01*
X2958Y832D01*
X2956Y832D01*
X2956Y836D01*
X2954Y836D01*
X2954Y840D01*
X2952Y840D01*
X2952Y846D01*
X2950Y846D01*
X2950Y850D01*
X2948Y850D01*
X2948Y858D01*
X2946Y858D01*
X2946Y866D01*
X2544Y866D01*
G37*
D02*
G36*
X3100Y792D02*
X3100Y790D01*
X3098Y790D01*
X3098Y788D01*
X3092Y788D01*
X3092Y786D01*
X3088Y786D01*
X3088Y784D01*
X3082Y784D01*
X3082Y782D01*
X3076Y782D01*
X3076Y780D01*
X3068Y780D01*
X3068Y778D01*
X3122Y778D01*
X3122Y792D01*
X3100Y792D01*
G37*
D02*
G36*
X2544Y778D02*
X2544Y776D01*
X3122Y776D01*
X3122Y778D01*
X2544Y778D01*
G37*
D02*
G36*
X2544Y778D02*
X2544Y776D01*
X3122Y776D01*
X3122Y778D01*
X2544Y778D01*
G37*
D02*
G36*
X2544Y776D02*
X2544Y672D01*
X2542Y672D01*
X2542Y666D01*
X2540Y666D01*
X2540Y660D01*
X2538Y660D01*
X2538Y658D01*
X2536Y658D01*
X2536Y654D01*
X2534Y654D01*
X2534Y652D01*
X2532Y652D01*
X2532Y650D01*
X2530Y650D01*
X2530Y648D01*
X2528Y648D01*
X2528Y646D01*
X2526Y646D01*
X2526Y644D01*
X2524Y644D01*
X2524Y642D01*
X2522Y642D01*
X2522Y640D01*
X2520Y640D01*
X2520Y638D01*
X2516Y638D01*
X2516Y636D01*
X2514Y636D01*
X2514Y634D01*
X2512Y634D01*
X2512Y632D01*
X2510Y632D01*
X2510Y630D01*
X2508Y630D01*
X2508Y628D01*
X2506Y628D01*
X2506Y626D01*
X2504Y626D01*
X2504Y624D01*
X2500Y624D01*
X2500Y622D01*
X2498Y622D01*
X2498Y620D01*
X2496Y620D01*
X2496Y618D01*
X2494Y618D01*
X2494Y616D01*
X2492Y616D01*
X2492Y614D01*
X2490Y614D01*
X2490Y612D01*
X2488Y612D01*
X2488Y610D01*
X2484Y610D01*
X2484Y608D01*
X2482Y608D01*
X2482Y606D01*
X2932Y606D01*
X2932Y608D01*
X2922Y608D01*
X2922Y610D01*
X2916Y610D01*
X2916Y612D01*
X2888Y612D01*
X2888Y642D01*
X2886Y642D01*
X2886Y648D01*
X2884Y648D01*
X2884Y660D01*
X2882Y660D01*
X2882Y664D01*
X2884Y664D01*
X2884Y676D01*
X2886Y676D01*
X2886Y682D01*
X2888Y682D01*
X2888Y734D01*
X2972Y734D01*
X2972Y752D01*
X3122Y752D01*
X3122Y776D01*
X2544Y776D01*
G37*
D02*
G36*
X2946Y608D02*
X2946Y606D01*
X2972Y606D01*
X2972Y608D01*
X2946Y608D01*
G37*
D02*
G36*
X2480Y606D02*
X2480Y604D01*
X2972Y604D01*
X2972Y606D01*
X2480Y606D01*
G37*
D02*
G36*
X2480Y606D02*
X2480Y604D01*
X2972Y604D01*
X2972Y606D01*
X2480Y606D01*
G37*
D02*
G36*
X2478Y604D02*
X2478Y602D01*
X2476Y602D01*
X2476Y600D01*
X2474Y600D01*
X2474Y598D01*
X2472Y598D01*
X2472Y596D01*
X2468Y596D01*
X2468Y594D01*
X2466Y594D01*
X2466Y592D01*
X2464Y592D01*
X2464Y590D01*
X2462Y590D01*
X2462Y588D01*
X2460Y588D01*
X2460Y568D01*
X3074Y568D01*
X3074Y570D01*
X3076Y570D01*
X3076Y572D01*
X3078Y572D01*
X3078Y576D01*
X3080Y576D01*
X3080Y596D01*
X2972Y596D01*
X2972Y604D01*
X2478Y604D01*
G37*
D02*
G36*
X40Y3808D02*
X40Y3432D01*
X402Y3432D01*
X402Y3430D01*
X410Y3430D01*
X410Y3428D01*
X416Y3428D01*
X416Y3426D01*
X420Y3426D01*
X420Y3424D01*
X424Y3424D01*
X424Y3422D01*
X426Y3422D01*
X426Y3420D01*
X430Y3420D01*
X430Y3418D01*
X432Y3418D01*
X432Y3416D01*
X434Y3416D01*
X434Y3414D01*
X436Y3414D01*
X436Y3412D01*
X438Y3412D01*
X438Y3410D01*
X440Y3410D01*
X440Y3408D01*
X442Y3408D01*
X442Y3406D01*
X444Y3406D01*
X444Y3404D01*
X446Y3404D01*
X446Y3400D01*
X448Y3400D01*
X448Y3398D01*
X450Y3398D01*
X450Y3394D01*
X452Y3394D01*
X452Y3390D01*
X454Y3390D01*
X454Y3384D01*
X456Y3384D01*
X456Y3376D01*
X458Y3376D01*
X458Y3350D01*
X456Y3350D01*
X456Y3342D01*
X454Y3342D01*
X454Y3336D01*
X452Y3336D01*
X452Y3332D01*
X450Y3332D01*
X450Y3330D01*
X448Y3330D01*
X448Y3326D01*
X446Y3326D01*
X446Y3322D01*
X444Y3322D01*
X444Y3320D01*
X442Y3320D01*
X442Y3318D01*
X440Y3318D01*
X440Y3316D01*
X438Y3316D01*
X438Y3314D01*
X436Y3314D01*
X436Y3312D01*
X434Y3312D01*
X434Y3310D01*
X432Y3310D01*
X432Y3308D01*
X428Y3308D01*
X428Y3306D01*
X426Y3306D01*
X426Y3304D01*
X422Y3304D01*
X422Y3302D01*
X418Y3302D01*
X418Y3300D01*
X414Y3300D01*
X414Y3298D01*
X408Y3298D01*
X408Y3296D01*
X400Y3296D01*
X400Y3294D01*
X1008Y3294D01*
X1008Y3296D01*
X998Y3296D01*
X998Y3298D01*
X994Y3298D01*
X994Y3300D01*
X988Y3300D01*
X988Y3302D01*
X984Y3302D01*
X984Y3304D01*
X982Y3304D01*
X982Y3306D01*
X978Y3306D01*
X978Y3308D01*
X976Y3308D01*
X976Y3310D01*
X974Y3310D01*
X974Y3312D01*
X972Y3312D01*
X972Y3314D01*
X968Y3314D01*
X968Y3318D01*
X966Y3318D01*
X966Y3320D01*
X964Y3320D01*
X964Y3322D01*
X962Y3322D01*
X962Y3326D01*
X960Y3326D01*
X960Y3328D01*
X958Y3328D01*
X958Y3332D01*
X956Y3332D01*
X956Y3336D01*
X954Y3336D01*
X954Y3342D01*
X952Y3342D01*
X952Y3348D01*
X950Y3348D01*
X950Y3378D01*
X952Y3378D01*
X952Y3386D01*
X954Y3386D01*
X954Y3390D01*
X956Y3390D01*
X956Y3394D01*
X958Y3394D01*
X958Y3398D01*
X960Y3398D01*
X960Y3402D01*
X962Y3402D01*
X962Y3404D01*
X964Y3404D01*
X964Y3608D01*
X966Y3608D01*
X966Y3696D01*
X968Y3696D01*
X968Y3702D01*
X970Y3702D01*
X970Y3706D01*
X972Y3706D01*
X972Y3710D01*
X974Y3710D01*
X974Y3712D01*
X976Y3712D01*
X976Y3716D01*
X978Y3716D01*
X978Y3718D01*
X980Y3718D01*
X980Y3720D01*
X982Y3720D01*
X982Y3722D01*
X984Y3722D01*
X984Y3724D01*
X986Y3724D01*
X986Y3726D01*
X988Y3726D01*
X988Y3728D01*
X990Y3728D01*
X990Y3730D01*
X992Y3730D01*
X992Y3732D01*
X994Y3732D01*
X994Y3734D01*
X996Y3734D01*
X996Y3736D01*
X998Y3736D01*
X998Y3738D01*
X1000Y3738D01*
X1000Y3740D01*
X1002Y3740D01*
X1002Y3742D01*
X1004Y3742D01*
X1004Y3744D01*
X1006Y3744D01*
X1006Y3746D01*
X1008Y3746D01*
X1008Y3748D01*
X1010Y3748D01*
X1010Y3750D01*
X1012Y3750D01*
X1012Y3752D01*
X1014Y3752D01*
X1014Y3754D01*
X1016Y3754D01*
X1016Y3756D01*
X1018Y3756D01*
X1018Y3758D01*
X1020Y3758D01*
X1020Y3760D01*
X1022Y3760D01*
X1022Y3762D01*
X1024Y3762D01*
X1024Y3764D01*
X1026Y3764D01*
X1026Y3766D01*
X1028Y3766D01*
X1028Y3768D01*
X1030Y3768D01*
X1030Y3770D01*
X1032Y3770D01*
X1032Y3772D01*
X1034Y3772D01*
X1034Y3774D01*
X1036Y3774D01*
X1036Y3776D01*
X1038Y3776D01*
X1038Y3778D01*
X1040Y3778D01*
X1040Y3780D01*
X1042Y3780D01*
X1042Y3782D01*
X1044Y3782D01*
X1044Y3784D01*
X1046Y3784D01*
X1046Y3786D01*
X1050Y3786D01*
X1050Y3788D01*
X1052Y3788D01*
X1052Y3808D01*
X40Y3808D01*
G37*
D02*
G36*
X1100Y3688D02*
X1100Y3686D01*
X1098Y3686D01*
X1098Y3684D01*
X1096Y3684D01*
X1096Y3682D01*
X1094Y3682D01*
X1094Y3680D01*
X1092Y3680D01*
X1092Y3678D01*
X1090Y3678D01*
X1090Y3676D01*
X1088Y3676D01*
X1088Y3674D01*
X1086Y3674D01*
X1086Y3672D01*
X1084Y3672D01*
X1084Y3670D01*
X1082Y3670D01*
X1082Y3668D01*
X1080Y3668D01*
X1080Y3666D01*
X1078Y3666D01*
X1078Y3664D01*
X1076Y3664D01*
X1076Y3662D01*
X1074Y3662D01*
X1074Y3604D01*
X1072Y3604D01*
X1072Y3552D01*
X1412Y3552D01*
X1412Y3554D01*
X1402Y3554D01*
X1402Y3556D01*
X1396Y3556D01*
X1396Y3558D01*
X1392Y3558D01*
X1392Y3560D01*
X1388Y3560D01*
X1388Y3562D01*
X1384Y3562D01*
X1384Y3564D01*
X1382Y3564D01*
X1382Y3566D01*
X1378Y3566D01*
X1378Y3568D01*
X1376Y3568D01*
X1376Y3570D01*
X1374Y3570D01*
X1374Y3572D01*
X1372Y3572D01*
X1372Y3574D01*
X1370Y3574D01*
X1370Y3576D01*
X1368Y3576D01*
X1368Y3578D01*
X1366Y3578D01*
X1366Y3582D01*
X1364Y3582D01*
X1364Y3584D01*
X1362Y3584D01*
X1362Y3588D01*
X1360Y3588D01*
X1360Y3590D01*
X1358Y3590D01*
X1358Y3594D01*
X1356Y3594D01*
X1356Y3600D01*
X1354Y3600D01*
X1354Y3608D01*
X1352Y3608D01*
X1352Y3638D01*
X1354Y3638D01*
X1354Y3644D01*
X1356Y3644D01*
X1356Y3650D01*
X1358Y3650D01*
X1358Y3654D01*
X1360Y3654D01*
X1360Y3658D01*
X1362Y3658D01*
X1362Y3660D01*
X1364Y3660D01*
X1364Y3664D01*
X1366Y3664D01*
X1366Y3666D01*
X1368Y3666D01*
X1368Y3668D01*
X1370Y3668D01*
X1370Y3688D01*
X1100Y3688D01*
G37*
D02*
G36*
X1630Y3688D02*
X1630Y3554D01*
X1628Y3554D01*
X1628Y3552D01*
X1696Y3552D01*
X1696Y3554D01*
X1698Y3554D01*
X1698Y3556D01*
X1700Y3556D01*
X1700Y3558D01*
X1702Y3558D01*
X1702Y3560D01*
X1704Y3560D01*
X1704Y3562D01*
X1708Y3562D01*
X1708Y3564D01*
X1710Y3564D01*
X1710Y3566D01*
X1712Y3566D01*
X1712Y3568D01*
X1714Y3568D01*
X1714Y3570D01*
X1716Y3570D01*
X1716Y3572D01*
X1720Y3572D01*
X1720Y3574D01*
X1722Y3574D01*
X1722Y3576D01*
X1724Y3576D01*
X1724Y3578D01*
X1726Y3578D01*
X1726Y3580D01*
X1728Y3580D01*
X1728Y3582D01*
X1732Y3582D01*
X1732Y3584D01*
X1734Y3584D01*
X1734Y3586D01*
X1736Y3586D01*
X1736Y3588D01*
X1738Y3588D01*
X1738Y3590D01*
X1742Y3590D01*
X1742Y3592D01*
X1744Y3592D01*
X1744Y3594D01*
X1746Y3594D01*
X1746Y3596D01*
X1748Y3596D01*
X1748Y3598D01*
X1750Y3598D01*
X1750Y3600D01*
X1754Y3600D01*
X1754Y3602D01*
X1756Y3602D01*
X1756Y3604D01*
X1758Y3604D01*
X1758Y3606D01*
X1760Y3606D01*
X1760Y3608D01*
X1762Y3608D01*
X1762Y3610D01*
X1766Y3610D01*
X1766Y3612D01*
X1768Y3612D01*
X1768Y3614D01*
X1770Y3614D01*
X1770Y3616D01*
X1772Y3616D01*
X1772Y3618D01*
X1776Y3618D01*
X1776Y3620D01*
X1778Y3620D01*
X1778Y3622D01*
X1780Y3622D01*
X1780Y3624D01*
X1782Y3624D01*
X1782Y3638D01*
X1784Y3638D01*
X1784Y3644D01*
X1786Y3644D01*
X1786Y3650D01*
X1788Y3650D01*
X1788Y3654D01*
X1790Y3654D01*
X1790Y3658D01*
X1792Y3658D01*
X1792Y3660D01*
X1794Y3660D01*
X1794Y3664D01*
X1796Y3664D01*
X1796Y3666D01*
X1798Y3666D01*
X1798Y3668D01*
X1800Y3668D01*
X1800Y3688D01*
X1630Y3688D01*
G37*
D02*
G36*
X1468Y3572D02*
X1468Y3570D01*
X1466Y3570D01*
X1466Y3568D01*
X1464Y3568D01*
X1464Y3566D01*
X1462Y3566D01*
X1462Y3564D01*
X1458Y3564D01*
X1458Y3562D01*
X1454Y3562D01*
X1454Y3560D01*
X1452Y3560D01*
X1452Y3558D01*
X1446Y3558D01*
X1446Y3556D01*
X1440Y3556D01*
X1440Y3554D01*
X1430Y3554D01*
X1430Y3552D01*
X1490Y3552D01*
X1490Y3572D01*
X1468Y3572D01*
G37*
D02*
G36*
X1072Y3552D02*
X1072Y3550D01*
X1692Y3550D01*
X1692Y3552D01*
X1072Y3552D01*
G37*
D02*
G36*
X1072Y3552D02*
X1072Y3550D01*
X1692Y3550D01*
X1692Y3552D01*
X1072Y3552D01*
G37*
D02*
G36*
X1072Y3552D02*
X1072Y3550D01*
X1692Y3550D01*
X1692Y3552D01*
X1072Y3552D01*
G37*
D02*
G36*
X1072Y3550D02*
X1072Y3404D01*
X1074Y3404D01*
X1074Y3402D01*
X1076Y3402D01*
X1076Y3398D01*
X1078Y3398D01*
X1078Y3396D01*
X1080Y3396D01*
X1080Y3392D01*
X1082Y3392D01*
X1082Y3386D01*
X1084Y3386D01*
X1084Y3380D01*
X1086Y3380D01*
X1086Y3368D01*
X1088Y3368D01*
X1088Y3358D01*
X1086Y3358D01*
X1086Y3346D01*
X1084Y3346D01*
X1084Y3340D01*
X1082Y3340D01*
X1082Y3334D01*
X1080Y3334D01*
X1080Y3330D01*
X1078Y3330D01*
X1078Y3328D01*
X1076Y3328D01*
X1076Y3324D01*
X1074Y3324D01*
X1074Y3322D01*
X1072Y3322D01*
X1072Y3318D01*
X1070Y3318D01*
X1070Y3316D01*
X1068Y3316D01*
X1068Y3314D01*
X1066Y3314D01*
X1066Y3312D01*
X1064Y3312D01*
X1064Y3310D01*
X1060Y3310D01*
X1060Y3308D01*
X1058Y3308D01*
X1058Y3306D01*
X1056Y3306D01*
X1056Y3304D01*
X1052Y3304D01*
X1052Y3302D01*
X1048Y3302D01*
X1048Y3300D01*
X1044Y3300D01*
X1044Y3298D01*
X1038Y3298D01*
X1038Y3296D01*
X1028Y3296D01*
X1028Y3294D01*
X1382Y3294D01*
X1382Y3296D01*
X1384Y3296D01*
X1384Y3298D01*
X1388Y3298D01*
X1388Y3300D01*
X1390Y3300D01*
X1390Y3302D01*
X1392Y3302D01*
X1392Y3304D01*
X1394Y3304D01*
X1394Y3306D01*
X1396Y3306D01*
X1396Y3308D01*
X1400Y3308D01*
X1400Y3310D01*
X1402Y3310D01*
X1402Y3312D01*
X1404Y3312D01*
X1404Y3314D01*
X1406Y3314D01*
X1406Y3316D01*
X1408Y3316D01*
X1408Y3318D01*
X1412Y3318D01*
X1412Y3320D01*
X1414Y3320D01*
X1414Y3322D01*
X1416Y3322D01*
X1416Y3324D01*
X1418Y3324D01*
X1418Y3326D01*
X1420Y3326D01*
X1420Y3328D01*
X1424Y3328D01*
X1424Y3330D01*
X1426Y3330D01*
X1426Y3332D01*
X1428Y3332D01*
X1428Y3334D01*
X1430Y3334D01*
X1430Y3336D01*
X1434Y3336D01*
X1434Y3338D01*
X1436Y3338D01*
X1436Y3340D01*
X1438Y3340D01*
X1438Y3342D01*
X1440Y3342D01*
X1440Y3344D01*
X1442Y3344D01*
X1442Y3346D01*
X1446Y3346D01*
X1446Y3348D01*
X1448Y3348D01*
X1448Y3350D01*
X1450Y3350D01*
X1450Y3352D01*
X1452Y3352D01*
X1452Y3354D01*
X1454Y3354D01*
X1454Y3356D01*
X1458Y3356D01*
X1458Y3358D01*
X1460Y3358D01*
X1460Y3360D01*
X1462Y3360D01*
X1462Y3362D01*
X1464Y3362D01*
X1464Y3364D01*
X1468Y3364D01*
X1468Y3366D01*
X1470Y3366D01*
X1470Y3368D01*
X1472Y3368D01*
X1472Y3370D01*
X1474Y3370D01*
X1474Y3372D01*
X1476Y3372D01*
X1476Y3374D01*
X1480Y3374D01*
X1480Y3376D01*
X1482Y3376D01*
X1482Y3378D01*
X1484Y3378D01*
X1484Y3380D01*
X1486Y3380D01*
X1486Y3382D01*
X1488Y3382D01*
X1488Y3384D01*
X1492Y3384D01*
X1492Y3386D01*
X1494Y3386D01*
X1494Y3388D01*
X1496Y3388D01*
X1496Y3390D01*
X1498Y3390D01*
X1498Y3392D01*
X1500Y3392D01*
X1500Y3394D01*
X1504Y3394D01*
X1504Y3396D01*
X1506Y3396D01*
X1506Y3398D01*
X1508Y3398D01*
X1508Y3400D01*
X1510Y3400D01*
X1510Y3402D01*
X1514Y3402D01*
X1514Y3404D01*
X1516Y3404D01*
X1516Y3406D01*
X1518Y3406D01*
X1518Y3408D01*
X1520Y3408D01*
X1520Y3410D01*
X1522Y3410D01*
X1522Y3412D01*
X1526Y3412D01*
X1526Y3414D01*
X1528Y3414D01*
X1528Y3416D01*
X1530Y3416D01*
X1530Y3418D01*
X1532Y3418D01*
X1532Y3420D01*
X1534Y3420D01*
X1534Y3422D01*
X1538Y3422D01*
X1538Y3424D01*
X1540Y3424D01*
X1540Y3426D01*
X1542Y3426D01*
X1542Y3428D01*
X1544Y3428D01*
X1544Y3430D01*
X1548Y3430D01*
X1548Y3432D01*
X1550Y3432D01*
X1550Y3434D01*
X1552Y3434D01*
X1552Y3436D01*
X1554Y3436D01*
X1554Y3438D01*
X1556Y3438D01*
X1556Y3440D01*
X1560Y3440D01*
X1560Y3442D01*
X1562Y3442D01*
X1562Y3444D01*
X1564Y3444D01*
X1564Y3446D01*
X1566Y3446D01*
X1566Y3448D01*
X1568Y3448D01*
X1568Y3450D01*
X1572Y3450D01*
X1572Y3452D01*
X1574Y3452D01*
X1574Y3454D01*
X1576Y3454D01*
X1576Y3456D01*
X1578Y3456D01*
X1578Y3458D01*
X1582Y3458D01*
X1582Y3460D01*
X1584Y3460D01*
X1584Y3462D01*
X1586Y3462D01*
X1586Y3464D01*
X1588Y3464D01*
X1588Y3466D01*
X1590Y3466D01*
X1590Y3468D01*
X1594Y3468D01*
X1594Y3470D01*
X1596Y3470D01*
X1596Y3472D01*
X1598Y3472D01*
X1598Y3474D01*
X1600Y3474D01*
X1600Y3476D01*
X1602Y3476D01*
X1602Y3478D01*
X1606Y3478D01*
X1606Y3480D01*
X1608Y3480D01*
X1608Y3482D01*
X1610Y3482D01*
X1610Y3484D01*
X1612Y3484D01*
X1612Y3486D01*
X1614Y3486D01*
X1614Y3488D01*
X1618Y3488D01*
X1618Y3490D01*
X1620Y3490D01*
X1620Y3492D01*
X1622Y3492D01*
X1622Y3494D01*
X1624Y3494D01*
X1624Y3496D01*
X1628Y3496D01*
X1628Y3498D01*
X1630Y3498D01*
X1630Y3500D01*
X1632Y3500D01*
X1632Y3502D01*
X1634Y3502D01*
X1634Y3504D01*
X1636Y3504D01*
X1636Y3506D01*
X1640Y3506D01*
X1640Y3508D01*
X1642Y3508D01*
X1642Y3510D01*
X1644Y3510D01*
X1644Y3512D01*
X1646Y3512D01*
X1646Y3514D01*
X1648Y3514D01*
X1648Y3516D01*
X1652Y3516D01*
X1652Y3518D01*
X1654Y3518D01*
X1654Y3520D01*
X1656Y3520D01*
X1656Y3522D01*
X1658Y3522D01*
X1658Y3524D01*
X1662Y3524D01*
X1662Y3526D01*
X1664Y3526D01*
X1664Y3528D01*
X1666Y3528D01*
X1666Y3530D01*
X1668Y3530D01*
X1668Y3532D01*
X1670Y3532D01*
X1670Y3534D01*
X1674Y3534D01*
X1674Y3536D01*
X1676Y3536D01*
X1676Y3538D01*
X1678Y3538D01*
X1678Y3540D01*
X1680Y3540D01*
X1680Y3542D01*
X1682Y3542D01*
X1682Y3544D01*
X1686Y3544D01*
X1686Y3546D01*
X1688Y3546D01*
X1688Y3548D01*
X1690Y3548D01*
X1690Y3550D01*
X1072Y3550D01*
G37*
D02*
G36*
X40Y3432D02*
X40Y3294D01*
X378Y3294D01*
X378Y3296D01*
X370Y3296D01*
X370Y3298D01*
X364Y3298D01*
X364Y3300D01*
X360Y3300D01*
X360Y3302D01*
X356Y3302D01*
X356Y3304D01*
X352Y3304D01*
X352Y3306D01*
X350Y3306D01*
X350Y3308D01*
X346Y3308D01*
X346Y3310D01*
X344Y3310D01*
X344Y3312D01*
X342Y3312D01*
X342Y3314D01*
X340Y3314D01*
X340Y3316D01*
X338Y3316D01*
X338Y3318D01*
X336Y3318D01*
X336Y3320D01*
X334Y3320D01*
X334Y3324D01*
X332Y3324D01*
X332Y3326D01*
X330Y3326D01*
X330Y3330D01*
X328Y3330D01*
X328Y3334D01*
X326Y3334D01*
X326Y3338D01*
X324Y3338D01*
X324Y3344D01*
X322Y3344D01*
X322Y3354D01*
X320Y3354D01*
X320Y3372D01*
X322Y3372D01*
X322Y3382D01*
X324Y3382D01*
X324Y3388D01*
X326Y3388D01*
X326Y3392D01*
X328Y3392D01*
X328Y3396D01*
X330Y3396D01*
X330Y3400D01*
X332Y3400D01*
X332Y3402D01*
X334Y3402D01*
X334Y3406D01*
X336Y3406D01*
X336Y3408D01*
X338Y3408D01*
X338Y3410D01*
X340Y3410D01*
X340Y3412D01*
X342Y3412D01*
X342Y3414D01*
X344Y3414D01*
X344Y3416D01*
X346Y3416D01*
X346Y3418D01*
X350Y3418D01*
X350Y3420D01*
X352Y3420D01*
X352Y3422D01*
X356Y3422D01*
X356Y3424D01*
X358Y3424D01*
X358Y3426D01*
X364Y3426D01*
X364Y3428D01*
X368Y3428D01*
X368Y3430D01*
X378Y3430D01*
X378Y3432D01*
X40Y3432D01*
G37*
D02*
G36*
X40Y3294D02*
X40Y3292D01*
X1380Y3292D01*
X1380Y3294D01*
X40Y3294D01*
G37*
D02*
G36*
X40Y3294D02*
X40Y3292D01*
X1380Y3292D01*
X1380Y3294D01*
X40Y3294D01*
G37*
D02*
G36*
X40Y3294D02*
X40Y3292D01*
X1380Y3292D01*
X1380Y3294D01*
X40Y3294D01*
G37*
D02*
G36*
X40Y3292D02*
X40Y1870D01*
X396Y1870D01*
X396Y1868D01*
X408Y1868D01*
X408Y1866D01*
X414Y1866D01*
X414Y1864D01*
X418Y1864D01*
X418Y1862D01*
X422Y1862D01*
X422Y1860D01*
X426Y1860D01*
X426Y1858D01*
X428Y1858D01*
X428Y1856D01*
X432Y1856D01*
X432Y1854D01*
X434Y1854D01*
X434Y1852D01*
X436Y1852D01*
X436Y1850D01*
X438Y1850D01*
X438Y1848D01*
X440Y1848D01*
X440Y1846D01*
X442Y1846D01*
X442Y1844D01*
X444Y1844D01*
X444Y1840D01*
X446Y1840D01*
X446Y1838D01*
X448Y1838D01*
X448Y1834D01*
X450Y1834D01*
X450Y1830D01*
X452Y1830D01*
X452Y1826D01*
X454Y1826D01*
X454Y1822D01*
X456Y1822D01*
X456Y1812D01*
X458Y1812D01*
X458Y1788D01*
X456Y1788D01*
X456Y1780D01*
X454Y1780D01*
X454Y1774D01*
X452Y1774D01*
X452Y1770D01*
X450Y1770D01*
X450Y1766D01*
X448Y1766D01*
X448Y1764D01*
X446Y1764D01*
X446Y1760D01*
X444Y1760D01*
X444Y1758D01*
X442Y1758D01*
X442Y1756D01*
X440Y1756D01*
X440Y1752D01*
X438Y1752D01*
X438Y1750D01*
X436Y1750D01*
X436Y1466D01*
X434Y1466D01*
X434Y1460D01*
X688Y1460D01*
X688Y1458D01*
X698Y1458D01*
X698Y1456D01*
X704Y1456D01*
X704Y1454D01*
X708Y1454D01*
X708Y1452D01*
X712Y1452D01*
X712Y1450D01*
X716Y1450D01*
X716Y1448D01*
X718Y1448D01*
X718Y1446D01*
X722Y1446D01*
X722Y1444D01*
X724Y1444D01*
X724Y1442D01*
X726Y1442D01*
X726Y1440D01*
X728Y1440D01*
X728Y1438D01*
X730Y1438D01*
X730Y1436D01*
X732Y1436D01*
X732Y1432D01*
X734Y1432D01*
X734Y1430D01*
X736Y1430D01*
X736Y1426D01*
X738Y1426D01*
X738Y1424D01*
X740Y1424D01*
X740Y1420D01*
X742Y1420D01*
X742Y1414D01*
X744Y1414D01*
X744Y1406D01*
X746Y1406D01*
X746Y1378D01*
X744Y1378D01*
X744Y1370D01*
X742Y1370D01*
X742Y1366D01*
X740Y1366D01*
X740Y1362D01*
X738Y1362D01*
X738Y1358D01*
X736Y1358D01*
X736Y1354D01*
X734Y1354D01*
X734Y1352D01*
X732Y1352D01*
X732Y1350D01*
X730Y1350D01*
X730Y1346D01*
X728Y1346D01*
X728Y1344D01*
X726Y1344D01*
X726Y1144D01*
X876Y1144D01*
X876Y1146D01*
X862Y1146D01*
X862Y1148D01*
X856Y1148D01*
X856Y1150D01*
X852Y1150D01*
X852Y1152D01*
X848Y1152D01*
X848Y1154D01*
X844Y1154D01*
X844Y1156D01*
X840Y1156D01*
X840Y1158D01*
X838Y1158D01*
X838Y1160D01*
X836Y1160D01*
X836Y1162D01*
X834Y1162D01*
X834Y1164D01*
X830Y1164D01*
X830Y1168D01*
X828Y1168D01*
X828Y1170D01*
X826Y1170D01*
X826Y1172D01*
X824Y1172D01*
X824Y1176D01*
X822Y1176D01*
X822Y1178D01*
X820Y1178D01*
X820Y1182D01*
X818Y1182D01*
X818Y1186D01*
X816Y1186D01*
X816Y1192D01*
X814Y1192D01*
X814Y1198D01*
X812Y1198D01*
X812Y1226D01*
X814Y1226D01*
X814Y1234D01*
X816Y1234D01*
X816Y1238D01*
X818Y1238D01*
X818Y1242D01*
X820Y1242D01*
X820Y1246D01*
X822Y1246D01*
X822Y1250D01*
X824Y1250D01*
X824Y1252D01*
X826Y1252D01*
X826Y1254D01*
X828Y1254D01*
X828Y1258D01*
X830Y1258D01*
X830Y1260D01*
X832Y1260D01*
X832Y1598D01*
X830Y1598D01*
X830Y1962D01*
X828Y1962D01*
X828Y2326D01*
X826Y2326D01*
X826Y2692D01*
X824Y2692D01*
X824Y2820D01*
X826Y2820D01*
X826Y2828D01*
X828Y2828D01*
X828Y2834D01*
X830Y2834D01*
X830Y2836D01*
X832Y2836D01*
X832Y2840D01*
X834Y2840D01*
X834Y2842D01*
X836Y2842D01*
X836Y2844D01*
X838Y2844D01*
X838Y2846D01*
X840Y2846D01*
X840Y2848D01*
X842Y2848D01*
X842Y2850D01*
X844Y2850D01*
X844Y2852D01*
X846Y2852D01*
X846Y2854D01*
X848Y2854D01*
X848Y2856D01*
X852Y2856D01*
X852Y2858D01*
X854Y2858D01*
X854Y2860D01*
X856Y2860D01*
X856Y2862D01*
X858Y2862D01*
X858Y2864D01*
X860Y2864D01*
X860Y2866D01*
X864Y2866D01*
X864Y2868D01*
X866Y2868D01*
X866Y2870D01*
X868Y2870D01*
X868Y2872D01*
X870Y2872D01*
X870Y2874D01*
X872Y2874D01*
X872Y2876D01*
X876Y2876D01*
X876Y2878D01*
X878Y2878D01*
X878Y2880D01*
X880Y2880D01*
X880Y2882D01*
X882Y2882D01*
X882Y2884D01*
X886Y2884D01*
X886Y2886D01*
X888Y2886D01*
X888Y2888D01*
X890Y2888D01*
X890Y2890D01*
X892Y2890D01*
X892Y2892D01*
X894Y2892D01*
X894Y2894D01*
X898Y2894D01*
X898Y2896D01*
X900Y2896D01*
X900Y2898D01*
X902Y2898D01*
X902Y2900D01*
X904Y2900D01*
X904Y2902D01*
X906Y2902D01*
X906Y2904D01*
X910Y2904D01*
X910Y2906D01*
X912Y2906D01*
X912Y2908D01*
X914Y2908D01*
X914Y2910D01*
X916Y2910D01*
X916Y2912D01*
X918Y2912D01*
X918Y2914D01*
X922Y2914D01*
X922Y2916D01*
X924Y2916D01*
X924Y2918D01*
X926Y2918D01*
X926Y2920D01*
X928Y2920D01*
X928Y2922D01*
X932Y2922D01*
X932Y2924D01*
X934Y2924D01*
X934Y2926D01*
X936Y2926D01*
X936Y2928D01*
X938Y2928D01*
X938Y2930D01*
X940Y2930D01*
X940Y2932D01*
X944Y2932D01*
X944Y2934D01*
X946Y2934D01*
X946Y2936D01*
X948Y2936D01*
X948Y2938D01*
X950Y2938D01*
X950Y2940D01*
X952Y2940D01*
X952Y2942D01*
X956Y2942D01*
X956Y2944D01*
X958Y2944D01*
X958Y2946D01*
X960Y2946D01*
X960Y2948D01*
X962Y2948D01*
X962Y2950D01*
X966Y2950D01*
X966Y2952D01*
X968Y2952D01*
X968Y2954D01*
X970Y2954D01*
X970Y2956D01*
X972Y2956D01*
X972Y2958D01*
X974Y2958D01*
X974Y2960D01*
X978Y2960D01*
X978Y2962D01*
X980Y2962D01*
X980Y2964D01*
X982Y2964D01*
X982Y2966D01*
X984Y2966D01*
X984Y2968D01*
X986Y2968D01*
X986Y2970D01*
X990Y2970D01*
X990Y2972D01*
X992Y2972D01*
X992Y2974D01*
X994Y2974D01*
X994Y2976D01*
X996Y2976D01*
X996Y2978D01*
X998Y2978D01*
X998Y2980D01*
X1002Y2980D01*
X1002Y2982D01*
X1004Y2982D01*
X1004Y2984D01*
X1006Y2984D01*
X1006Y2986D01*
X1008Y2986D01*
X1008Y2988D01*
X1012Y2988D01*
X1012Y2990D01*
X1014Y2990D01*
X1014Y2992D01*
X1016Y2992D01*
X1016Y2994D01*
X1018Y2994D01*
X1018Y2996D01*
X1020Y2996D01*
X1020Y2998D01*
X1024Y2998D01*
X1024Y3000D01*
X1026Y3000D01*
X1026Y3002D01*
X1028Y3002D01*
X1028Y3004D01*
X1030Y3004D01*
X1030Y3006D01*
X1032Y3006D01*
X1032Y3008D01*
X1036Y3008D01*
X1036Y3010D01*
X1038Y3010D01*
X1038Y3012D01*
X1040Y3012D01*
X1040Y3014D01*
X1042Y3014D01*
X1042Y3016D01*
X1046Y3016D01*
X1046Y3018D01*
X1048Y3018D01*
X1048Y3020D01*
X1050Y3020D01*
X1050Y3022D01*
X1052Y3022D01*
X1052Y3024D01*
X1054Y3024D01*
X1054Y3026D01*
X1058Y3026D01*
X1058Y3028D01*
X1060Y3028D01*
X1060Y3030D01*
X1062Y3030D01*
X1062Y3032D01*
X1064Y3032D01*
X1064Y3034D01*
X1066Y3034D01*
X1066Y3036D01*
X1070Y3036D01*
X1070Y3038D01*
X1072Y3038D01*
X1072Y3040D01*
X1074Y3040D01*
X1074Y3042D01*
X1076Y3042D01*
X1076Y3044D01*
X1080Y3044D01*
X1080Y3046D01*
X1082Y3046D01*
X1082Y3048D01*
X1084Y3048D01*
X1084Y3050D01*
X1086Y3050D01*
X1086Y3052D01*
X1088Y3052D01*
X1088Y3054D01*
X1092Y3054D01*
X1092Y3056D01*
X1094Y3056D01*
X1094Y3058D01*
X1096Y3058D01*
X1096Y3060D01*
X1098Y3060D01*
X1098Y3062D01*
X1100Y3062D01*
X1100Y3064D01*
X1104Y3064D01*
X1104Y3066D01*
X1106Y3066D01*
X1106Y3068D01*
X1108Y3068D01*
X1108Y3070D01*
X1110Y3070D01*
X1110Y3072D01*
X1112Y3072D01*
X1112Y3074D01*
X1116Y3074D01*
X1116Y3076D01*
X1118Y3076D01*
X1118Y3078D01*
X1120Y3078D01*
X1120Y3080D01*
X1122Y3080D01*
X1122Y3082D01*
X1126Y3082D01*
X1126Y3084D01*
X1128Y3084D01*
X1128Y3086D01*
X1130Y3086D01*
X1130Y3088D01*
X1132Y3088D01*
X1132Y3090D01*
X1134Y3090D01*
X1134Y3092D01*
X1138Y3092D01*
X1138Y3094D01*
X1140Y3094D01*
X1140Y3096D01*
X1142Y3096D01*
X1142Y3098D01*
X1144Y3098D01*
X1144Y3100D01*
X1146Y3100D01*
X1146Y3102D01*
X1150Y3102D01*
X1150Y3104D01*
X1152Y3104D01*
X1152Y3106D01*
X1154Y3106D01*
X1154Y3108D01*
X1156Y3108D01*
X1156Y3110D01*
X1160Y3110D01*
X1160Y3112D01*
X1162Y3112D01*
X1162Y3114D01*
X1164Y3114D01*
X1164Y3116D01*
X1166Y3116D01*
X1166Y3118D01*
X1168Y3118D01*
X1168Y3120D01*
X1172Y3120D01*
X1172Y3122D01*
X1174Y3122D01*
X1174Y3124D01*
X1176Y3124D01*
X1176Y3126D01*
X1178Y3126D01*
X1178Y3128D01*
X1180Y3128D01*
X1180Y3130D01*
X1184Y3130D01*
X1184Y3132D01*
X1186Y3132D01*
X1186Y3134D01*
X1188Y3134D01*
X1188Y3136D01*
X1190Y3136D01*
X1190Y3138D01*
X1192Y3138D01*
X1192Y3140D01*
X1196Y3140D01*
X1196Y3142D01*
X1198Y3142D01*
X1198Y3144D01*
X1200Y3144D01*
X1200Y3146D01*
X1202Y3146D01*
X1202Y3148D01*
X1206Y3148D01*
X1206Y3150D01*
X1208Y3150D01*
X1208Y3152D01*
X1210Y3152D01*
X1210Y3154D01*
X1212Y3154D01*
X1212Y3156D01*
X1214Y3156D01*
X1214Y3158D01*
X1218Y3158D01*
X1218Y3160D01*
X1220Y3160D01*
X1220Y3162D01*
X1222Y3162D01*
X1222Y3164D01*
X1224Y3164D01*
X1224Y3166D01*
X1226Y3166D01*
X1226Y3168D01*
X1230Y3168D01*
X1230Y3170D01*
X1232Y3170D01*
X1232Y3172D01*
X1234Y3172D01*
X1234Y3174D01*
X1236Y3174D01*
X1236Y3176D01*
X1240Y3176D01*
X1240Y3178D01*
X1242Y3178D01*
X1242Y3180D01*
X1244Y3180D01*
X1244Y3182D01*
X1246Y3182D01*
X1246Y3184D01*
X1248Y3184D01*
X1248Y3186D01*
X1252Y3186D01*
X1252Y3188D01*
X1254Y3188D01*
X1254Y3190D01*
X1256Y3190D01*
X1256Y3192D01*
X1258Y3192D01*
X1258Y3194D01*
X1260Y3194D01*
X1260Y3196D01*
X1264Y3196D01*
X1264Y3198D01*
X1266Y3198D01*
X1266Y3200D01*
X1268Y3200D01*
X1268Y3202D01*
X1270Y3202D01*
X1270Y3204D01*
X1274Y3204D01*
X1274Y3206D01*
X1276Y3206D01*
X1276Y3208D01*
X1278Y3208D01*
X1278Y3210D01*
X1280Y3210D01*
X1280Y3212D01*
X1282Y3212D01*
X1282Y3214D01*
X1286Y3214D01*
X1286Y3216D01*
X1288Y3216D01*
X1288Y3218D01*
X1290Y3218D01*
X1290Y3220D01*
X1292Y3220D01*
X1292Y3222D01*
X1294Y3222D01*
X1294Y3224D01*
X1298Y3224D01*
X1298Y3226D01*
X1300Y3226D01*
X1300Y3228D01*
X1302Y3228D01*
X1302Y3230D01*
X1304Y3230D01*
X1304Y3232D01*
X1306Y3232D01*
X1306Y3234D01*
X1310Y3234D01*
X1310Y3236D01*
X1312Y3236D01*
X1312Y3238D01*
X1314Y3238D01*
X1314Y3240D01*
X1316Y3240D01*
X1316Y3242D01*
X1320Y3242D01*
X1320Y3244D01*
X1322Y3244D01*
X1322Y3246D01*
X1324Y3246D01*
X1324Y3248D01*
X1326Y3248D01*
X1326Y3250D01*
X1328Y3250D01*
X1328Y3252D01*
X1332Y3252D01*
X1332Y3254D01*
X1334Y3254D01*
X1334Y3256D01*
X1336Y3256D01*
X1336Y3258D01*
X1338Y3258D01*
X1338Y3260D01*
X1340Y3260D01*
X1340Y3262D01*
X1344Y3262D01*
X1344Y3264D01*
X1346Y3264D01*
X1346Y3266D01*
X1348Y3266D01*
X1348Y3268D01*
X1350Y3268D01*
X1350Y3270D01*
X1354Y3270D01*
X1354Y3272D01*
X1356Y3272D01*
X1356Y3274D01*
X1358Y3274D01*
X1358Y3276D01*
X1360Y3276D01*
X1360Y3278D01*
X1362Y3278D01*
X1362Y3280D01*
X1366Y3280D01*
X1366Y3282D01*
X1368Y3282D01*
X1368Y3284D01*
X1370Y3284D01*
X1370Y3286D01*
X1372Y3286D01*
X1372Y3288D01*
X1374Y3288D01*
X1374Y3290D01*
X1378Y3290D01*
X1378Y3292D01*
X40Y3292D01*
G37*
D02*
G36*
X2410Y2326D02*
X2410Y2304D01*
X2412Y2304D01*
X2412Y2300D01*
X2414Y2300D01*
X2414Y2294D01*
X2416Y2294D01*
X2416Y2288D01*
X2418Y2288D01*
X2418Y2256D01*
X2416Y2256D01*
X2416Y2250D01*
X2414Y2250D01*
X2414Y2244D01*
X2412Y2244D01*
X2412Y2240D01*
X2410Y2240D01*
X2410Y2238D01*
X2408Y2238D01*
X2408Y2234D01*
X2406Y2234D01*
X2406Y2210D01*
X2408Y2210D01*
X2408Y2208D01*
X2410Y2208D01*
X2410Y2204D01*
X2412Y2204D01*
X2412Y2200D01*
X2414Y2200D01*
X2414Y2194D01*
X2416Y2194D01*
X2416Y2188D01*
X2418Y2188D01*
X2418Y2156D01*
X2416Y2156D01*
X2416Y2150D01*
X2414Y2150D01*
X2414Y2144D01*
X2412Y2144D01*
X2412Y2140D01*
X2410Y2140D01*
X2410Y2138D01*
X2408Y2138D01*
X2408Y2134D01*
X2406Y2134D01*
X2406Y2130D01*
X2404Y2130D01*
X2404Y2128D01*
X2402Y2128D01*
X2402Y2126D01*
X2400Y2126D01*
X2400Y2124D01*
X2398Y2124D01*
X2398Y2122D01*
X2396Y2122D01*
X2396Y2120D01*
X2394Y2120D01*
X2394Y2118D01*
X2392Y2118D01*
X2392Y2116D01*
X2388Y2116D01*
X2388Y2114D01*
X2386Y2114D01*
X2386Y2112D01*
X2382Y2112D01*
X2382Y2110D01*
X2378Y2110D01*
X2378Y2108D01*
X2374Y2108D01*
X2374Y2106D01*
X2366Y2106D01*
X2366Y2104D01*
X2356Y2104D01*
X2356Y2102D01*
X2492Y2102D01*
X2492Y2304D01*
X2490Y2304D01*
X2490Y2306D01*
X2488Y2306D01*
X2488Y2308D01*
X2486Y2308D01*
X2486Y2312D01*
X2484Y2312D01*
X2484Y2314D01*
X2482Y2314D01*
X2482Y2316D01*
X2480Y2316D01*
X2480Y2318D01*
X2478Y2318D01*
X2478Y2320D01*
X2476Y2320D01*
X2476Y2322D01*
X2474Y2322D01*
X2474Y2324D01*
X2472Y2324D01*
X2472Y2326D01*
X2410Y2326D01*
G37*
D02*
G36*
X2276Y2126D02*
X2276Y2124D01*
X2160Y2124D01*
X2160Y2122D01*
X2044Y2122D01*
X2044Y2120D01*
X1928Y2120D01*
X1928Y2118D01*
X1812Y2118D01*
X1812Y2116D01*
X1756Y2116D01*
X1756Y2114D01*
X1754Y2114D01*
X1754Y2112D01*
X1750Y2112D01*
X1750Y2110D01*
X1748Y2110D01*
X1748Y2108D01*
X1746Y2108D01*
X1746Y2106D01*
X1744Y2106D01*
X1744Y2104D01*
X1742Y2104D01*
X1742Y2102D01*
X2342Y2102D01*
X2342Y2104D01*
X2332Y2104D01*
X2332Y2106D01*
X2324Y2106D01*
X2324Y2108D01*
X2320Y2108D01*
X2320Y2110D01*
X2316Y2110D01*
X2316Y2112D01*
X2312Y2112D01*
X2312Y2114D01*
X2310Y2114D01*
X2310Y2116D01*
X2308Y2116D01*
X2308Y2118D01*
X2304Y2118D01*
X2304Y2120D01*
X2302Y2120D01*
X2302Y2122D01*
X2300Y2122D01*
X2300Y2124D01*
X2298Y2124D01*
X2298Y2126D01*
X2276Y2126D01*
G37*
D02*
G36*
X1740Y2102D02*
X1740Y2100D01*
X2492Y2100D01*
X2492Y2102D01*
X1740Y2102D01*
G37*
D02*
G36*
X1740Y2102D02*
X1740Y2100D01*
X2492Y2100D01*
X2492Y2102D01*
X1740Y2102D01*
G37*
D02*
G36*
X1738Y2100D02*
X1738Y2098D01*
X1734Y2098D01*
X1734Y2096D01*
X1732Y2096D01*
X1732Y2094D01*
X1730Y2094D01*
X1730Y2092D01*
X1728Y2092D01*
X1728Y2090D01*
X1726Y2090D01*
X1726Y2088D01*
X1724Y2088D01*
X1724Y2086D01*
X1722Y2086D01*
X1722Y2084D01*
X1718Y2084D01*
X1718Y2082D01*
X1716Y2082D01*
X1716Y2080D01*
X1714Y2080D01*
X1714Y2078D01*
X1712Y2078D01*
X1712Y2076D01*
X1710Y2076D01*
X1710Y2074D01*
X1708Y2074D01*
X1708Y2072D01*
X1706Y2072D01*
X1706Y2070D01*
X1704Y2070D01*
X1704Y1660D01*
X1702Y1660D01*
X1702Y1654D01*
X1700Y1654D01*
X1700Y1650D01*
X1698Y1650D01*
X1698Y1646D01*
X1696Y1646D01*
X1696Y1644D01*
X1694Y1644D01*
X1694Y1642D01*
X1692Y1642D01*
X1692Y1638D01*
X1690Y1638D01*
X1690Y1636D01*
X1688Y1636D01*
X1688Y1634D01*
X1686Y1634D01*
X1686Y1632D01*
X1684Y1632D01*
X1684Y1628D01*
X1682Y1628D01*
X1682Y1626D01*
X1680Y1626D01*
X1680Y1624D01*
X1678Y1624D01*
X1678Y1622D01*
X1676Y1622D01*
X1676Y1618D01*
X1674Y1618D01*
X1674Y1616D01*
X1672Y1616D01*
X1672Y1614D01*
X1670Y1614D01*
X1670Y1610D01*
X1668Y1610D01*
X1668Y1608D01*
X1666Y1608D01*
X1666Y1606D01*
X1664Y1606D01*
X1664Y1604D01*
X1662Y1604D01*
X1662Y1600D01*
X1660Y1600D01*
X1660Y1598D01*
X1658Y1598D01*
X1658Y1596D01*
X1656Y1596D01*
X1656Y1594D01*
X1654Y1594D01*
X1654Y1590D01*
X1652Y1590D01*
X1652Y1588D01*
X1650Y1588D01*
X1650Y1586D01*
X1648Y1586D01*
X1648Y1584D01*
X1646Y1584D01*
X1646Y1580D01*
X1644Y1580D01*
X1644Y1578D01*
X1642Y1578D01*
X1642Y1576D01*
X1640Y1576D01*
X1640Y1574D01*
X1638Y1574D01*
X1638Y1570D01*
X1636Y1570D01*
X1636Y1568D01*
X1634Y1568D01*
X1634Y1566D01*
X1632Y1566D01*
X1632Y1564D01*
X1630Y1564D01*
X1630Y1560D01*
X1628Y1560D01*
X1628Y1558D01*
X1626Y1558D01*
X1626Y1556D01*
X1624Y1556D01*
X1624Y1554D01*
X1622Y1554D01*
X1622Y1550D01*
X1620Y1550D01*
X1620Y1548D01*
X1618Y1548D01*
X1618Y1546D01*
X1616Y1546D01*
X1616Y1544D01*
X1614Y1544D01*
X1614Y1540D01*
X1612Y1540D01*
X1612Y1538D01*
X1610Y1538D01*
X1610Y1536D01*
X1606Y1536D01*
X1606Y1534D01*
X1604Y1534D01*
X1604Y1532D01*
X1600Y1532D01*
X1600Y1530D01*
X1596Y1530D01*
X1596Y1528D01*
X1590Y1528D01*
X1590Y1526D01*
X1474Y1526D01*
X1474Y1506D01*
X1476Y1506D01*
X1476Y1478D01*
X1474Y1478D01*
X1474Y1470D01*
X1472Y1470D01*
X1472Y1466D01*
X1470Y1466D01*
X1470Y1462D01*
X1468Y1462D01*
X1468Y1458D01*
X1466Y1458D01*
X1466Y1454D01*
X1464Y1454D01*
X1464Y1452D01*
X1462Y1452D01*
X1462Y1450D01*
X1460Y1450D01*
X1460Y1446D01*
X1458Y1446D01*
X1458Y1444D01*
X1456Y1444D01*
X1456Y1400D01*
X1628Y1400D01*
X1628Y1398D01*
X1636Y1398D01*
X1636Y1396D01*
X1640Y1396D01*
X1640Y1394D01*
X1644Y1394D01*
X1644Y1392D01*
X1648Y1392D01*
X1648Y1390D01*
X1650Y1390D01*
X1650Y1388D01*
X1654Y1388D01*
X1654Y1386D01*
X1656Y1386D01*
X1656Y1384D01*
X1658Y1384D01*
X1658Y1382D01*
X1660Y1382D01*
X1660Y1380D01*
X1662Y1380D01*
X1662Y1378D01*
X1664Y1378D01*
X1664Y1376D01*
X1666Y1376D01*
X1666Y1374D01*
X1668Y1374D01*
X1668Y1370D01*
X1670Y1370D01*
X1670Y1368D01*
X1672Y1368D01*
X1672Y1364D01*
X1674Y1364D01*
X1674Y1360D01*
X1676Y1360D01*
X1676Y1354D01*
X1678Y1354D01*
X1678Y1348D01*
X1680Y1348D01*
X1680Y1318D01*
X1678Y1318D01*
X1678Y1312D01*
X1676Y1312D01*
X1676Y1306D01*
X1674Y1306D01*
X1674Y1302D01*
X1672Y1302D01*
X1672Y1298D01*
X1670Y1298D01*
X1670Y1296D01*
X1668Y1296D01*
X1668Y1292D01*
X1666Y1292D01*
X1666Y1290D01*
X1664Y1290D01*
X1664Y1288D01*
X1662Y1288D01*
X1662Y1286D01*
X1660Y1286D01*
X1660Y1284D01*
X1658Y1284D01*
X1658Y1282D01*
X1656Y1282D01*
X1656Y1280D01*
X1652Y1280D01*
X1652Y1278D01*
X1650Y1278D01*
X1650Y1276D01*
X1646Y1276D01*
X1646Y1274D01*
X1644Y1274D01*
X1644Y1272D01*
X1640Y1272D01*
X1640Y1270D01*
X1634Y1270D01*
X1634Y1268D01*
X1626Y1268D01*
X1626Y1266D01*
X2280Y1266D01*
X2280Y1286D01*
X2282Y1286D01*
X2282Y1294D01*
X2284Y1294D01*
X2284Y1300D01*
X2286Y1300D01*
X2286Y1304D01*
X2288Y1304D01*
X2288Y1308D01*
X2290Y1308D01*
X2290Y1310D01*
X2292Y1310D01*
X2292Y1334D01*
X2290Y1334D01*
X2290Y1338D01*
X2288Y1338D01*
X2288Y1342D01*
X2286Y1342D01*
X2286Y1346D01*
X2284Y1346D01*
X2284Y1350D01*
X2282Y1350D01*
X2282Y1358D01*
X2280Y1358D01*
X2280Y1386D01*
X2282Y1386D01*
X2282Y1394D01*
X2284Y1394D01*
X2284Y1400D01*
X2286Y1400D01*
X2286Y1404D01*
X2288Y1404D01*
X2288Y1408D01*
X2290Y1408D01*
X2290Y1410D01*
X2292Y1410D01*
X2292Y1434D01*
X2290Y1434D01*
X2290Y1438D01*
X2288Y1438D01*
X2288Y1442D01*
X2286Y1442D01*
X2286Y1446D01*
X2284Y1446D01*
X2284Y1450D01*
X2282Y1450D01*
X2282Y1458D01*
X2280Y1458D01*
X2280Y1464D01*
X2278Y1464D01*
X2278Y1466D01*
X2276Y1466D01*
X2276Y1468D01*
X2272Y1468D01*
X2272Y1470D01*
X2270Y1470D01*
X2270Y1472D01*
X2266Y1472D01*
X2266Y1474D01*
X2264Y1474D01*
X2264Y1476D01*
X2260Y1476D01*
X2260Y1478D01*
X2258Y1478D01*
X2258Y1480D01*
X2254Y1480D01*
X2254Y1482D01*
X2252Y1482D01*
X2252Y1484D01*
X2248Y1484D01*
X2248Y1486D01*
X2246Y1486D01*
X2246Y1488D01*
X2242Y1488D01*
X2242Y1490D01*
X2240Y1490D01*
X2240Y1492D01*
X2238Y1492D01*
X2238Y1494D01*
X2234Y1494D01*
X2234Y1496D01*
X2232Y1496D01*
X2232Y1498D01*
X2228Y1498D01*
X2228Y1500D01*
X2226Y1500D01*
X2226Y1502D01*
X2222Y1502D01*
X2222Y1504D01*
X2220Y1504D01*
X2220Y1506D01*
X2218Y1506D01*
X2218Y1508D01*
X2216Y1508D01*
X2216Y1510D01*
X2214Y1510D01*
X2214Y1512D01*
X2212Y1512D01*
X2212Y1514D01*
X2210Y1514D01*
X2210Y1516D01*
X2208Y1516D01*
X2208Y1520D01*
X2206Y1520D01*
X2206Y1524D01*
X2204Y1524D01*
X2204Y1532D01*
X2202Y1532D01*
X2202Y1860D01*
X2204Y1860D01*
X2204Y1868D01*
X2206Y1868D01*
X2206Y1872D01*
X2208Y1872D01*
X2208Y1876D01*
X2210Y1876D01*
X2210Y1878D01*
X2212Y1878D01*
X2212Y1882D01*
X2214Y1882D01*
X2214Y1884D01*
X2216Y1884D01*
X2216Y1886D01*
X2218Y1886D01*
X2218Y1888D01*
X2220Y1888D01*
X2220Y1890D01*
X2222Y1890D01*
X2222Y1892D01*
X2224Y1892D01*
X2224Y1894D01*
X2226Y1894D01*
X2226Y1896D01*
X2228Y1896D01*
X2228Y1898D01*
X2230Y1898D01*
X2230Y1900D01*
X2232Y1900D01*
X2232Y1902D01*
X2234Y1902D01*
X2234Y1904D01*
X2236Y1904D01*
X2236Y1906D01*
X2238Y1906D01*
X2238Y1908D01*
X2240Y1908D01*
X2240Y1910D01*
X2242Y1910D01*
X2242Y1912D01*
X2244Y1912D01*
X2244Y1914D01*
X2246Y1914D01*
X2246Y1916D01*
X2248Y1916D01*
X2248Y1918D01*
X2250Y1918D01*
X2250Y1920D01*
X2252Y1920D01*
X2252Y1922D01*
X2254Y1922D01*
X2254Y1924D01*
X2256Y1924D01*
X2256Y1926D01*
X2258Y1926D01*
X2258Y1928D01*
X2262Y1928D01*
X2262Y1930D01*
X2264Y1930D01*
X2264Y1932D01*
X2268Y1932D01*
X2268Y1934D01*
X2272Y1934D01*
X2272Y1936D01*
X2278Y1936D01*
X2278Y1938D01*
X2474Y1938D01*
X2474Y1940D01*
X2476Y1940D01*
X2476Y1942D01*
X2478Y1942D01*
X2478Y1946D01*
X2480Y1946D01*
X2480Y1948D01*
X2482Y1948D01*
X2482Y1952D01*
X2484Y1952D01*
X2484Y1956D01*
X2486Y1956D01*
X2486Y1958D01*
X2488Y1958D01*
X2488Y1962D01*
X2490Y1962D01*
X2490Y1964D01*
X2492Y1964D01*
X2492Y2100D01*
X1738Y2100D01*
G37*
D02*
G36*
X40Y1870D02*
X40Y380D01*
X478Y380D01*
X478Y378D01*
X488Y378D01*
X488Y376D01*
X494Y376D01*
X494Y374D01*
X498Y374D01*
X498Y372D01*
X502Y372D01*
X502Y370D01*
X524Y370D01*
X524Y436D01*
X522Y436D01*
X522Y438D01*
X520Y438D01*
X520Y442D01*
X518Y442D01*
X518Y444D01*
X516Y444D01*
X516Y446D01*
X514Y446D01*
X514Y448D01*
X512Y448D01*
X512Y450D01*
X510Y450D01*
X510Y454D01*
X508Y454D01*
X508Y456D01*
X506Y456D01*
X506Y458D01*
X504Y458D01*
X504Y460D01*
X502Y460D01*
X502Y462D01*
X500Y462D01*
X500Y466D01*
X226Y466D01*
X226Y468D01*
X216Y468D01*
X216Y470D01*
X210Y470D01*
X210Y472D01*
X208Y472D01*
X208Y474D01*
X204Y474D01*
X204Y476D01*
X202Y476D01*
X202Y478D01*
X198Y478D01*
X198Y480D01*
X196Y480D01*
X196Y482D01*
X194Y482D01*
X194Y484D01*
X192Y484D01*
X192Y486D01*
X190Y486D01*
X190Y488D01*
X188Y488D01*
X188Y490D01*
X186Y490D01*
X186Y492D01*
X184Y492D01*
X184Y494D01*
X182Y494D01*
X182Y496D01*
X180Y496D01*
X180Y498D01*
X178Y498D01*
X178Y500D01*
X176Y500D01*
X176Y502D01*
X174Y502D01*
X174Y504D01*
X172Y504D01*
X172Y506D01*
X170Y506D01*
X170Y508D01*
X168Y508D01*
X168Y510D01*
X166Y510D01*
X166Y512D01*
X164Y512D01*
X164Y514D01*
X162Y514D01*
X162Y516D01*
X160Y516D01*
X160Y518D01*
X158Y518D01*
X158Y520D01*
X156Y520D01*
X156Y522D01*
X154Y522D01*
X154Y524D01*
X152Y524D01*
X152Y526D01*
X150Y526D01*
X150Y528D01*
X148Y528D01*
X148Y530D01*
X146Y530D01*
X146Y532D01*
X144Y532D01*
X144Y534D01*
X142Y534D01*
X142Y536D01*
X140Y536D01*
X140Y538D01*
X138Y538D01*
X138Y540D01*
X136Y540D01*
X136Y544D01*
X134Y544D01*
X134Y546D01*
X132Y546D01*
X132Y548D01*
X130Y548D01*
X130Y552D01*
X128Y552D01*
X128Y556D01*
X126Y556D01*
X126Y562D01*
X124Y562D01*
X124Y874D01*
X126Y874D01*
X126Y880D01*
X128Y880D01*
X128Y884D01*
X130Y884D01*
X130Y888D01*
X132Y888D01*
X132Y890D01*
X134Y890D01*
X134Y894D01*
X136Y894D01*
X136Y896D01*
X138Y896D01*
X138Y898D01*
X140Y898D01*
X140Y900D01*
X142Y900D01*
X142Y904D01*
X144Y904D01*
X144Y906D01*
X146Y906D01*
X146Y908D01*
X148Y908D01*
X148Y910D01*
X150Y910D01*
X150Y914D01*
X152Y914D01*
X152Y916D01*
X154Y916D01*
X154Y918D01*
X156Y918D01*
X156Y920D01*
X158Y920D01*
X158Y924D01*
X160Y924D01*
X160Y926D01*
X162Y926D01*
X162Y928D01*
X164Y928D01*
X164Y930D01*
X166Y930D01*
X166Y934D01*
X168Y934D01*
X168Y936D01*
X170Y936D01*
X170Y938D01*
X172Y938D01*
X172Y940D01*
X174Y940D01*
X174Y944D01*
X176Y944D01*
X176Y946D01*
X178Y946D01*
X178Y948D01*
X182Y948D01*
X182Y950D01*
X184Y950D01*
X184Y952D01*
X188Y952D01*
X188Y954D01*
X192Y954D01*
X192Y956D01*
X196Y956D01*
X196Y958D01*
X208Y958D01*
X208Y960D01*
X246Y960D01*
X246Y962D01*
X282Y962D01*
X282Y964D01*
X318Y964D01*
X318Y966D01*
X328Y966D01*
X328Y968D01*
X330Y968D01*
X330Y970D01*
X332Y970D01*
X332Y972D01*
X334Y972D01*
X334Y1026D01*
X336Y1026D01*
X336Y1136D01*
X338Y1136D01*
X338Y1246D01*
X340Y1246D01*
X340Y1358D01*
X342Y1358D01*
X342Y1468D01*
X344Y1468D01*
X344Y1750D01*
X342Y1750D01*
X342Y1752D01*
X340Y1752D01*
X340Y1754D01*
X338Y1754D01*
X338Y1756D01*
X336Y1756D01*
X336Y1758D01*
X334Y1758D01*
X334Y1760D01*
X332Y1760D01*
X332Y1764D01*
X330Y1764D01*
X330Y1768D01*
X328Y1768D01*
X328Y1770D01*
X326Y1770D01*
X326Y1776D01*
X324Y1776D01*
X324Y1782D01*
X322Y1782D01*
X322Y1790D01*
X320Y1790D01*
X320Y1810D01*
X322Y1810D01*
X322Y1820D01*
X324Y1820D01*
X324Y1826D01*
X326Y1826D01*
X326Y1830D01*
X328Y1830D01*
X328Y1834D01*
X330Y1834D01*
X330Y1838D01*
X332Y1838D01*
X332Y1840D01*
X334Y1840D01*
X334Y1842D01*
X336Y1842D01*
X336Y1846D01*
X338Y1846D01*
X338Y1848D01*
X340Y1848D01*
X340Y1850D01*
X342Y1850D01*
X342Y1852D01*
X344Y1852D01*
X344Y1854D01*
X348Y1854D01*
X348Y1856D01*
X350Y1856D01*
X350Y1858D01*
X354Y1858D01*
X354Y1860D01*
X356Y1860D01*
X356Y1862D01*
X360Y1862D01*
X360Y1864D01*
X364Y1864D01*
X364Y1866D01*
X372Y1866D01*
X372Y1868D01*
X382Y1868D01*
X382Y1870D01*
X40Y1870D01*
G37*
D02*
G36*
X1214Y1526D02*
X1214Y1524D01*
X1212Y1524D01*
X1212Y1522D01*
X1210Y1522D01*
X1210Y1520D01*
X1206Y1520D01*
X1206Y1518D01*
X1204Y1518D01*
X1204Y1516D01*
X1202Y1516D01*
X1202Y1514D01*
X1200Y1514D01*
X1200Y1512D01*
X1196Y1512D01*
X1196Y1510D01*
X1194Y1510D01*
X1194Y1508D01*
X1192Y1508D01*
X1192Y1506D01*
X1190Y1506D01*
X1190Y1504D01*
X1188Y1504D01*
X1188Y1502D01*
X1184Y1502D01*
X1184Y1500D01*
X1182Y1500D01*
X1182Y1498D01*
X1180Y1498D01*
X1180Y1496D01*
X1178Y1496D01*
X1178Y1494D01*
X1174Y1494D01*
X1174Y1492D01*
X1172Y1492D01*
X1172Y1490D01*
X1170Y1490D01*
X1170Y1488D01*
X1168Y1488D01*
X1168Y1486D01*
X1166Y1486D01*
X1166Y1484D01*
X1162Y1484D01*
X1162Y1482D01*
X1160Y1482D01*
X1160Y1480D01*
X1158Y1480D01*
X1158Y1478D01*
X1156Y1478D01*
X1156Y1476D01*
X1152Y1476D01*
X1152Y1474D01*
X1150Y1474D01*
X1150Y1472D01*
X1148Y1472D01*
X1148Y1470D01*
X1146Y1470D01*
X1146Y1468D01*
X1144Y1468D01*
X1144Y1466D01*
X1140Y1466D01*
X1140Y1464D01*
X1138Y1464D01*
X1138Y1462D01*
X1136Y1462D01*
X1136Y1460D01*
X1134Y1460D01*
X1134Y1458D01*
X1130Y1458D01*
X1130Y1456D01*
X1128Y1456D01*
X1128Y1454D01*
X1126Y1454D01*
X1126Y1452D01*
X1124Y1452D01*
X1124Y1450D01*
X1122Y1450D01*
X1122Y1448D01*
X1118Y1448D01*
X1118Y1446D01*
X1116Y1446D01*
X1116Y1444D01*
X1114Y1444D01*
X1114Y1442D01*
X1112Y1442D01*
X1112Y1440D01*
X1108Y1440D01*
X1108Y1438D01*
X1106Y1438D01*
X1106Y1436D01*
X1104Y1436D01*
X1104Y1434D01*
X1102Y1434D01*
X1102Y1432D01*
X1100Y1432D01*
X1100Y1430D01*
X1096Y1430D01*
X1096Y1428D01*
X1094Y1428D01*
X1094Y1426D01*
X1092Y1426D01*
X1092Y1424D01*
X1090Y1424D01*
X1090Y1422D01*
X1086Y1422D01*
X1086Y1420D01*
X1084Y1420D01*
X1084Y1418D01*
X1082Y1418D01*
X1082Y1416D01*
X1080Y1416D01*
X1080Y1414D01*
X1078Y1414D01*
X1078Y1412D01*
X1074Y1412D01*
X1074Y1410D01*
X1072Y1410D01*
X1072Y1408D01*
X1070Y1408D01*
X1070Y1406D01*
X1068Y1406D01*
X1068Y1404D01*
X1064Y1404D01*
X1064Y1402D01*
X1062Y1402D01*
X1062Y1400D01*
X1060Y1400D01*
X1060Y1398D01*
X1058Y1398D01*
X1058Y1396D01*
X1056Y1396D01*
X1056Y1394D01*
X1052Y1394D01*
X1052Y1392D01*
X1050Y1392D01*
X1050Y1390D01*
X1048Y1390D01*
X1048Y1388D01*
X1046Y1388D01*
X1046Y1378D01*
X1044Y1378D01*
X1044Y1370D01*
X1042Y1370D01*
X1042Y1366D01*
X1040Y1366D01*
X1040Y1362D01*
X1038Y1362D01*
X1038Y1358D01*
X1036Y1358D01*
X1036Y1354D01*
X1034Y1354D01*
X1034Y1352D01*
X1032Y1352D01*
X1032Y1350D01*
X1030Y1350D01*
X1030Y1346D01*
X1028Y1346D01*
X1028Y1344D01*
X1026Y1344D01*
X1026Y1342D01*
X1022Y1342D01*
X1022Y1340D01*
X1020Y1340D01*
X1020Y1338D01*
X1018Y1338D01*
X1018Y1336D01*
X1014Y1336D01*
X1014Y1334D01*
X1012Y1334D01*
X1012Y1332D01*
X1008Y1332D01*
X1008Y1330D01*
X1002Y1330D01*
X1002Y1328D01*
X996Y1328D01*
X996Y1326D01*
X984Y1326D01*
X984Y1324D01*
X1346Y1324D01*
X1346Y1346D01*
X1348Y1346D01*
X1348Y1354D01*
X1350Y1354D01*
X1350Y1360D01*
X1352Y1360D01*
X1352Y1364D01*
X1354Y1364D01*
X1354Y1368D01*
X1356Y1368D01*
X1356Y1370D01*
X1358Y1370D01*
X1358Y1374D01*
X1360Y1374D01*
X1360Y1376D01*
X1362Y1376D01*
X1362Y1378D01*
X1364Y1378D01*
X1364Y1432D01*
X1362Y1432D01*
X1362Y1444D01*
X1360Y1444D01*
X1360Y1448D01*
X1358Y1448D01*
X1358Y1450D01*
X1356Y1450D01*
X1356Y1452D01*
X1354Y1452D01*
X1354Y1456D01*
X1352Y1456D01*
X1352Y1458D01*
X1350Y1458D01*
X1350Y1462D01*
X1348Y1462D01*
X1348Y1466D01*
X1346Y1466D01*
X1346Y1472D01*
X1344Y1472D01*
X1344Y1478D01*
X1342Y1478D01*
X1342Y1506D01*
X1344Y1506D01*
X1344Y1526D01*
X1214Y1526D01*
G37*
D02*
G36*
X434Y1460D02*
X434Y1356D01*
X432Y1356D01*
X432Y1246D01*
X430Y1246D01*
X430Y1134D01*
X428Y1134D01*
X428Y1024D01*
X426Y1024D01*
X426Y970D01*
X428Y970D01*
X428Y968D01*
X430Y968D01*
X430Y966D01*
X432Y966D01*
X432Y962D01*
X434Y962D01*
X434Y960D01*
X436Y960D01*
X436Y956D01*
X438Y956D01*
X438Y954D01*
X440Y954D01*
X440Y950D01*
X442Y950D01*
X442Y944D01*
X444Y944D01*
X444Y936D01*
X446Y936D01*
X446Y908D01*
X444Y908D01*
X444Y900D01*
X442Y900D01*
X442Y896D01*
X440Y896D01*
X440Y892D01*
X438Y892D01*
X438Y888D01*
X436Y888D01*
X436Y884D01*
X434Y884D01*
X434Y882D01*
X432Y882D01*
X432Y880D01*
X430Y880D01*
X430Y876D01*
X428Y876D01*
X428Y874D01*
X426Y874D01*
X426Y872D01*
X422Y872D01*
X422Y870D01*
X420Y870D01*
X420Y868D01*
X418Y868D01*
X418Y866D01*
X414Y866D01*
X414Y864D01*
X412Y864D01*
X412Y862D01*
X408Y862D01*
X408Y860D01*
X402Y860D01*
X402Y858D01*
X396Y858D01*
X396Y856D01*
X384Y856D01*
X384Y854D01*
X630Y854D01*
X630Y878D01*
X628Y878D01*
X628Y880D01*
X626Y880D01*
X626Y882D01*
X624Y882D01*
X624Y886D01*
X622Y886D01*
X622Y888D01*
X620Y888D01*
X620Y892D01*
X618Y892D01*
X618Y896D01*
X616Y896D01*
X616Y902D01*
X614Y902D01*
X614Y908D01*
X612Y908D01*
X612Y936D01*
X614Y936D01*
X614Y944D01*
X616Y944D01*
X616Y948D01*
X618Y948D01*
X618Y952D01*
X620Y952D01*
X620Y956D01*
X622Y956D01*
X622Y960D01*
X624Y960D01*
X624Y962D01*
X626Y962D01*
X626Y964D01*
X628Y964D01*
X628Y968D01*
X630Y968D01*
X630Y970D01*
X632Y970D01*
X632Y972D01*
X634Y972D01*
X634Y1344D01*
X630Y1344D01*
X630Y1348D01*
X628Y1348D01*
X628Y1350D01*
X626Y1350D01*
X626Y1352D01*
X624Y1352D01*
X624Y1356D01*
X622Y1356D01*
X622Y1358D01*
X620Y1358D01*
X620Y1362D01*
X618Y1362D01*
X618Y1366D01*
X616Y1366D01*
X616Y1372D01*
X614Y1372D01*
X614Y1378D01*
X612Y1378D01*
X612Y1406D01*
X614Y1406D01*
X614Y1414D01*
X616Y1414D01*
X616Y1418D01*
X618Y1418D01*
X618Y1422D01*
X620Y1422D01*
X620Y1426D01*
X622Y1426D01*
X622Y1430D01*
X624Y1430D01*
X624Y1432D01*
X626Y1432D01*
X626Y1434D01*
X628Y1434D01*
X628Y1438D01*
X630Y1438D01*
X630Y1440D01*
X632Y1440D01*
X632Y1442D01*
X634Y1442D01*
X634Y1444D01*
X638Y1444D01*
X638Y1446D01*
X640Y1446D01*
X640Y1448D01*
X642Y1448D01*
X642Y1450D01*
X646Y1450D01*
X646Y1452D01*
X650Y1452D01*
X650Y1454D01*
X654Y1454D01*
X654Y1456D01*
X660Y1456D01*
X660Y1458D01*
X670Y1458D01*
X670Y1460D01*
X434Y1460D01*
G37*
D02*
G36*
X3032Y1428D02*
X3032Y1426D01*
X2410Y1426D01*
X2410Y1404D01*
X2412Y1404D01*
X2412Y1400D01*
X2414Y1400D01*
X2414Y1394D01*
X2416Y1394D01*
X2416Y1388D01*
X2418Y1388D01*
X2418Y1356D01*
X2416Y1356D01*
X2416Y1350D01*
X2414Y1350D01*
X2414Y1344D01*
X2412Y1344D01*
X2412Y1340D01*
X2410Y1340D01*
X2410Y1338D01*
X2408Y1338D01*
X2408Y1334D01*
X2406Y1334D01*
X2406Y1310D01*
X2408Y1310D01*
X2408Y1308D01*
X2410Y1308D01*
X2410Y1304D01*
X2412Y1304D01*
X2412Y1300D01*
X2414Y1300D01*
X2414Y1294D01*
X2416Y1294D01*
X2416Y1288D01*
X2418Y1288D01*
X2418Y1256D01*
X2416Y1256D01*
X2416Y1250D01*
X2414Y1250D01*
X2414Y1244D01*
X2412Y1244D01*
X2412Y1240D01*
X2410Y1240D01*
X2410Y1238D01*
X2408Y1238D01*
X2408Y1234D01*
X2406Y1234D01*
X2406Y1230D01*
X2404Y1230D01*
X2404Y1228D01*
X2402Y1228D01*
X2402Y1226D01*
X2400Y1226D01*
X2400Y1224D01*
X2398Y1224D01*
X2398Y1222D01*
X2396Y1222D01*
X2396Y1220D01*
X2394Y1220D01*
X2394Y1218D01*
X2392Y1218D01*
X2392Y1216D01*
X2388Y1216D01*
X2388Y1214D01*
X2386Y1214D01*
X2386Y1212D01*
X2382Y1212D01*
X2382Y1210D01*
X2378Y1210D01*
X2378Y1208D01*
X2374Y1208D01*
X2374Y1206D01*
X2366Y1206D01*
X2366Y1204D01*
X2356Y1204D01*
X2356Y1202D01*
X3122Y1202D01*
X3122Y1376D01*
X3120Y1376D01*
X3120Y1378D01*
X3118Y1378D01*
X3118Y1380D01*
X3116Y1380D01*
X3116Y1382D01*
X3114Y1382D01*
X3114Y1384D01*
X3112Y1384D01*
X3112Y1386D01*
X3110Y1386D01*
X3110Y1388D01*
X3108Y1388D01*
X3108Y1390D01*
X3106Y1390D01*
X3106Y1392D01*
X3104Y1392D01*
X3104Y1394D01*
X3102Y1394D01*
X3102Y1396D01*
X3100Y1396D01*
X3100Y1398D01*
X3098Y1398D01*
X3098Y1400D01*
X3096Y1400D01*
X3096Y1402D01*
X3094Y1402D01*
X3094Y1404D01*
X3092Y1404D01*
X3092Y1406D01*
X3090Y1406D01*
X3090Y1408D01*
X3088Y1408D01*
X3088Y1410D01*
X3086Y1410D01*
X3086Y1412D01*
X3084Y1412D01*
X3084Y1414D01*
X3082Y1414D01*
X3082Y1416D01*
X3080Y1416D01*
X3080Y1418D01*
X3078Y1418D01*
X3078Y1420D01*
X3076Y1420D01*
X3076Y1422D01*
X3074Y1422D01*
X3074Y1424D01*
X3072Y1424D01*
X3072Y1426D01*
X3070Y1426D01*
X3070Y1428D01*
X3032Y1428D01*
G37*
D02*
G36*
X1456Y1400D02*
X1456Y1388D01*
X1476Y1388D01*
X1476Y1390D01*
X1478Y1390D01*
X1478Y1392D01*
X1482Y1392D01*
X1482Y1394D01*
X1486Y1394D01*
X1486Y1396D01*
X1492Y1396D01*
X1492Y1398D01*
X1498Y1398D01*
X1498Y1400D01*
X1456Y1400D01*
G37*
D02*
G36*
X1528Y1400D02*
X1528Y1398D01*
X1536Y1398D01*
X1536Y1396D01*
X1540Y1396D01*
X1540Y1394D01*
X1544Y1394D01*
X1544Y1392D01*
X1548Y1392D01*
X1548Y1390D01*
X1550Y1390D01*
X1550Y1388D01*
X1576Y1388D01*
X1576Y1390D01*
X1578Y1390D01*
X1578Y1392D01*
X1582Y1392D01*
X1582Y1394D01*
X1586Y1394D01*
X1586Y1396D01*
X1592Y1396D01*
X1592Y1398D01*
X1598Y1398D01*
X1598Y1400D01*
X1528Y1400D01*
G37*
D02*
G36*
X924Y1336D02*
X924Y1324D01*
X976Y1324D01*
X976Y1326D01*
X962Y1326D01*
X962Y1328D01*
X956Y1328D01*
X956Y1330D01*
X952Y1330D01*
X952Y1332D01*
X948Y1332D01*
X948Y1334D01*
X944Y1334D01*
X944Y1336D01*
X924Y1336D01*
G37*
D02*
G36*
X924Y1324D02*
X924Y1322D01*
X1346Y1322D01*
X1346Y1324D01*
X924Y1324D01*
G37*
D02*
G36*
X924Y1324D02*
X924Y1322D01*
X1346Y1322D01*
X1346Y1324D01*
X924Y1324D01*
G37*
D02*
G36*
X924Y1322D02*
X924Y1266D01*
X1400Y1266D01*
X1400Y1268D01*
X1392Y1268D01*
X1392Y1270D01*
X1388Y1270D01*
X1388Y1272D01*
X1384Y1272D01*
X1384Y1274D01*
X1380Y1274D01*
X1380Y1276D01*
X1376Y1276D01*
X1376Y1278D01*
X1374Y1278D01*
X1374Y1280D01*
X1370Y1280D01*
X1370Y1282D01*
X1368Y1282D01*
X1368Y1284D01*
X1366Y1284D01*
X1366Y1286D01*
X1364Y1286D01*
X1364Y1288D01*
X1362Y1288D01*
X1362Y1290D01*
X1360Y1290D01*
X1360Y1294D01*
X1358Y1294D01*
X1358Y1296D01*
X1356Y1296D01*
X1356Y1300D01*
X1354Y1300D01*
X1354Y1302D01*
X1352Y1302D01*
X1352Y1306D01*
X1350Y1306D01*
X1350Y1312D01*
X1348Y1312D01*
X1348Y1320D01*
X1346Y1320D01*
X1346Y1322D01*
X924Y1322D01*
G37*
D02*
G36*
X1446Y1276D02*
X1446Y1274D01*
X1444Y1274D01*
X1444Y1272D01*
X1440Y1272D01*
X1440Y1270D01*
X1434Y1270D01*
X1434Y1268D01*
X1426Y1268D01*
X1426Y1266D01*
X1470Y1266D01*
X1470Y1270D01*
X1468Y1270D01*
X1468Y1276D01*
X1446Y1276D01*
G37*
D02*
G36*
X1562Y1274D02*
X1562Y1266D01*
X1600Y1266D01*
X1600Y1268D01*
X1592Y1268D01*
X1592Y1270D01*
X1588Y1270D01*
X1588Y1272D01*
X1584Y1272D01*
X1584Y1274D01*
X1562Y1274D01*
G37*
D02*
G36*
X924Y1266D02*
X924Y1264D01*
X1470Y1264D01*
X1470Y1266D01*
X924Y1266D01*
G37*
D02*
G36*
X924Y1266D02*
X924Y1264D01*
X1470Y1264D01*
X1470Y1266D01*
X924Y1266D01*
G37*
D02*
G36*
X1562Y1266D02*
X1562Y1264D01*
X2280Y1264D01*
X2280Y1266D01*
X1562Y1266D01*
G37*
D02*
G36*
X1562Y1266D02*
X1562Y1264D01*
X2280Y1264D01*
X2280Y1266D01*
X1562Y1266D01*
G37*
D02*
G36*
X924Y1264D02*
X924Y1262D01*
X926Y1262D01*
X926Y1260D01*
X928Y1260D01*
X928Y1258D01*
X930Y1258D01*
X930Y1256D01*
X932Y1256D01*
X932Y1252D01*
X934Y1252D01*
X934Y1250D01*
X936Y1250D01*
X936Y1246D01*
X938Y1246D01*
X938Y1244D01*
X940Y1244D01*
X940Y1240D01*
X942Y1240D01*
X942Y1234D01*
X944Y1234D01*
X944Y1226D01*
X946Y1226D01*
X946Y1198D01*
X944Y1198D01*
X944Y1190D01*
X942Y1190D01*
X942Y1186D01*
X940Y1186D01*
X940Y1182D01*
X938Y1182D01*
X938Y1178D01*
X936Y1178D01*
X936Y1174D01*
X934Y1174D01*
X934Y1172D01*
X932Y1172D01*
X932Y1170D01*
X930Y1170D01*
X930Y1166D01*
X928Y1166D01*
X928Y1164D01*
X926Y1164D01*
X926Y1162D01*
X922Y1162D01*
X922Y1160D01*
X920Y1160D01*
X920Y1158D01*
X918Y1158D01*
X918Y1156D01*
X914Y1156D01*
X914Y1154D01*
X912Y1154D01*
X912Y1152D01*
X908Y1152D01*
X908Y1150D01*
X902Y1150D01*
X902Y1148D01*
X896Y1148D01*
X896Y1146D01*
X884Y1146D01*
X884Y1144D01*
X1452Y1144D01*
X1452Y1146D01*
X1454Y1146D01*
X1454Y1154D01*
X1456Y1154D01*
X1456Y1158D01*
X1458Y1158D01*
X1458Y1162D01*
X1460Y1162D01*
X1460Y1166D01*
X1462Y1166D01*
X1462Y1170D01*
X1464Y1170D01*
X1464Y1172D01*
X1466Y1172D01*
X1466Y1174D01*
X1468Y1174D01*
X1468Y1178D01*
X1470Y1178D01*
X1470Y1180D01*
X1472Y1180D01*
X1472Y1202D01*
X1470Y1202D01*
X1470Y1264D01*
X924Y1264D01*
G37*
D02*
G36*
X1562Y1264D02*
X1562Y1204D01*
X1564Y1204D01*
X1564Y1202D01*
X2342Y1202D01*
X2342Y1204D01*
X2332Y1204D01*
X2332Y1206D01*
X2324Y1206D01*
X2324Y1208D01*
X2320Y1208D01*
X2320Y1210D01*
X2316Y1210D01*
X2316Y1212D01*
X2312Y1212D01*
X2312Y1214D01*
X2310Y1214D01*
X2310Y1216D01*
X2308Y1216D01*
X2308Y1218D01*
X2304Y1218D01*
X2304Y1220D01*
X2302Y1220D01*
X2302Y1222D01*
X2300Y1222D01*
X2300Y1224D01*
X2298Y1224D01*
X2298Y1226D01*
X2296Y1226D01*
X2296Y1228D01*
X2294Y1228D01*
X2294Y1232D01*
X2292Y1232D01*
X2292Y1234D01*
X2290Y1234D01*
X2290Y1238D01*
X2288Y1238D01*
X2288Y1242D01*
X2286Y1242D01*
X2286Y1246D01*
X2284Y1246D01*
X2284Y1250D01*
X2282Y1250D01*
X2282Y1258D01*
X2280Y1258D01*
X2280Y1264D01*
X1562Y1264D01*
G37*
D02*
G36*
X1564Y1202D02*
X1564Y1200D01*
X3122Y1200D01*
X3122Y1202D01*
X1564Y1202D01*
G37*
D02*
G36*
X1564Y1202D02*
X1564Y1200D01*
X3122Y1200D01*
X3122Y1202D01*
X1564Y1202D01*
G37*
D02*
G36*
X1564Y1200D02*
X1564Y1182D01*
X1566Y1182D01*
X1566Y1180D01*
X1568Y1180D01*
X1568Y1178D01*
X1570Y1178D01*
X1570Y1176D01*
X1572Y1176D01*
X1572Y1172D01*
X1574Y1172D01*
X1574Y1170D01*
X1576Y1170D01*
X1576Y1166D01*
X1578Y1166D01*
X1578Y1164D01*
X1580Y1164D01*
X1580Y1160D01*
X1582Y1160D01*
X1582Y1154D01*
X1584Y1154D01*
X1584Y1146D01*
X1586Y1146D01*
X1586Y1118D01*
X1584Y1118D01*
X1584Y1110D01*
X1582Y1110D01*
X1582Y1106D01*
X1580Y1106D01*
X1580Y1102D01*
X1578Y1102D01*
X1578Y1098D01*
X1576Y1098D01*
X1576Y1094D01*
X1574Y1094D01*
X1574Y1092D01*
X1572Y1092D01*
X1572Y1090D01*
X1570Y1090D01*
X1570Y1086D01*
X1568Y1086D01*
X1568Y1084D01*
X1566Y1084D01*
X1566Y1082D01*
X1562Y1082D01*
X1562Y1080D01*
X1560Y1080D01*
X1560Y1078D01*
X1558Y1078D01*
X1558Y1076D01*
X1554Y1076D01*
X1554Y1074D01*
X1552Y1074D01*
X1552Y1072D01*
X1548Y1072D01*
X1548Y1070D01*
X1542Y1070D01*
X1542Y1068D01*
X1536Y1068D01*
X1536Y1066D01*
X1524Y1066D01*
X1524Y1064D01*
X1816Y1064D01*
X1816Y1066D01*
X1802Y1066D01*
X1802Y1068D01*
X1796Y1068D01*
X1796Y1070D01*
X1792Y1070D01*
X1792Y1072D01*
X1788Y1072D01*
X1788Y1074D01*
X1784Y1074D01*
X1784Y1076D01*
X1780Y1076D01*
X1780Y1078D01*
X1778Y1078D01*
X1778Y1080D01*
X1776Y1080D01*
X1776Y1082D01*
X1774Y1082D01*
X1774Y1084D01*
X1770Y1084D01*
X1770Y1088D01*
X1768Y1088D01*
X1768Y1090D01*
X1766Y1090D01*
X1766Y1092D01*
X1764Y1092D01*
X1764Y1096D01*
X1762Y1096D01*
X1762Y1098D01*
X1760Y1098D01*
X1760Y1102D01*
X1758Y1102D01*
X1758Y1106D01*
X1756Y1106D01*
X1756Y1112D01*
X1754Y1112D01*
X1754Y1118D01*
X1752Y1118D01*
X1752Y1146D01*
X1754Y1146D01*
X1754Y1154D01*
X1756Y1154D01*
X1756Y1158D01*
X1758Y1158D01*
X1758Y1162D01*
X1760Y1162D01*
X1760Y1166D01*
X1762Y1166D01*
X1762Y1170D01*
X1764Y1170D01*
X1764Y1172D01*
X1766Y1172D01*
X1766Y1174D01*
X1768Y1174D01*
X1768Y1178D01*
X1770Y1178D01*
X1770Y1180D01*
X1772Y1180D01*
X1772Y1182D01*
X1774Y1182D01*
X1774Y1184D01*
X1778Y1184D01*
X1778Y1186D01*
X1780Y1186D01*
X1780Y1188D01*
X1782Y1188D01*
X1782Y1190D01*
X1786Y1190D01*
X1786Y1192D01*
X1790Y1192D01*
X1790Y1194D01*
X1794Y1194D01*
X1794Y1196D01*
X1800Y1196D01*
X1800Y1198D01*
X1810Y1198D01*
X1810Y1200D01*
X1564Y1200D01*
G37*
D02*
G36*
X1828Y1200D02*
X1828Y1198D01*
X1838Y1198D01*
X1838Y1196D01*
X1844Y1196D01*
X1844Y1194D01*
X1848Y1194D01*
X1848Y1192D01*
X1852Y1192D01*
X1852Y1190D01*
X1856Y1190D01*
X1856Y1188D01*
X1858Y1188D01*
X1858Y1186D01*
X1862Y1186D01*
X1862Y1184D01*
X1864Y1184D01*
X1864Y1182D01*
X1866Y1182D01*
X1866Y1180D01*
X1964Y1180D01*
X1964Y1178D01*
X1974Y1178D01*
X1974Y1176D01*
X1978Y1176D01*
X1978Y1174D01*
X1982Y1174D01*
X1982Y1172D01*
X1986Y1172D01*
X1986Y1170D01*
X1988Y1170D01*
X1988Y1168D01*
X1990Y1168D01*
X1990Y1166D01*
X1992Y1166D01*
X1992Y1164D01*
X1994Y1164D01*
X1994Y1162D01*
X1996Y1162D01*
X1996Y1160D01*
X1998Y1160D01*
X1998Y1158D01*
X2000Y1158D01*
X2000Y1156D01*
X2002Y1156D01*
X2002Y1154D01*
X2004Y1154D01*
X2004Y1152D01*
X2006Y1152D01*
X2006Y1150D01*
X2008Y1150D01*
X2008Y1148D01*
X2010Y1148D01*
X2010Y1146D01*
X2012Y1146D01*
X2012Y1144D01*
X2014Y1144D01*
X2014Y1142D01*
X2016Y1142D01*
X2016Y1140D01*
X2018Y1140D01*
X2018Y1138D01*
X2020Y1138D01*
X2020Y1136D01*
X2022Y1136D01*
X2022Y1132D01*
X2024Y1132D01*
X2024Y1130D01*
X2026Y1130D01*
X2026Y1128D01*
X2028Y1128D01*
X2028Y1126D01*
X2030Y1126D01*
X2030Y1124D01*
X2032Y1124D01*
X2032Y1122D01*
X2034Y1122D01*
X2034Y1120D01*
X2036Y1120D01*
X2036Y1116D01*
X2038Y1116D01*
X2038Y1112D01*
X2040Y1112D01*
X2040Y1108D01*
X2042Y1108D01*
X2042Y1102D01*
X2044Y1102D01*
X2044Y998D01*
X2904Y998D01*
X2904Y996D01*
X2916Y996D01*
X2916Y994D01*
X2922Y994D01*
X2922Y992D01*
X2926Y992D01*
X2926Y990D01*
X2930Y990D01*
X2930Y988D01*
X3054Y988D01*
X3054Y986D01*
X3070Y986D01*
X3070Y984D01*
X3078Y984D01*
X3078Y982D01*
X3084Y982D01*
X3084Y980D01*
X3090Y980D01*
X3090Y978D01*
X3094Y978D01*
X3094Y976D01*
X3098Y976D01*
X3098Y974D01*
X3102Y974D01*
X3102Y972D01*
X3122Y972D01*
X3122Y1200D01*
X1828Y1200D01*
G37*
D02*
G36*
X1868Y1180D02*
X1868Y1178D01*
X1928Y1178D01*
X1928Y1180D01*
X1868Y1180D01*
G37*
D02*
G36*
X726Y1144D02*
X726Y1142D01*
X1452Y1142D01*
X1452Y1144D01*
X726Y1144D01*
G37*
D02*
G36*
X726Y1144D02*
X726Y1142D01*
X1452Y1142D01*
X1452Y1144D01*
X726Y1144D01*
G37*
D02*
G36*
X726Y1142D02*
X726Y1064D01*
X1516Y1064D01*
X1516Y1066D01*
X1502Y1066D01*
X1502Y1068D01*
X1496Y1068D01*
X1496Y1070D01*
X1492Y1070D01*
X1492Y1072D01*
X1488Y1072D01*
X1488Y1074D01*
X1484Y1074D01*
X1484Y1076D01*
X1480Y1076D01*
X1480Y1078D01*
X1478Y1078D01*
X1478Y1080D01*
X1476Y1080D01*
X1476Y1082D01*
X1474Y1082D01*
X1474Y1084D01*
X1470Y1084D01*
X1470Y1088D01*
X1468Y1088D01*
X1468Y1090D01*
X1466Y1090D01*
X1466Y1092D01*
X1464Y1092D01*
X1464Y1096D01*
X1462Y1096D01*
X1462Y1098D01*
X1460Y1098D01*
X1460Y1102D01*
X1458Y1102D01*
X1458Y1106D01*
X1456Y1106D01*
X1456Y1112D01*
X1454Y1112D01*
X1454Y1118D01*
X1452Y1118D01*
X1452Y1142D01*
X726Y1142D01*
G37*
D02*
G36*
X1868Y1086D02*
X1868Y1084D01*
X1866Y1084D01*
X1866Y1082D01*
X1862Y1082D01*
X1862Y1080D01*
X1860Y1080D01*
X1860Y1078D01*
X1858Y1078D01*
X1858Y1076D01*
X1854Y1076D01*
X1854Y1074D01*
X1852Y1074D01*
X1852Y1072D01*
X1848Y1072D01*
X1848Y1070D01*
X1842Y1070D01*
X1842Y1068D01*
X1836Y1068D01*
X1836Y1066D01*
X1824Y1066D01*
X1824Y1064D01*
X1952Y1064D01*
X1952Y1076D01*
X1950Y1076D01*
X1950Y1078D01*
X1948Y1078D01*
X1948Y1080D01*
X1946Y1080D01*
X1946Y1082D01*
X1944Y1082D01*
X1944Y1084D01*
X1942Y1084D01*
X1942Y1086D01*
X1868Y1086D01*
G37*
D02*
G36*
X726Y1064D02*
X726Y1062D01*
X1952Y1062D01*
X1952Y1064D01*
X726Y1064D01*
G37*
D02*
G36*
X726Y1064D02*
X726Y1062D01*
X1952Y1062D01*
X1952Y1064D01*
X726Y1064D01*
G37*
D02*
G36*
X726Y1064D02*
X726Y1062D01*
X1952Y1062D01*
X1952Y1064D01*
X726Y1064D01*
G37*
D02*
G36*
X726Y1062D02*
X726Y998D01*
X1904Y998D01*
X1904Y996D01*
X1916Y996D01*
X1916Y994D01*
X1922Y994D01*
X1922Y992D01*
X1926Y992D01*
X1926Y990D01*
X1930Y990D01*
X1930Y988D01*
X1952Y988D01*
X1952Y1062D01*
X726Y1062D01*
G37*
D02*
G36*
X726Y998D02*
X726Y980D01*
X1018Y980D01*
X1018Y978D01*
X1028Y978D01*
X1028Y976D01*
X1034Y976D01*
X1034Y974D01*
X1038Y974D01*
X1038Y972D01*
X1042Y972D01*
X1042Y970D01*
X1046Y970D01*
X1046Y968D01*
X1048Y968D01*
X1048Y966D01*
X1052Y966D01*
X1052Y964D01*
X1054Y964D01*
X1054Y962D01*
X1056Y962D01*
X1056Y960D01*
X1058Y960D01*
X1058Y958D01*
X1060Y958D01*
X1060Y956D01*
X1062Y956D01*
X1062Y952D01*
X1064Y952D01*
X1064Y950D01*
X1066Y950D01*
X1066Y946D01*
X1068Y946D01*
X1068Y944D01*
X1070Y944D01*
X1070Y940D01*
X1072Y940D01*
X1072Y934D01*
X1074Y934D01*
X1074Y926D01*
X1076Y926D01*
X1076Y898D01*
X1074Y898D01*
X1074Y890D01*
X1072Y890D01*
X1072Y886D01*
X1070Y886D01*
X1070Y882D01*
X1068Y882D01*
X1068Y878D01*
X1066Y878D01*
X1066Y874D01*
X1064Y874D01*
X1064Y872D01*
X1062Y872D01*
X1062Y870D01*
X1060Y870D01*
X1060Y868D01*
X1384Y868D01*
X1384Y870D01*
X1378Y870D01*
X1378Y872D01*
X1372Y872D01*
X1372Y874D01*
X1368Y874D01*
X1368Y876D01*
X1366Y876D01*
X1366Y878D01*
X1362Y878D01*
X1362Y880D01*
X1360Y880D01*
X1360Y882D01*
X1356Y882D01*
X1356Y884D01*
X1354Y884D01*
X1354Y886D01*
X1352Y886D01*
X1352Y888D01*
X1350Y888D01*
X1350Y892D01*
X1348Y892D01*
X1348Y894D01*
X1346Y894D01*
X1346Y896D01*
X1344Y896D01*
X1344Y900D01*
X1342Y900D01*
X1342Y904D01*
X1340Y904D01*
X1340Y908D01*
X1338Y908D01*
X1338Y914D01*
X1336Y914D01*
X1336Y922D01*
X1334Y922D01*
X1334Y942D01*
X1336Y942D01*
X1336Y952D01*
X1338Y952D01*
X1338Y956D01*
X1340Y956D01*
X1340Y962D01*
X1342Y962D01*
X1342Y964D01*
X1344Y964D01*
X1344Y968D01*
X1346Y968D01*
X1346Y970D01*
X1348Y970D01*
X1348Y974D01*
X1350Y974D01*
X1350Y976D01*
X1352Y976D01*
X1352Y978D01*
X1354Y978D01*
X1354Y980D01*
X1356Y980D01*
X1356Y982D01*
X1358Y982D01*
X1358Y984D01*
X1362Y984D01*
X1362Y986D01*
X1364Y986D01*
X1364Y988D01*
X1368Y988D01*
X1368Y990D01*
X1372Y990D01*
X1372Y992D01*
X1376Y992D01*
X1376Y994D01*
X1382Y994D01*
X1382Y996D01*
X1394Y996D01*
X1394Y998D01*
X726Y998D01*
G37*
D02*
G36*
X1404Y998D02*
X1404Y996D01*
X1416Y996D01*
X1416Y994D01*
X1422Y994D01*
X1422Y992D01*
X1426Y992D01*
X1426Y990D01*
X1430Y990D01*
X1430Y988D01*
X1434Y988D01*
X1434Y986D01*
X1436Y986D01*
X1436Y984D01*
X1462Y984D01*
X1462Y986D01*
X1464Y986D01*
X1464Y988D01*
X1468Y988D01*
X1468Y990D01*
X1472Y990D01*
X1472Y992D01*
X1476Y992D01*
X1476Y994D01*
X1482Y994D01*
X1482Y996D01*
X1494Y996D01*
X1494Y998D01*
X1404Y998D01*
G37*
D02*
G36*
X1504Y998D02*
X1504Y996D01*
X1516Y996D01*
X1516Y994D01*
X1522Y994D01*
X1522Y992D01*
X1526Y992D01*
X1526Y990D01*
X1530Y990D01*
X1530Y988D01*
X1534Y988D01*
X1534Y986D01*
X1536Y986D01*
X1536Y984D01*
X1562Y984D01*
X1562Y986D01*
X1564Y986D01*
X1564Y988D01*
X1568Y988D01*
X1568Y990D01*
X1572Y990D01*
X1572Y992D01*
X1576Y992D01*
X1576Y994D01*
X1582Y994D01*
X1582Y996D01*
X1594Y996D01*
X1594Y998D01*
X1504Y998D01*
G37*
D02*
G36*
X1604Y998D02*
X1604Y996D01*
X1616Y996D01*
X1616Y994D01*
X1622Y994D01*
X1622Y992D01*
X1626Y992D01*
X1626Y990D01*
X1630Y990D01*
X1630Y988D01*
X1634Y988D01*
X1634Y986D01*
X1636Y986D01*
X1636Y984D01*
X1662Y984D01*
X1662Y986D01*
X1664Y986D01*
X1664Y988D01*
X1668Y988D01*
X1668Y990D01*
X1672Y990D01*
X1672Y992D01*
X1676Y992D01*
X1676Y994D01*
X1682Y994D01*
X1682Y996D01*
X1694Y996D01*
X1694Y998D01*
X1604Y998D01*
G37*
D02*
G36*
X1704Y998D02*
X1704Y996D01*
X1716Y996D01*
X1716Y994D01*
X1722Y994D01*
X1722Y992D01*
X1726Y992D01*
X1726Y990D01*
X1730Y990D01*
X1730Y988D01*
X1734Y988D01*
X1734Y986D01*
X1736Y986D01*
X1736Y984D01*
X1762Y984D01*
X1762Y986D01*
X1764Y986D01*
X1764Y988D01*
X1768Y988D01*
X1768Y990D01*
X1772Y990D01*
X1772Y992D01*
X1776Y992D01*
X1776Y994D01*
X1782Y994D01*
X1782Y996D01*
X1794Y996D01*
X1794Y998D01*
X1704Y998D01*
G37*
D02*
G36*
X1804Y998D02*
X1804Y996D01*
X1816Y996D01*
X1816Y994D01*
X1822Y994D01*
X1822Y992D01*
X1826Y992D01*
X1826Y990D01*
X1830Y990D01*
X1830Y988D01*
X1834Y988D01*
X1834Y986D01*
X1836Y986D01*
X1836Y984D01*
X1862Y984D01*
X1862Y986D01*
X1864Y986D01*
X1864Y988D01*
X1868Y988D01*
X1868Y990D01*
X1872Y990D01*
X1872Y992D01*
X1876Y992D01*
X1876Y994D01*
X1882Y994D01*
X1882Y996D01*
X1894Y996D01*
X1894Y998D01*
X1804Y998D01*
G37*
D02*
G36*
X2044Y998D02*
X2044Y986D01*
X2064Y986D01*
X2064Y988D01*
X2068Y988D01*
X2068Y990D01*
X2072Y990D01*
X2072Y992D01*
X2076Y992D01*
X2076Y994D01*
X2082Y994D01*
X2082Y996D01*
X2094Y996D01*
X2094Y998D01*
X2044Y998D01*
G37*
D02*
G36*
X2104Y998D02*
X2104Y996D01*
X2116Y996D01*
X2116Y994D01*
X2122Y994D01*
X2122Y992D01*
X2126Y992D01*
X2126Y990D01*
X2130Y990D01*
X2130Y988D01*
X2134Y988D01*
X2134Y986D01*
X2136Y986D01*
X2136Y984D01*
X2162Y984D01*
X2162Y986D01*
X2164Y986D01*
X2164Y988D01*
X2168Y988D01*
X2168Y990D01*
X2172Y990D01*
X2172Y992D01*
X2176Y992D01*
X2176Y994D01*
X2182Y994D01*
X2182Y996D01*
X2194Y996D01*
X2194Y998D01*
X2104Y998D01*
G37*
D02*
G36*
X2204Y998D02*
X2204Y996D01*
X2216Y996D01*
X2216Y994D01*
X2222Y994D01*
X2222Y992D01*
X2226Y992D01*
X2226Y990D01*
X2230Y990D01*
X2230Y988D01*
X2234Y988D01*
X2234Y986D01*
X2236Y986D01*
X2236Y984D01*
X2262Y984D01*
X2262Y986D01*
X2264Y986D01*
X2264Y988D01*
X2268Y988D01*
X2268Y990D01*
X2272Y990D01*
X2272Y992D01*
X2276Y992D01*
X2276Y994D01*
X2282Y994D01*
X2282Y996D01*
X2294Y996D01*
X2294Y998D01*
X2204Y998D01*
G37*
D02*
G36*
X2304Y998D02*
X2304Y996D01*
X2316Y996D01*
X2316Y994D01*
X2322Y994D01*
X2322Y992D01*
X2326Y992D01*
X2326Y990D01*
X2330Y990D01*
X2330Y988D01*
X2334Y988D01*
X2334Y986D01*
X2336Y986D01*
X2336Y984D01*
X2362Y984D01*
X2362Y986D01*
X2364Y986D01*
X2364Y988D01*
X2368Y988D01*
X2368Y990D01*
X2372Y990D01*
X2372Y992D01*
X2376Y992D01*
X2376Y994D01*
X2382Y994D01*
X2382Y996D01*
X2394Y996D01*
X2394Y998D01*
X2304Y998D01*
G37*
D02*
G36*
X2404Y998D02*
X2404Y996D01*
X2416Y996D01*
X2416Y994D01*
X2422Y994D01*
X2422Y992D01*
X2426Y992D01*
X2426Y990D01*
X2430Y990D01*
X2430Y988D01*
X2434Y988D01*
X2434Y986D01*
X2436Y986D01*
X2436Y984D01*
X2462Y984D01*
X2462Y986D01*
X2464Y986D01*
X2464Y988D01*
X2468Y988D01*
X2468Y990D01*
X2472Y990D01*
X2472Y992D01*
X2476Y992D01*
X2476Y994D01*
X2482Y994D01*
X2482Y996D01*
X2494Y996D01*
X2494Y998D01*
X2404Y998D01*
G37*
D02*
G36*
X2504Y998D02*
X2504Y996D01*
X2516Y996D01*
X2516Y994D01*
X2522Y994D01*
X2522Y992D01*
X2526Y992D01*
X2526Y990D01*
X2530Y990D01*
X2530Y988D01*
X2534Y988D01*
X2534Y986D01*
X2536Y986D01*
X2536Y984D01*
X2562Y984D01*
X2562Y986D01*
X2564Y986D01*
X2564Y988D01*
X2568Y988D01*
X2568Y990D01*
X2572Y990D01*
X2572Y992D01*
X2576Y992D01*
X2576Y994D01*
X2582Y994D01*
X2582Y996D01*
X2594Y996D01*
X2594Y998D01*
X2504Y998D01*
G37*
D02*
G36*
X2604Y998D02*
X2604Y996D01*
X2616Y996D01*
X2616Y994D01*
X2622Y994D01*
X2622Y992D01*
X2626Y992D01*
X2626Y990D01*
X2630Y990D01*
X2630Y988D01*
X2634Y988D01*
X2634Y986D01*
X2636Y986D01*
X2636Y984D01*
X2662Y984D01*
X2662Y986D01*
X2664Y986D01*
X2664Y988D01*
X2668Y988D01*
X2668Y990D01*
X2672Y990D01*
X2672Y992D01*
X2676Y992D01*
X2676Y994D01*
X2682Y994D01*
X2682Y996D01*
X2694Y996D01*
X2694Y998D01*
X2604Y998D01*
G37*
D02*
G36*
X2704Y998D02*
X2704Y996D01*
X2716Y996D01*
X2716Y994D01*
X2722Y994D01*
X2722Y992D01*
X2726Y992D01*
X2726Y990D01*
X2730Y990D01*
X2730Y988D01*
X2734Y988D01*
X2734Y986D01*
X2736Y986D01*
X2736Y984D01*
X2762Y984D01*
X2762Y986D01*
X2764Y986D01*
X2764Y988D01*
X2768Y988D01*
X2768Y990D01*
X2772Y990D01*
X2772Y992D01*
X2776Y992D01*
X2776Y994D01*
X2782Y994D01*
X2782Y996D01*
X2794Y996D01*
X2794Y998D01*
X2704Y998D01*
G37*
D02*
G36*
X2804Y998D02*
X2804Y996D01*
X2816Y996D01*
X2816Y994D01*
X2822Y994D01*
X2822Y992D01*
X2826Y992D01*
X2826Y990D01*
X2830Y990D01*
X2830Y988D01*
X2834Y988D01*
X2834Y986D01*
X2836Y986D01*
X2836Y984D01*
X2862Y984D01*
X2862Y986D01*
X2864Y986D01*
X2864Y988D01*
X2868Y988D01*
X2868Y990D01*
X2872Y990D01*
X2872Y992D01*
X2876Y992D01*
X2876Y994D01*
X2882Y994D01*
X2882Y996D01*
X2894Y996D01*
X2894Y998D01*
X2804Y998D01*
G37*
D02*
G36*
X2934Y988D02*
X2934Y986D01*
X2936Y986D01*
X2936Y984D01*
X2940Y984D01*
X2940Y982D01*
X2942Y982D01*
X2942Y980D01*
X2944Y980D01*
X2944Y978D01*
X2946Y978D01*
X2946Y976D01*
X2948Y976D01*
X2948Y974D01*
X2950Y974D01*
X2950Y972D01*
X2952Y972D01*
X2952Y968D01*
X2954Y968D01*
X2954Y966D01*
X2956Y966D01*
X2956Y962D01*
X2958Y962D01*
X2958Y958D01*
X2978Y958D01*
X2978Y960D01*
X2980Y960D01*
X2980Y962D01*
X2982Y962D01*
X2982Y964D01*
X2984Y964D01*
X2984Y966D01*
X2988Y966D01*
X2988Y968D01*
X2990Y968D01*
X2990Y970D01*
X2994Y970D01*
X2994Y972D01*
X2996Y972D01*
X2996Y974D01*
X3000Y974D01*
X3000Y976D01*
X3004Y976D01*
X3004Y978D01*
X3008Y978D01*
X3008Y980D01*
X3014Y980D01*
X3014Y982D01*
X3020Y982D01*
X3020Y984D01*
X3028Y984D01*
X3028Y986D01*
X3044Y986D01*
X3044Y988D01*
X2934Y988D01*
G37*
D02*
G36*
X726Y980D02*
X726Y970D01*
X728Y970D01*
X728Y968D01*
X730Y968D01*
X730Y966D01*
X732Y966D01*
X732Y962D01*
X734Y962D01*
X734Y960D01*
X736Y960D01*
X736Y956D01*
X738Y956D01*
X738Y954D01*
X740Y954D01*
X740Y950D01*
X742Y950D01*
X742Y944D01*
X744Y944D01*
X744Y936D01*
X746Y936D01*
X746Y908D01*
X744Y908D01*
X744Y900D01*
X742Y900D01*
X742Y896D01*
X740Y896D01*
X740Y892D01*
X738Y892D01*
X738Y888D01*
X736Y888D01*
X736Y884D01*
X734Y884D01*
X734Y882D01*
X732Y882D01*
X732Y880D01*
X730Y880D01*
X730Y876D01*
X728Y876D01*
X728Y874D01*
X726Y874D01*
X726Y872D01*
X724Y872D01*
X724Y856D01*
X722Y856D01*
X722Y844D01*
X876Y844D01*
X876Y846D01*
X862Y846D01*
X862Y848D01*
X856Y848D01*
X856Y850D01*
X852Y850D01*
X852Y852D01*
X848Y852D01*
X848Y854D01*
X844Y854D01*
X844Y856D01*
X840Y856D01*
X840Y858D01*
X838Y858D01*
X838Y860D01*
X836Y860D01*
X836Y862D01*
X834Y862D01*
X834Y864D01*
X830Y864D01*
X830Y868D01*
X828Y868D01*
X828Y870D01*
X826Y870D01*
X826Y872D01*
X824Y872D01*
X824Y876D01*
X822Y876D01*
X822Y878D01*
X820Y878D01*
X820Y882D01*
X818Y882D01*
X818Y886D01*
X816Y886D01*
X816Y892D01*
X814Y892D01*
X814Y898D01*
X812Y898D01*
X812Y926D01*
X814Y926D01*
X814Y934D01*
X816Y934D01*
X816Y938D01*
X818Y938D01*
X818Y942D01*
X820Y942D01*
X820Y946D01*
X822Y946D01*
X822Y950D01*
X824Y950D01*
X824Y952D01*
X826Y952D01*
X826Y954D01*
X828Y954D01*
X828Y958D01*
X830Y958D01*
X830Y960D01*
X832Y960D01*
X832Y962D01*
X834Y962D01*
X834Y964D01*
X838Y964D01*
X838Y966D01*
X840Y966D01*
X840Y968D01*
X842Y968D01*
X842Y970D01*
X846Y970D01*
X846Y972D01*
X850Y972D01*
X850Y974D01*
X854Y974D01*
X854Y976D01*
X860Y976D01*
X860Y978D01*
X870Y978D01*
X870Y980D01*
X726Y980D01*
G37*
D02*
G36*
X888Y980D02*
X888Y978D01*
X898Y978D01*
X898Y976D01*
X904Y976D01*
X904Y974D01*
X908Y974D01*
X908Y972D01*
X912Y972D01*
X912Y970D01*
X916Y970D01*
X916Y968D01*
X918Y968D01*
X918Y966D01*
X922Y966D01*
X922Y964D01*
X924Y964D01*
X924Y962D01*
X926Y962D01*
X926Y960D01*
X928Y960D01*
X928Y958D01*
X960Y958D01*
X960Y960D01*
X962Y960D01*
X962Y962D01*
X964Y962D01*
X964Y964D01*
X968Y964D01*
X968Y966D01*
X970Y966D01*
X970Y968D01*
X972Y968D01*
X972Y970D01*
X976Y970D01*
X976Y972D01*
X980Y972D01*
X980Y974D01*
X984Y974D01*
X984Y976D01*
X990Y976D01*
X990Y978D01*
X1000Y978D01*
X1000Y980D01*
X888Y980D01*
G37*
D02*
G36*
X1438Y882D02*
X1438Y880D01*
X1436Y880D01*
X1436Y878D01*
X1432Y878D01*
X1432Y876D01*
X1430Y876D01*
X1430Y874D01*
X1426Y874D01*
X1426Y872D01*
X1420Y872D01*
X1420Y870D01*
X1414Y870D01*
X1414Y868D01*
X1484Y868D01*
X1484Y870D01*
X1478Y870D01*
X1478Y872D01*
X1472Y872D01*
X1472Y874D01*
X1468Y874D01*
X1468Y876D01*
X1466Y876D01*
X1466Y878D01*
X1462Y878D01*
X1462Y880D01*
X1460Y880D01*
X1460Y882D01*
X1438Y882D01*
G37*
D02*
G36*
X1538Y882D02*
X1538Y880D01*
X1536Y880D01*
X1536Y878D01*
X1532Y878D01*
X1532Y876D01*
X1530Y876D01*
X1530Y874D01*
X1526Y874D01*
X1526Y872D01*
X1520Y872D01*
X1520Y870D01*
X1514Y870D01*
X1514Y868D01*
X1584Y868D01*
X1584Y870D01*
X1578Y870D01*
X1578Y872D01*
X1572Y872D01*
X1572Y874D01*
X1568Y874D01*
X1568Y876D01*
X1566Y876D01*
X1566Y878D01*
X1562Y878D01*
X1562Y880D01*
X1560Y880D01*
X1560Y882D01*
X1538Y882D01*
G37*
D02*
G36*
X1638Y882D02*
X1638Y880D01*
X1636Y880D01*
X1636Y878D01*
X1632Y878D01*
X1632Y876D01*
X1630Y876D01*
X1630Y874D01*
X1626Y874D01*
X1626Y872D01*
X1620Y872D01*
X1620Y870D01*
X1614Y870D01*
X1614Y868D01*
X1684Y868D01*
X1684Y870D01*
X1678Y870D01*
X1678Y872D01*
X1672Y872D01*
X1672Y874D01*
X1668Y874D01*
X1668Y876D01*
X1666Y876D01*
X1666Y878D01*
X1662Y878D01*
X1662Y880D01*
X1660Y880D01*
X1660Y882D01*
X1638Y882D01*
G37*
D02*
G36*
X1738Y882D02*
X1738Y880D01*
X1736Y880D01*
X1736Y878D01*
X1732Y878D01*
X1732Y876D01*
X1730Y876D01*
X1730Y874D01*
X1726Y874D01*
X1726Y872D01*
X1720Y872D01*
X1720Y870D01*
X1714Y870D01*
X1714Y868D01*
X1784Y868D01*
X1784Y870D01*
X1778Y870D01*
X1778Y872D01*
X1772Y872D01*
X1772Y874D01*
X1768Y874D01*
X1768Y876D01*
X1766Y876D01*
X1766Y878D01*
X1762Y878D01*
X1762Y880D01*
X1760Y880D01*
X1760Y882D01*
X1738Y882D01*
G37*
D02*
G36*
X1838Y882D02*
X1838Y880D01*
X1836Y880D01*
X1836Y878D01*
X1832Y878D01*
X1832Y876D01*
X1830Y876D01*
X1830Y874D01*
X1826Y874D01*
X1826Y872D01*
X1820Y872D01*
X1820Y870D01*
X1814Y870D01*
X1814Y868D01*
X1884Y868D01*
X1884Y870D01*
X1878Y870D01*
X1878Y872D01*
X1872Y872D01*
X1872Y874D01*
X1868Y874D01*
X1868Y876D01*
X1866Y876D01*
X1866Y878D01*
X1862Y878D01*
X1862Y880D01*
X1860Y880D01*
X1860Y882D01*
X1838Y882D01*
G37*
D02*
G36*
X1938Y882D02*
X1938Y880D01*
X1936Y880D01*
X1936Y878D01*
X1932Y878D01*
X1932Y876D01*
X1930Y876D01*
X1930Y874D01*
X1926Y874D01*
X1926Y872D01*
X1920Y872D01*
X1920Y870D01*
X1914Y870D01*
X1914Y868D01*
X1984Y868D01*
X1984Y870D01*
X1978Y870D01*
X1978Y872D01*
X1972Y872D01*
X1972Y874D01*
X1968Y874D01*
X1968Y876D01*
X1966Y876D01*
X1966Y878D01*
X1962Y878D01*
X1962Y880D01*
X1960Y880D01*
X1960Y882D01*
X1938Y882D01*
G37*
D02*
G36*
X2038Y882D02*
X2038Y880D01*
X2036Y880D01*
X2036Y878D01*
X2032Y878D01*
X2032Y876D01*
X2030Y876D01*
X2030Y874D01*
X2026Y874D01*
X2026Y872D01*
X2020Y872D01*
X2020Y870D01*
X2014Y870D01*
X2014Y868D01*
X2084Y868D01*
X2084Y870D01*
X2078Y870D01*
X2078Y872D01*
X2072Y872D01*
X2072Y874D01*
X2068Y874D01*
X2068Y876D01*
X2066Y876D01*
X2066Y878D01*
X2062Y878D01*
X2062Y880D01*
X2060Y880D01*
X2060Y882D01*
X2038Y882D01*
G37*
D02*
G36*
X2138Y882D02*
X2138Y880D01*
X2136Y880D01*
X2136Y878D01*
X2132Y878D01*
X2132Y876D01*
X2130Y876D01*
X2130Y874D01*
X2126Y874D01*
X2126Y872D01*
X2120Y872D01*
X2120Y870D01*
X2114Y870D01*
X2114Y868D01*
X2184Y868D01*
X2184Y870D01*
X2178Y870D01*
X2178Y872D01*
X2172Y872D01*
X2172Y874D01*
X2168Y874D01*
X2168Y876D01*
X2166Y876D01*
X2166Y878D01*
X2162Y878D01*
X2162Y880D01*
X2160Y880D01*
X2160Y882D01*
X2138Y882D01*
G37*
D02*
G36*
X2238Y882D02*
X2238Y880D01*
X2236Y880D01*
X2236Y878D01*
X2232Y878D01*
X2232Y876D01*
X2230Y876D01*
X2230Y874D01*
X2226Y874D01*
X2226Y872D01*
X2220Y872D01*
X2220Y870D01*
X2214Y870D01*
X2214Y868D01*
X2284Y868D01*
X2284Y870D01*
X2278Y870D01*
X2278Y872D01*
X2272Y872D01*
X2272Y874D01*
X2268Y874D01*
X2268Y876D01*
X2266Y876D01*
X2266Y878D01*
X2262Y878D01*
X2262Y880D01*
X2260Y880D01*
X2260Y882D01*
X2238Y882D01*
G37*
D02*
G36*
X2338Y882D02*
X2338Y880D01*
X2336Y880D01*
X2336Y878D01*
X2332Y878D01*
X2332Y876D01*
X2330Y876D01*
X2330Y874D01*
X2326Y874D01*
X2326Y872D01*
X2320Y872D01*
X2320Y870D01*
X2314Y870D01*
X2314Y868D01*
X2384Y868D01*
X2384Y870D01*
X2378Y870D01*
X2378Y872D01*
X2372Y872D01*
X2372Y874D01*
X2368Y874D01*
X2368Y876D01*
X2366Y876D01*
X2366Y878D01*
X2362Y878D01*
X2362Y880D01*
X2360Y880D01*
X2360Y882D01*
X2338Y882D01*
G37*
D02*
G36*
X2432Y878D02*
X2432Y876D01*
X2430Y876D01*
X2430Y874D01*
X2426Y874D01*
X2426Y872D01*
X2420Y872D01*
X2420Y870D01*
X2414Y870D01*
X2414Y868D01*
X2452Y868D01*
X2452Y878D01*
X2432Y878D01*
G37*
D02*
G36*
X284Y872D02*
X284Y870D01*
X248Y870D01*
X248Y868D01*
X232Y868D01*
X232Y866D01*
X230Y866D01*
X230Y864D01*
X228Y864D01*
X228Y860D01*
X226Y860D01*
X226Y858D01*
X224Y858D01*
X224Y856D01*
X222Y856D01*
X222Y854D01*
X376Y854D01*
X376Y856D01*
X362Y856D01*
X362Y858D01*
X356Y858D01*
X356Y860D01*
X352Y860D01*
X352Y862D01*
X348Y862D01*
X348Y864D01*
X344Y864D01*
X344Y866D01*
X340Y866D01*
X340Y868D01*
X338Y868D01*
X338Y870D01*
X336Y870D01*
X336Y872D01*
X284Y872D01*
G37*
D02*
G36*
X1060Y868D02*
X1060Y866D01*
X2452Y866D01*
X2452Y868D01*
X1060Y868D01*
G37*
D02*
G36*
X1060Y868D02*
X1060Y866D01*
X2452Y866D01*
X2452Y868D01*
X1060Y868D01*
G37*
D02*
G36*
X1060Y868D02*
X1060Y866D01*
X2452Y866D01*
X2452Y868D01*
X1060Y868D01*
G37*
D02*
G36*
X1060Y868D02*
X1060Y866D01*
X2452Y866D01*
X2452Y868D01*
X1060Y868D01*
G37*
D02*
G36*
X1060Y868D02*
X1060Y866D01*
X2452Y866D01*
X2452Y868D01*
X1060Y868D01*
G37*
D02*
G36*
X1060Y868D02*
X1060Y866D01*
X2452Y866D01*
X2452Y868D01*
X1060Y868D01*
G37*
D02*
G36*
X1060Y868D02*
X1060Y866D01*
X2452Y866D01*
X2452Y868D01*
X1060Y868D01*
G37*
D02*
G36*
X1060Y868D02*
X1060Y866D01*
X2452Y866D01*
X2452Y868D01*
X1060Y868D01*
G37*
D02*
G36*
X1060Y868D02*
X1060Y866D01*
X2452Y866D01*
X2452Y868D01*
X1060Y868D01*
G37*
D02*
G36*
X1060Y868D02*
X1060Y866D01*
X2452Y866D01*
X2452Y868D01*
X1060Y868D01*
G37*
D02*
G36*
X1060Y868D02*
X1060Y866D01*
X2452Y866D01*
X2452Y868D01*
X1060Y868D01*
G37*
D02*
G36*
X1060Y868D02*
X1060Y866D01*
X2452Y866D01*
X2452Y868D01*
X1060Y868D01*
G37*
D02*
G36*
X928Y866D02*
X928Y864D01*
X926Y864D01*
X926Y862D01*
X922Y862D01*
X922Y860D01*
X920Y860D01*
X920Y858D01*
X918Y858D01*
X918Y856D01*
X914Y856D01*
X914Y854D01*
X912Y854D01*
X912Y852D01*
X908Y852D01*
X908Y850D01*
X902Y850D01*
X902Y848D01*
X896Y848D01*
X896Y846D01*
X884Y846D01*
X884Y844D01*
X962Y844D01*
X962Y864D01*
X960Y864D01*
X960Y866D01*
X928Y866D01*
G37*
D02*
G36*
X1058Y866D02*
X1058Y864D01*
X1056Y864D01*
X1056Y862D01*
X1054Y862D01*
X1054Y792D01*
X1052Y792D01*
X1052Y786D01*
X1050Y786D01*
X1050Y782D01*
X1048Y782D01*
X1048Y778D01*
X1046Y778D01*
X1046Y776D01*
X1044Y776D01*
X1044Y772D01*
X1042Y772D01*
X1042Y770D01*
X1040Y770D01*
X1040Y768D01*
X1038Y768D01*
X1038Y766D01*
X1036Y766D01*
X1036Y762D01*
X1034Y762D01*
X1034Y760D01*
X1032Y760D01*
X1032Y758D01*
X1030Y758D01*
X1030Y756D01*
X1028Y756D01*
X1028Y752D01*
X1026Y752D01*
X1026Y750D01*
X1024Y750D01*
X1024Y748D01*
X1022Y748D01*
X1022Y744D01*
X1020Y744D01*
X1020Y742D01*
X1018Y742D01*
X1018Y740D01*
X1016Y740D01*
X1016Y738D01*
X1014Y738D01*
X1014Y734D01*
X1012Y734D01*
X1012Y732D01*
X1010Y732D01*
X1010Y730D01*
X1008Y730D01*
X1008Y728D01*
X1006Y728D01*
X1006Y724D01*
X1004Y724D01*
X1004Y722D01*
X1002Y722D01*
X1002Y720D01*
X1000Y720D01*
X1000Y718D01*
X998Y718D01*
X998Y716D01*
X996Y716D01*
X996Y714D01*
X992Y714D01*
X992Y712D01*
X988Y712D01*
X988Y710D01*
X984Y710D01*
X984Y708D01*
X974Y708D01*
X974Y706D01*
X834Y706D01*
X834Y704D01*
X832Y704D01*
X832Y702D01*
X830Y702D01*
X830Y680D01*
X1018Y680D01*
X1018Y678D01*
X1028Y678D01*
X1028Y676D01*
X1034Y676D01*
X1034Y674D01*
X1038Y674D01*
X1038Y672D01*
X1042Y672D01*
X1042Y670D01*
X1046Y670D01*
X1046Y668D01*
X1048Y668D01*
X1048Y666D01*
X1052Y666D01*
X1052Y664D01*
X1054Y664D01*
X1054Y662D01*
X1056Y662D01*
X1056Y660D01*
X1058Y660D01*
X1058Y658D01*
X2402Y658D01*
X2402Y660D01*
X2404Y660D01*
X2404Y662D01*
X2406Y662D01*
X2406Y664D01*
X2410Y664D01*
X2410Y666D01*
X2412Y666D01*
X2412Y668D01*
X2414Y668D01*
X2414Y670D01*
X2416Y670D01*
X2416Y672D01*
X2418Y672D01*
X2418Y674D01*
X2420Y674D01*
X2420Y676D01*
X2422Y676D01*
X2422Y678D01*
X2426Y678D01*
X2426Y680D01*
X2428Y680D01*
X2428Y682D01*
X2430Y682D01*
X2430Y684D01*
X2432Y684D01*
X2432Y686D01*
X2434Y686D01*
X2434Y688D01*
X2436Y688D01*
X2436Y690D01*
X2438Y690D01*
X2438Y692D01*
X2442Y692D01*
X2442Y694D01*
X2444Y694D01*
X2444Y696D01*
X2446Y696D01*
X2446Y698D01*
X2448Y698D01*
X2448Y700D01*
X2450Y700D01*
X2450Y702D01*
X2452Y702D01*
X2452Y866D01*
X1058Y866D01*
G37*
D02*
G36*
X220Y854D02*
X220Y852D01*
X630Y852D01*
X630Y854D01*
X220Y854D01*
G37*
D02*
G36*
X220Y854D02*
X220Y852D01*
X630Y852D01*
X630Y854D01*
X220Y854D01*
G37*
D02*
G36*
X220Y852D02*
X220Y850D01*
X218Y850D01*
X218Y848D01*
X216Y848D01*
X216Y680D01*
X578Y680D01*
X578Y678D01*
X588Y678D01*
X588Y676D01*
X594Y676D01*
X594Y674D01*
X598Y674D01*
X598Y672D01*
X602Y672D01*
X602Y670D01*
X624Y670D01*
X624Y672D01*
X626Y672D01*
X626Y734D01*
X628Y734D01*
X628Y796D01*
X630Y796D01*
X630Y852D01*
X220Y852D01*
G37*
D02*
G36*
X722Y844D02*
X722Y842D01*
X962Y842D01*
X962Y844D01*
X722Y844D01*
G37*
D02*
G36*
X722Y844D02*
X722Y842D01*
X962Y842D01*
X962Y844D01*
X722Y844D01*
G37*
D02*
G36*
X722Y842D02*
X722Y794D01*
X720Y794D01*
X720Y732D01*
X718Y732D01*
X718Y728D01*
X738Y728D01*
X738Y730D01*
X740Y730D01*
X740Y734D01*
X742Y734D01*
X742Y736D01*
X744Y736D01*
X744Y738D01*
X746Y738D01*
X746Y742D01*
X748Y742D01*
X748Y744D01*
X750Y744D01*
X750Y748D01*
X752Y748D01*
X752Y750D01*
X754Y750D01*
X754Y754D01*
X756Y754D01*
X756Y756D01*
X758Y756D01*
X758Y760D01*
X760Y760D01*
X760Y762D01*
X762Y762D01*
X762Y766D01*
X764Y766D01*
X764Y768D01*
X766Y768D01*
X766Y772D01*
X768Y772D01*
X768Y774D01*
X770Y774D01*
X770Y778D01*
X772Y778D01*
X772Y780D01*
X774Y780D01*
X774Y782D01*
X776Y782D01*
X776Y784D01*
X778Y784D01*
X778Y786D01*
X780Y786D01*
X780Y788D01*
X782Y788D01*
X782Y790D01*
X784Y790D01*
X784Y792D01*
X788Y792D01*
X788Y794D01*
X792Y794D01*
X792Y796D01*
X798Y796D01*
X798Y798D01*
X946Y798D01*
X946Y800D01*
X948Y800D01*
X948Y802D01*
X950Y802D01*
X950Y804D01*
X952Y804D01*
X952Y808D01*
X954Y808D01*
X954Y810D01*
X956Y810D01*
X956Y812D01*
X958Y812D01*
X958Y814D01*
X960Y814D01*
X960Y818D01*
X962Y818D01*
X962Y842D01*
X722Y842D01*
G37*
D02*
G36*
X216Y680D02*
X216Y670D01*
X236Y670D01*
X236Y672D01*
X240Y672D01*
X240Y674D01*
X244Y674D01*
X244Y676D01*
X250Y676D01*
X250Y678D01*
X260Y678D01*
X260Y680D01*
X216Y680D01*
G37*
D02*
G36*
X278Y680D02*
X278Y678D01*
X288Y678D01*
X288Y676D01*
X294Y676D01*
X294Y674D01*
X298Y674D01*
X298Y672D01*
X302Y672D01*
X302Y670D01*
X306Y670D01*
X306Y668D01*
X308Y668D01*
X308Y666D01*
X330Y666D01*
X330Y668D01*
X332Y668D01*
X332Y670D01*
X336Y670D01*
X336Y672D01*
X340Y672D01*
X340Y674D01*
X344Y674D01*
X344Y676D01*
X350Y676D01*
X350Y678D01*
X360Y678D01*
X360Y680D01*
X278Y680D01*
G37*
D02*
G36*
X378Y680D02*
X378Y678D01*
X388Y678D01*
X388Y676D01*
X394Y676D01*
X394Y674D01*
X398Y674D01*
X398Y672D01*
X402Y672D01*
X402Y670D01*
X406Y670D01*
X406Y668D01*
X408Y668D01*
X408Y666D01*
X430Y666D01*
X430Y668D01*
X432Y668D01*
X432Y670D01*
X436Y670D01*
X436Y672D01*
X440Y672D01*
X440Y674D01*
X444Y674D01*
X444Y676D01*
X450Y676D01*
X450Y678D01*
X460Y678D01*
X460Y680D01*
X378Y680D01*
G37*
D02*
G36*
X478Y680D02*
X478Y678D01*
X488Y678D01*
X488Y676D01*
X494Y676D01*
X494Y674D01*
X498Y674D01*
X498Y672D01*
X502Y672D01*
X502Y670D01*
X506Y670D01*
X506Y668D01*
X508Y668D01*
X508Y666D01*
X530Y666D01*
X530Y668D01*
X532Y668D01*
X532Y670D01*
X536Y670D01*
X536Y672D01*
X540Y672D01*
X540Y674D01*
X544Y674D01*
X544Y676D01*
X550Y676D01*
X550Y678D01*
X560Y678D01*
X560Y680D01*
X478Y680D01*
G37*
D02*
G36*
X936Y680D02*
X936Y654D01*
X958Y654D01*
X958Y658D01*
X960Y658D01*
X960Y660D01*
X962Y660D01*
X962Y662D01*
X964Y662D01*
X964Y664D01*
X968Y664D01*
X968Y666D01*
X970Y666D01*
X970Y668D01*
X972Y668D01*
X972Y670D01*
X976Y670D01*
X976Y672D01*
X980Y672D01*
X980Y674D01*
X984Y674D01*
X984Y676D01*
X990Y676D01*
X990Y678D01*
X1000Y678D01*
X1000Y680D01*
X936Y680D01*
G37*
D02*
G36*
X936Y570D02*
X936Y544D01*
X1006Y544D01*
X1006Y546D01*
X992Y546D01*
X992Y548D01*
X986Y548D01*
X986Y550D01*
X982Y550D01*
X982Y552D01*
X978Y552D01*
X978Y554D01*
X974Y554D01*
X974Y556D01*
X970Y556D01*
X970Y558D01*
X968Y558D01*
X968Y560D01*
X966Y560D01*
X966Y562D01*
X964Y562D01*
X964Y564D01*
X960Y564D01*
X960Y568D01*
X958Y568D01*
X958Y570D01*
X936Y570D01*
G37*
D02*
G36*
X1058Y566D02*
X1058Y564D01*
X1056Y564D01*
X1056Y562D01*
X1052Y562D01*
X1052Y560D01*
X1050Y560D01*
X1050Y558D01*
X1048Y558D01*
X1048Y556D01*
X1044Y556D01*
X1044Y554D01*
X1042Y554D01*
X1042Y552D01*
X1038Y552D01*
X1038Y550D01*
X1032Y550D01*
X1032Y548D01*
X1026Y548D01*
X1026Y546D01*
X1014Y546D01*
X1014Y544D01*
X1436Y544D01*
X1436Y546D01*
X1438Y546D01*
X1438Y566D01*
X1058Y566D01*
G37*
D02*
G36*
X608Y558D02*
X608Y556D01*
X604Y556D01*
X604Y554D01*
X602Y554D01*
X602Y552D01*
X598Y552D01*
X598Y550D01*
X592Y550D01*
X592Y548D01*
X586Y548D01*
X586Y546D01*
X574Y546D01*
X574Y544D01*
X666Y544D01*
X666Y546D01*
X652Y546D01*
X652Y548D01*
X646Y548D01*
X646Y550D01*
X642Y550D01*
X642Y552D01*
X638Y552D01*
X638Y554D01*
X634Y554D01*
X634Y556D01*
X630Y556D01*
X630Y558D01*
X608Y558D01*
G37*
D02*
G36*
X708Y558D02*
X708Y556D01*
X704Y556D01*
X704Y554D01*
X702Y554D01*
X702Y552D01*
X698Y552D01*
X698Y550D01*
X692Y550D01*
X692Y548D01*
X686Y548D01*
X686Y546D01*
X674Y546D01*
X674Y544D01*
X766Y544D01*
X766Y546D01*
X752Y546D01*
X752Y548D01*
X746Y548D01*
X746Y550D01*
X742Y550D01*
X742Y552D01*
X738Y552D01*
X738Y554D01*
X734Y554D01*
X734Y556D01*
X730Y556D01*
X730Y558D01*
X708Y558D01*
G37*
D02*
G36*
X774Y546D02*
X774Y544D01*
X802Y544D01*
X802Y546D01*
X774Y546D01*
G37*
D02*
G36*
X570Y544D02*
X570Y542D01*
X1434Y542D01*
X1434Y544D01*
X570Y544D01*
G37*
D02*
G36*
X570Y544D02*
X570Y542D01*
X1434Y542D01*
X1434Y544D01*
X570Y544D01*
G37*
D02*
G36*
X570Y544D02*
X570Y542D01*
X1434Y542D01*
X1434Y544D01*
X570Y544D01*
G37*
D02*
G36*
X570Y544D02*
X570Y542D01*
X1434Y542D01*
X1434Y544D01*
X570Y544D01*
G37*
D02*
G36*
X570Y544D02*
X570Y542D01*
X1434Y542D01*
X1434Y544D01*
X570Y544D01*
G37*
D02*
G36*
X570Y542D02*
X570Y522D01*
X572Y522D01*
X572Y520D01*
X574Y520D01*
X574Y518D01*
X576Y518D01*
X576Y516D01*
X578Y516D01*
X578Y514D01*
X580Y514D01*
X580Y510D01*
X582Y510D01*
X582Y508D01*
X584Y508D01*
X584Y506D01*
X586Y506D01*
X586Y504D01*
X588Y504D01*
X588Y502D01*
X590Y502D01*
X590Y498D01*
X592Y498D01*
X592Y496D01*
X594Y496D01*
X594Y494D01*
X596Y494D01*
X596Y492D01*
X598Y492D01*
X598Y490D01*
X600Y490D01*
X600Y486D01*
X602Y486D01*
X602Y484D01*
X604Y484D01*
X604Y482D01*
X606Y482D01*
X606Y480D01*
X608Y480D01*
X608Y476D01*
X610Y476D01*
X610Y472D01*
X612Y472D01*
X612Y468D01*
X614Y468D01*
X614Y460D01*
X616Y460D01*
X616Y380D01*
X878Y380D01*
X878Y378D01*
X888Y378D01*
X888Y376D01*
X894Y376D01*
X894Y374D01*
X898Y374D01*
X898Y372D01*
X902Y372D01*
X902Y370D01*
X906Y370D01*
X906Y368D01*
X908Y368D01*
X908Y366D01*
X912Y366D01*
X912Y364D01*
X914Y364D01*
X914Y362D01*
X916Y362D01*
X916Y360D01*
X918Y360D01*
X918Y358D01*
X920Y358D01*
X920Y356D01*
X922Y356D01*
X922Y352D01*
X924Y352D01*
X924Y350D01*
X926Y350D01*
X926Y346D01*
X928Y346D01*
X928Y344D01*
X930Y344D01*
X930Y340D01*
X932Y340D01*
X932Y334D01*
X934Y334D01*
X934Y326D01*
X936Y326D01*
X936Y298D01*
X934Y298D01*
X934Y290D01*
X932Y290D01*
X932Y286D01*
X930Y286D01*
X930Y282D01*
X928Y282D01*
X928Y278D01*
X926Y278D01*
X926Y274D01*
X924Y274D01*
X924Y272D01*
X922Y272D01*
X922Y270D01*
X920Y270D01*
X920Y266D01*
X918Y266D01*
X918Y264D01*
X916Y264D01*
X916Y262D01*
X912Y262D01*
X912Y260D01*
X910Y260D01*
X910Y258D01*
X908Y258D01*
X908Y256D01*
X904Y256D01*
X904Y254D01*
X902Y254D01*
X902Y252D01*
X898Y252D01*
X898Y250D01*
X892Y250D01*
X892Y248D01*
X886Y248D01*
X886Y246D01*
X874Y246D01*
X874Y244D01*
X1356Y244D01*
X1356Y264D01*
X1358Y264D01*
X1358Y330D01*
X1360Y330D01*
X1360Y398D01*
X1362Y398D01*
X1362Y464D01*
X1364Y464D01*
X1364Y476D01*
X1366Y476D01*
X1366Y482D01*
X1368Y482D01*
X1368Y486D01*
X1370Y486D01*
X1370Y488D01*
X1372Y488D01*
X1372Y492D01*
X1374Y492D01*
X1374Y494D01*
X1376Y494D01*
X1376Y496D01*
X1378Y496D01*
X1378Y498D01*
X1380Y498D01*
X1380Y500D01*
X1384Y500D01*
X1384Y502D01*
X1386Y502D01*
X1386Y504D01*
X1388Y504D01*
X1388Y506D01*
X1390Y506D01*
X1390Y508D01*
X1392Y508D01*
X1392Y510D01*
X1396Y510D01*
X1396Y512D01*
X1398Y512D01*
X1398Y514D01*
X1400Y514D01*
X1400Y516D01*
X1402Y516D01*
X1402Y518D01*
X1404Y518D01*
X1404Y520D01*
X1408Y520D01*
X1408Y522D01*
X1410Y522D01*
X1410Y524D01*
X1412Y524D01*
X1412Y526D01*
X1414Y526D01*
X1414Y528D01*
X1416Y528D01*
X1416Y530D01*
X1420Y530D01*
X1420Y532D01*
X1422Y532D01*
X1422Y534D01*
X1424Y534D01*
X1424Y536D01*
X1426Y536D01*
X1426Y538D01*
X1428Y538D01*
X1428Y540D01*
X1432Y540D01*
X1432Y542D01*
X570Y542D01*
G37*
D02*
G36*
X40Y380D02*
X40Y244D01*
X266Y244D01*
X266Y246D01*
X252Y246D01*
X252Y248D01*
X246Y248D01*
X246Y250D01*
X242Y250D01*
X242Y252D01*
X238Y252D01*
X238Y254D01*
X234Y254D01*
X234Y256D01*
X230Y256D01*
X230Y258D01*
X228Y258D01*
X228Y260D01*
X226Y260D01*
X226Y262D01*
X224Y262D01*
X224Y264D01*
X220Y264D01*
X220Y268D01*
X218Y268D01*
X218Y270D01*
X216Y270D01*
X216Y272D01*
X214Y272D01*
X214Y276D01*
X212Y276D01*
X212Y278D01*
X210Y278D01*
X210Y282D01*
X208Y282D01*
X208Y286D01*
X206Y286D01*
X206Y292D01*
X204Y292D01*
X204Y298D01*
X202Y298D01*
X202Y326D01*
X204Y326D01*
X204Y334D01*
X206Y334D01*
X206Y338D01*
X208Y338D01*
X208Y342D01*
X210Y342D01*
X210Y346D01*
X212Y346D01*
X212Y350D01*
X214Y350D01*
X214Y352D01*
X216Y352D01*
X216Y354D01*
X218Y354D01*
X218Y358D01*
X220Y358D01*
X220Y360D01*
X222Y360D01*
X222Y362D01*
X224Y362D01*
X224Y364D01*
X228Y364D01*
X228Y366D01*
X230Y366D01*
X230Y368D01*
X232Y368D01*
X232Y370D01*
X236Y370D01*
X236Y372D01*
X240Y372D01*
X240Y374D01*
X244Y374D01*
X244Y376D01*
X250Y376D01*
X250Y378D01*
X260Y378D01*
X260Y380D01*
X40Y380D01*
G37*
D02*
G36*
X278Y380D02*
X278Y378D01*
X288Y378D01*
X288Y376D01*
X294Y376D01*
X294Y374D01*
X298Y374D01*
X298Y372D01*
X302Y372D01*
X302Y370D01*
X306Y370D01*
X306Y368D01*
X308Y368D01*
X308Y366D01*
X330Y366D01*
X330Y368D01*
X332Y368D01*
X332Y370D01*
X336Y370D01*
X336Y372D01*
X340Y372D01*
X340Y374D01*
X344Y374D01*
X344Y376D01*
X350Y376D01*
X350Y378D01*
X360Y378D01*
X360Y380D01*
X278Y380D01*
G37*
D02*
G36*
X378Y380D02*
X378Y378D01*
X388Y378D01*
X388Y376D01*
X394Y376D01*
X394Y374D01*
X398Y374D01*
X398Y372D01*
X402Y372D01*
X402Y370D01*
X406Y370D01*
X406Y368D01*
X408Y368D01*
X408Y366D01*
X430Y366D01*
X430Y368D01*
X432Y368D01*
X432Y370D01*
X436Y370D01*
X436Y372D01*
X440Y372D01*
X440Y374D01*
X444Y374D01*
X444Y376D01*
X450Y376D01*
X450Y378D01*
X460Y378D01*
X460Y380D01*
X378Y380D01*
G37*
D02*
G36*
X616Y380D02*
X616Y370D01*
X636Y370D01*
X636Y372D01*
X640Y372D01*
X640Y374D01*
X644Y374D01*
X644Y376D01*
X650Y376D01*
X650Y378D01*
X660Y378D01*
X660Y380D01*
X616Y380D01*
G37*
D02*
G36*
X678Y380D02*
X678Y378D01*
X688Y378D01*
X688Y376D01*
X694Y376D01*
X694Y374D01*
X698Y374D01*
X698Y372D01*
X702Y372D01*
X702Y370D01*
X706Y370D01*
X706Y368D01*
X708Y368D01*
X708Y366D01*
X730Y366D01*
X730Y368D01*
X732Y368D01*
X732Y370D01*
X736Y370D01*
X736Y372D01*
X740Y372D01*
X740Y374D01*
X744Y374D01*
X744Y376D01*
X750Y376D01*
X750Y378D01*
X760Y378D01*
X760Y380D01*
X678Y380D01*
G37*
D02*
G36*
X778Y380D02*
X778Y378D01*
X788Y378D01*
X788Y376D01*
X794Y376D01*
X794Y374D01*
X798Y374D01*
X798Y372D01*
X802Y372D01*
X802Y370D01*
X806Y370D01*
X806Y368D01*
X808Y368D01*
X808Y366D01*
X830Y366D01*
X830Y368D01*
X832Y368D01*
X832Y370D01*
X836Y370D01*
X836Y372D01*
X840Y372D01*
X840Y374D01*
X844Y374D01*
X844Y376D01*
X850Y376D01*
X850Y378D01*
X860Y378D01*
X860Y380D01*
X778Y380D01*
G37*
D02*
G36*
X3256Y374D02*
X3256Y372D01*
X3254Y372D01*
X3254Y368D01*
X3252Y368D01*
X3252Y366D01*
X3250Y366D01*
X3250Y364D01*
X3248Y364D01*
X3248Y362D01*
X3246Y362D01*
X3246Y358D01*
X3244Y358D01*
X3244Y356D01*
X3242Y356D01*
X3242Y354D01*
X3240Y354D01*
X3240Y352D01*
X3238Y352D01*
X3238Y350D01*
X3236Y350D01*
X3236Y346D01*
X3234Y346D01*
X3234Y344D01*
X3232Y344D01*
X3232Y342D01*
X3230Y342D01*
X3230Y340D01*
X3228Y340D01*
X3228Y336D01*
X3226Y336D01*
X3226Y334D01*
X3224Y334D01*
X3224Y332D01*
X3222Y332D01*
X3222Y330D01*
X3220Y330D01*
X3220Y328D01*
X3218Y328D01*
X3218Y324D01*
X3216Y324D01*
X3216Y322D01*
X3214Y322D01*
X3214Y320D01*
X3212Y320D01*
X3212Y318D01*
X3210Y318D01*
X3210Y314D01*
X3208Y314D01*
X3208Y312D01*
X3206Y312D01*
X3206Y310D01*
X3204Y310D01*
X3204Y308D01*
X3202Y308D01*
X3202Y304D01*
X3200Y304D01*
X3200Y302D01*
X3198Y302D01*
X3198Y300D01*
X3196Y300D01*
X3196Y298D01*
X3194Y298D01*
X3194Y296D01*
X3192Y296D01*
X3192Y292D01*
X3190Y292D01*
X3190Y290D01*
X3188Y290D01*
X3188Y288D01*
X3186Y288D01*
X3186Y286D01*
X3184Y286D01*
X3184Y282D01*
X3182Y282D01*
X3182Y280D01*
X3180Y280D01*
X3180Y278D01*
X3178Y278D01*
X3178Y276D01*
X3176Y276D01*
X3176Y274D01*
X3174Y274D01*
X3174Y270D01*
X3170Y270D01*
X3170Y268D01*
X3168Y268D01*
X3168Y266D01*
X3166Y266D01*
X3166Y264D01*
X3162Y264D01*
X3162Y262D01*
X3158Y262D01*
X3158Y260D01*
X3152Y260D01*
X3152Y258D01*
X3138Y258D01*
X3138Y236D01*
X3140Y236D01*
X3140Y232D01*
X3142Y232D01*
X3142Y228D01*
X3144Y228D01*
X3144Y224D01*
X3146Y224D01*
X3146Y220D01*
X3148Y220D01*
X3148Y214D01*
X3150Y214D01*
X3150Y208D01*
X3152Y208D01*
X3152Y196D01*
X3154Y196D01*
X3154Y168D01*
X3152Y168D01*
X3152Y158D01*
X3150Y158D01*
X3150Y150D01*
X3148Y150D01*
X3148Y144D01*
X3146Y144D01*
X3146Y140D01*
X3144Y140D01*
X3144Y136D01*
X3142Y136D01*
X3142Y132D01*
X3140Y132D01*
X3140Y128D01*
X3138Y128D01*
X3138Y126D01*
X3136Y126D01*
X3136Y122D01*
X3134Y122D01*
X3134Y120D01*
X3132Y120D01*
X3132Y116D01*
X3130Y116D01*
X3130Y114D01*
X3128Y114D01*
X3128Y112D01*
X3126Y112D01*
X3126Y110D01*
X3124Y110D01*
X3124Y108D01*
X3122Y108D01*
X3122Y106D01*
X3120Y106D01*
X3120Y104D01*
X3118Y104D01*
X3118Y102D01*
X3116Y102D01*
X3116Y100D01*
X3112Y100D01*
X3112Y98D01*
X3110Y98D01*
X3110Y96D01*
X3108Y96D01*
X3108Y94D01*
X3104Y94D01*
X3104Y92D01*
X3100Y92D01*
X3100Y90D01*
X3098Y90D01*
X3098Y88D01*
X3092Y88D01*
X3092Y86D01*
X3088Y86D01*
X3088Y84D01*
X3082Y84D01*
X3082Y82D01*
X3076Y82D01*
X3076Y80D01*
X3068Y80D01*
X3068Y78D01*
X3276Y78D01*
X3276Y374D01*
X3256Y374D01*
G37*
D02*
G36*
X308Y258D02*
X308Y256D01*
X304Y256D01*
X304Y254D01*
X302Y254D01*
X302Y252D01*
X298Y252D01*
X298Y250D01*
X292Y250D01*
X292Y248D01*
X286Y248D01*
X286Y246D01*
X274Y246D01*
X274Y244D01*
X366Y244D01*
X366Y246D01*
X352Y246D01*
X352Y248D01*
X346Y248D01*
X346Y250D01*
X342Y250D01*
X342Y252D01*
X338Y252D01*
X338Y254D01*
X334Y254D01*
X334Y256D01*
X330Y256D01*
X330Y258D01*
X308Y258D01*
G37*
D02*
G36*
X408Y258D02*
X408Y256D01*
X404Y256D01*
X404Y254D01*
X402Y254D01*
X402Y252D01*
X398Y252D01*
X398Y250D01*
X392Y250D01*
X392Y248D01*
X386Y248D01*
X386Y246D01*
X374Y246D01*
X374Y244D01*
X466Y244D01*
X466Y246D01*
X452Y246D01*
X452Y248D01*
X446Y248D01*
X446Y250D01*
X442Y250D01*
X442Y252D01*
X438Y252D01*
X438Y254D01*
X434Y254D01*
X434Y256D01*
X430Y256D01*
X430Y258D01*
X408Y258D01*
G37*
D02*
G36*
X508Y258D02*
X508Y256D01*
X504Y256D01*
X504Y254D01*
X502Y254D01*
X502Y252D01*
X498Y252D01*
X498Y250D01*
X492Y250D01*
X492Y248D01*
X486Y248D01*
X486Y246D01*
X474Y246D01*
X474Y244D01*
X566Y244D01*
X566Y246D01*
X552Y246D01*
X552Y248D01*
X546Y248D01*
X546Y250D01*
X542Y250D01*
X542Y252D01*
X538Y252D01*
X538Y254D01*
X534Y254D01*
X534Y256D01*
X530Y256D01*
X530Y258D01*
X508Y258D01*
G37*
D02*
G36*
X608Y258D02*
X608Y256D01*
X604Y256D01*
X604Y254D01*
X602Y254D01*
X602Y252D01*
X598Y252D01*
X598Y250D01*
X592Y250D01*
X592Y248D01*
X586Y248D01*
X586Y246D01*
X574Y246D01*
X574Y244D01*
X666Y244D01*
X666Y246D01*
X652Y246D01*
X652Y248D01*
X646Y248D01*
X646Y250D01*
X642Y250D01*
X642Y252D01*
X638Y252D01*
X638Y254D01*
X634Y254D01*
X634Y256D01*
X630Y256D01*
X630Y258D01*
X608Y258D01*
G37*
D02*
G36*
X708Y258D02*
X708Y256D01*
X704Y256D01*
X704Y254D01*
X702Y254D01*
X702Y252D01*
X698Y252D01*
X698Y250D01*
X692Y250D01*
X692Y248D01*
X686Y248D01*
X686Y246D01*
X674Y246D01*
X674Y244D01*
X766Y244D01*
X766Y246D01*
X752Y246D01*
X752Y248D01*
X746Y248D01*
X746Y250D01*
X742Y250D01*
X742Y252D01*
X738Y252D01*
X738Y254D01*
X734Y254D01*
X734Y256D01*
X730Y256D01*
X730Y258D01*
X708Y258D01*
G37*
D02*
G36*
X808Y258D02*
X808Y256D01*
X804Y256D01*
X804Y254D01*
X802Y254D01*
X802Y252D01*
X798Y252D01*
X798Y250D01*
X792Y250D01*
X792Y248D01*
X786Y248D01*
X786Y246D01*
X774Y246D01*
X774Y244D01*
X866Y244D01*
X866Y246D01*
X852Y246D01*
X852Y248D01*
X846Y248D01*
X846Y250D01*
X842Y250D01*
X842Y252D01*
X838Y252D01*
X838Y254D01*
X834Y254D01*
X834Y256D01*
X830Y256D01*
X830Y258D01*
X808Y258D01*
G37*
D02*
G36*
X2824Y256D02*
X2824Y254D01*
X2538Y254D01*
X2538Y252D01*
X2254Y252D01*
X2254Y250D01*
X1968Y250D01*
X1968Y248D01*
X1682Y248D01*
X1682Y246D01*
X1566Y246D01*
X1566Y244D01*
X1564Y244D01*
X1564Y242D01*
X1562Y242D01*
X1562Y240D01*
X1560Y240D01*
X1560Y238D01*
X1558Y238D01*
X1558Y236D01*
X1556Y236D01*
X1556Y234D01*
X1554Y234D01*
X1554Y232D01*
X1552Y232D01*
X1552Y230D01*
X1550Y230D01*
X1550Y228D01*
X1548Y228D01*
X1548Y226D01*
X1546Y226D01*
X1546Y198D01*
X2504Y198D01*
X2504Y196D01*
X2516Y196D01*
X2516Y194D01*
X2522Y194D01*
X2522Y192D01*
X2526Y192D01*
X2526Y190D01*
X2530Y190D01*
X2530Y188D01*
X2534Y188D01*
X2534Y186D01*
X2536Y186D01*
X2536Y184D01*
X2540Y184D01*
X2540Y182D01*
X2542Y182D01*
X2542Y180D01*
X2544Y180D01*
X2544Y178D01*
X2546Y178D01*
X2546Y176D01*
X2548Y176D01*
X2548Y174D01*
X2550Y174D01*
X2550Y172D01*
X2552Y172D01*
X2552Y168D01*
X2554Y168D01*
X2554Y166D01*
X2556Y166D01*
X2556Y162D01*
X2558Y162D01*
X2558Y158D01*
X2560Y158D01*
X2560Y152D01*
X2562Y152D01*
X2562Y144D01*
X2564Y144D01*
X2564Y120D01*
X2562Y120D01*
X2562Y112D01*
X2560Y112D01*
X2560Y108D01*
X2558Y108D01*
X2558Y102D01*
X2556Y102D01*
X2556Y100D01*
X2554Y100D01*
X2554Y96D01*
X2552Y96D01*
X2552Y94D01*
X2550Y94D01*
X2550Y90D01*
X2548Y90D01*
X2548Y88D01*
X2546Y88D01*
X2546Y86D01*
X2544Y86D01*
X2544Y84D01*
X2542Y84D01*
X2542Y82D01*
X2538Y82D01*
X2538Y80D01*
X2536Y80D01*
X2536Y78D01*
X3030Y78D01*
X3030Y80D01*
X3022Y80D01*
X3022Y82D01*
X3016Y82D01*
X3016Y84D01*
X3010Y84D01*
X3010Y86D01*
X3006Y86D01*
X3006Y88D01*
X3002Y88D01*
X3002Y90D01*
X2998Y90D01*
X2998Y92D01*
X2994Y92D01*
X2994Y94D01*
X2992Y94D01*
X2992Y96D01*
X2988Y96D01*
X2988Y98D01*
X2986Y98D01*
X2986Y100D01*
X2982Y100D01*
X2982Y102D01*
X2980Y102D01*
X2980Y104D01*
X2978Y104D01*
X2978Y106D01*
X2976Y106D01*
X2976Y108D01*
X2974Y108D01*
X2974Y110D01*
X2972Y110D01*
X2972Y112D01*
X2970Y112D01*
X2970Y114D01*
X2968Y114D01*
X2968Y118D01*
X2966Y118D01*
X2966Y120D01*
X2964Y120D01*
X2964Y122D01*
X2962Y122D01*
X2962Y126D01*
X2960Y126D01*
X2960Y128D01*
X2958Y128D01*
X2958Y132D01*
X2956Y132D01*
X2956Y136D01*
X2954Y136D01*
X2954Y140D01*
X2952Y140D01*
X2952Y146D01*
X2950Y146D01*
X2950Y150D01*
X2948Y150D01*
X2948Y158D01*
X2946Y158D01*
X2946Y170D01*
X2944Y170D01*
X2944Y194D01*
X2946Y194D01*
X2946Y206D01*
X2948Y206D01*
X2948Y214D01*
X2950Y214D01*
X2950Y220D01*
X2952Y220D01*
X2952Y224D01*
X2954Y224D01*
X2954Y228D01*
X2956Y228D01*
X2956Y232D01*
X2958Y232D01*
X2958Y236D01*
X2960Y236D01*
X2960Y256D01*
X2824Y256D01*
G37*
D02*
G36*
X40Y244D02*
X40Y242D01*
X1356Y242D01*
X1356Y244D01*
X40Y244D01*
G37*
D02*
G36*
X40Y244D02*
X40Y242D01*
X1356Y242D01*
X1356Y244D01*
X40Y244D01*
G37*
D02*
G36*
X40Y244D02*
X40Y242D01*
X1356Y242D01*
X1356Y244D01*
X40Y244D01*
G37*
D02*
G36*
X40Y244D02*
X40Y242D01*
X1356Y242D01*
X1356Y244D01*
X40Y244D01*
G37*
D02*
G36*
X40Y244D02*
X40Y242D01*
X1356Y242D01*
X1356Y244D01*
X40Y244D01*
G37*
D02*
G36*
X40Y244D02*
X40Y242D01*
X1356Y242D01*
X1356Y244D01*
X40Y244D01*
G37*
D02*
G36*
X40Y244D02*
X40Y242D01*
X1356Y242D01*
X1356Y244D01*
X40Y244D01*
G37*
D02*
G36*
X40Y244D02*
X40Y242D01*
X1356Y242D01*
X1356Y244D01*
X40Y244D01*
G37*
D02*
G36*
X40Y242D02*
X40Y68D01*
X1384Y68D01*
X1384Y70D01*
X1378Y70D01*
X1378Y72D01*
X1372Y72D01*
X1372Y74D01*
X1368Y74D01*
X1368Y76D01*
X1366Y76D01*
X1366Y78D01*
X1362Y78D01*
X1362Y80D01*
X1360Y80D01*
X1360Y82D01*
X1356Y82D01*
X1356Y84D01*
X1354Y84D01*
X1354Y86D01*
X1352Y86D01*
X1352Y88D01*
X1350Y88D01*
X1350Y92D01*
X1348Y92D01*
X1348Y94D01*
X1346Y94D01*
X1346Y96D01*
X1344Y96D01*
X1344Y100D01*
X1342Y100D01*
X1342Y104D01*
X1340Y104D01*
X1340Y108D01*
X1338Y108D01*
X1338Y114D01*
X1336Y114D01*
X1336Y122D01*
X1334Y122D01*
X1334Y142D01*
X1336Y142D01*
X1336Y152D01*
X1338Y152D01*
X1338Y156D01*
X1340Y156D01*
X1340Y162D01*
X1342Y162D01*
X1342Y164D01*
X1344Y164D01*
X1344Y168D01*
X1346Y168D01*
X1346Y170D01*
X1348Y170D01*
X1348Y174D01*
X1350Y174D01*
X1350Y176D01*
X1352Y176D01*
X1352Y178D01*
X1354Y178D01*
X1354Y196D01*
X1356Y196D01*
X1356Y242D01*
X40Y242D01*
G37*
D02*
G36*
X1546Y198D02*
X1546Y188D01*
X1568Y188D01*
X1568Y190D01*
X1572Y190D01*
X1572Y192D01*
X1576Y192D01*
X1576Y194D01*
X1582Y194D01*
X1582Y196D01*
X1594Y196D01*
X1594Y198D01*
X1546Y198D01*
G37*
D02*
G36*
X1604Y198D02*
X1604Y196D01*
X1616Y196D01*
X1616Y194D01*
X1622Y194D01*
X1622Y192D01*
X1626Y192D01*
X1626Y190D01*
X1630Y190D01*
X1630Y188D01*
X1634Y188D01*
X1634Y186D01*
X1636Y186D01*
X1636Y184D01*
X1662Y184D01*
X1662Y186D01*
X1664Y186D01*
X1664Y188D01*
X1668Y188D01*
X1668Y190D01*
X1672Y190D01*
X1672Y192D01*
X1676Y192D01*
X1676Y194D01*
X1682Y194D01*
X1682Y196D01*
X1694Y196D01*
X1694Y198D01*
X1604Y198D01*
G37*
D02*
G36*
X1704Y198D02*
X1704Y196D01*
X1716Y196D01*
X1716Y194D01*
X1722Y194D01*
X1722Y192D01*
X1726Y192D01*
X1726Y190D01*
X1730Y190D01*
X1730Y188D01*
X1734Y188D01*
X1734Y186D01*
X1736Y186D01*
X1736Y184D01*
X1762Y184D01*
X1762Y186D01*
X1764Y186D01*
X1764Y188D01*
X1768Y188D01*
X1768Y190D01*
X1772Y190D01*
X1772Y192D01*
X1776Y192D01*
X1776Y194D01*
X1782Y194D01*
X1782Y196D01*
X1794Y196D01*
X1794Y198D01*
X1704Y198D01*
G37*
D02*
G36*
X1804Y198D02*
X1804Y196D01*
X1816Y196D01*
X1816Y194D01*
X1822Y194D01*
X1822Y192D01*
X1826Y192D01*
X1826Y190D01*
X1830Y190D01*
X1830Y188D01*
X1834Y188D01*
X1834Y186D01*
X1836Y186D01*
X1836Y184D01*
X1862Y184D01*
X1862Y186D01*
X1864Y186D01*
X1864Y188D01*
X1868Y188D01*
X1868Y190D01*
X1872Y190D01*
X1872Y192D01*
X1876Y192D01*
X1876Y194D01*
X1882Y194D01*
X1882Y196D01*
X1894Y196D01*
X1894Y198D01*
X1804Y198D01*
G37*
D02*
G36*
X1904Y198D02*
X1904Y196D01*
X1916Y196D01*
X1916Y194D01*
X1922Y194D01*
X1922Y192D01*
X1926Y192D01*
X1926Y190D01*
X1930Y190D01*
X1930Y188D01*
X1934Y188D01*
X1934Y186D01*
X1936Y186D01*
X1936Y184D01*
X1962Y184D01*
X1962Y186D01*
X1964Y186D01*
X1964Y188D01*
X1968Y188D01*
X1968Y190D01*
X1972Y190D01*
X1972Y192D01*
X1976Y192D01*
X1976Y194D01*
X1982Y194D01*
X1982Y196D01*
X1994Y196D01*
X1994Y198D01*
X1904Y198D01*
G37*
D02*
G36*
X2004Y198D02*
X2004Y196D01*
X2016Y196D01*
X2016Y194D01*
X2022Y194D01*
X2022Y192D01*
X2026Y192D01*
X2026Y190D01*
X2030Y190D01*
X2030Y188D01*
X2034Y188D01*
X2034Y186D01*
X2036Y186D01*
X2036Y184D01*
X2062Y184D01*
X2062Y186D01*
X2064Y186D01*
X2064Y188D01*
X2068Y188D01*
X2068Y190D01*
X2072Y190D01*
X2072Y192D01*
X2076Y192D01*
X2076Y194D01*
X2082Y194D01*
X2082Y196D01*
X2094Y196D01*
X2094Y198D01*
X2004Y198D01*
G37*
D02*
G36*
X2104Y198D02*
X2104Y196D01*
X2116Y196D01*
X2116Y194D01*
X2122Y194D01*
X2122Y192D01*
X2126Y192D01*
X2126Y190D01*
X2130Y190D01*
X2130Y188D01*
X2134Y188D01*
X2134Y186D01*
X2136Y186D01*
X2136Y184D01*
X2162Y184D01*
X2162Y186D01*
X2164Y186D01*
X2164Y188D01*
X2168Y188D01*
X2168Y190D01*
X2172Y190D01*
X2172Y192D01*
X2176Y192D01*
X2176Y194D01*
X2182Y194D01*
X2182Y196D01*
X2194Y196D01*
X2194Y198D01*
X2104Y198D01*
G37*
D02*
G36*
X2204Y198D02*
X2204Y196D01*
X2216Y196D01*
X2216Y194D01*
X2222Y194D01*
X2222Y192D01*
X2226Y192D01*
X2226Y190D01*
X2230Y190D01*
X2230Y188D01*
X2234Y188D01*
X2234Y186D01*
X2236Y186D01*
X2236Y184D01*
X2262Y184D01*
X2262Y186D01*
X2264Y186D01*
X2264Y188D01*
X2268Y188D01*
X2268Y190D01*
X2272Y190D01*
X2272Y192D01*
X2276Y192D01*
X2276Y194D01*
X2282Y194D01*
X2282Y196D01*
X2294Y196D01*
X2294Y198D01*
X2204Y198D01*
G37*
D02*
G36*
X2304Y198D02*
X2304Y196D01*
X2316Y196D01*
X2316Y194D01*
X2322Y194D01*
X2322Y192D01*
X2326Y192D01*
X2326Y190D01*
X2330Y190D01*
X2330Y188D01*
X2334Y188D01*
X2334Y186D01*
X2336Y186D01*
X2336Y184D01*
X2362Y184D01*
X2362Y186D01*
X2364Y186D01*
X2364Y188D01*
X2368Y188D01*
X2368Y190D01*
X2372Y190D01*
X2372Y192D01*
X2376Y192D01*
X2376Y194D01*
X2382Y194D01*
X2382Y196D01*
X2394Y196D01*
X2394Y198D01*
X2304Y198D01*
G37*
D02*
G36*
X2404Y198D02*
X2404Y196D01*
X2416Y196D01*
X2416Y194D01*
X2422Y194D01*
X2422Y192D01*
X2426Y192D01*
X2426Y190D01*
X2430Y190D01*
X2430Y188D01*
X2434Y188D01*
X2434Y186D01*
X2436Y186D01*
X2436Y184D01*
X2462Y184D01*
X2462Y186D01*
X2464Y186D01*
X2464Y188D01*
X2468Y188D01*
X2468Y190D01*
X2472Y190D01*
X2472Y192D01*
X2476Y192D01*
X2476Y194D01*
X2482Y194D01*
X2482Y196D01*
X2494Y196D01*
X2494Y198D01*
X2404Y198D01*
G37*
D02*
G36*
X1438Y82D02*
X1438Y80D01*
X1436Y80D01*
X1436Y78D01*
X1432Y78D01*
X1432Y76D01*
X1430Y76D01*
X1430Y74D01*
X1426Y74D01*
X1426Y72D01*
X1420Y72D01*
X1420Y70D01*
X1414Y70D01*
X1414Y68D01*
X1484Y68D01*
X1484Y70D01*
X1478Y70D01*
X1478Y72D01*
X1472Y72D01*
X1472Y74D01*
X1468Y74D01*
X1468Y76D01*
X1466Y76D01*
X1466Y78D01*
X1462Y78D01*
X1462Y80D01*
X1460Y80D01*
X1460Y82D01*
X1438Y82D01*
G37*
D02*
G36*
X1538Y82D02*
X1538Y80D01*
X1536Y80D01*
X1536Y78D01*
X1532Y78D01*
X1532Y76D01*
X1530Y76D01*
X1530Y74D01*
X1526Y74D01*
X1526Y72D01*
X1520Y72D01*
X1520Y70D01*
X1514Y70D01*
X1514Y68D01*
X1584Y68D01*
X1584Y70D01*
X1578Y70D01*
X1578Y72D01*
X1572Y72D01*
X1572Y74D01*
X1568Y74D01*
X1568Y76D01*
X1566Y76D01*
X1566Y78D01*
X1562Y78D01*
X1562Y80D01*
X1560Y80D01*
X1560Y82D01*
X1538Y82D01*
G37*
D02*
G36*
X1638Y82D02*
X1638Y80D01*
X1636Y80D01*
X1636Y78D01*
X1632Y78D01*
X1632Y76D01*
X1630Y76D01*
X1630Y74D01*
X1626Y74D01*
X1626Y72D01*
X1620Y72D01*
X1620Y70D01*
X1614Y70D01*
X1614Y68D01*
X1684Y68D01*
X1684Y70D01*
X1678Y70D01*
X1678Y72D01*
X1672Y72D01*
X1672Y74D01*
X1668Y74D01*
X1668Y76D01*
X1666Y76D01*
X1666Y78D01*
X1662Y78D01*
X1662Y80D01*
X1660Y80D01*
X1660Y82D01*
X1638Y82D01*
G37*
D02*
G36*
X1738Y82D02*
X1738Y80D01*
X1736Y80D01*
X1736Y78D01*
X1732Y78D01*
X1732Y76D01*
X1730Y76D01*
X1730Y74D01*
X1726Y74D01*
X1726Y72D01*
X1720Y72D01*
X1720Y70D01*
X1714Y70D01*
X1714Y68D01*
X1784Y68D01*
X1784Y70D01*
X1778Y70D01*
X1778Y72D01*
X1772Y72D01*
X1772Y74D01*
X1768Y74D01*
X1768Y76D01*
X1766Y76D01*
X1766Y78D01*
X1762Y78D01*
X1762Y80D01*
X1760Y80D01*
X1760Y82D01*
X1738Y82D01*
G37*
D02*
G36*
X1838Y82D02*
X1838Y80D01*
X1836Y80D01*
X1836Y78D01*
X1832Y78D01*
X1832Y76D01*
X1830Y76D01*
X1830Y74D01*
X1826Y74D01*
X1826Y72D01*
X1820Y72D01*
X1820Y70D01*
X1814Y70D01*
X1814Y68D01*
X1884Y68D01*
X1884Y70D01*
X1878Y70D01*
X1878Y72D01*
X1872Y72D01*
X1872Y74D01*
X1868Y74D01*
X1868Y76D01*
X1866Y76D01*
X1866Y78D01*
X1862Y78D01*
X1862Y80D01*
X1860Y80D01*
X1860Y82D01*
X1838Y82D01*
G37*
D02*
G36*
X1938Y82D02*
X1938Y80D01*
X1936Y80D01*
X1936Y78D01*
X1932Y78D01*
X1932Y76D01*
X1930Y76D01*
X1930Y74D01*
X1926Y74D01*
X1926Y72D01*
X1920Y72D01*
X1920Y70D01*
X1914Y70D01*
X1914Y68D01*
X1984Y68D01*
X1984Y70D01*
X1978Y70D01*
X1978Y72D01*
X1972Y72D01*
X1972Y74D01*
X1968Y74D01*
X1968Y76D01*
X1966Y76D01*
X1966Y78D01*
X1962Y78D01*
X1962Y80D01*
X1960Y80D01*
X1960Y82D01*
X1938Y82D01*
G37*
D02*
G36*
X2038Y82D02*
X2038Y80D01*
X2036Y80D01*
X2036Y78D01*
X2032Y78D01*
X2032Y76D01*
X2030Y76D01*
X2030Y74D01*
X2026Y74D01*
X2026Y72D01*
X2020Y72D01*
X2020Y70D01*
X2014Y70D01*
X2014Y68D01*
X2084Y68D01*
X2084Y70D01*
X2078Y70D01*
X2078Y72D01*
X2072Y72D01*
X2072Y74D01*
X2068Y74D01*
X2068Y76D01*
X2066Y76D01*
X2066Y78D01*
X2062Y78D01*
X2062Y80D01*
X2060Y80D01*
X2060Y82D01*
X2038Y82D01*
G37*
D02*
G36*
X2138Y82D02*
X2138Y80D01*
X2136Y80D01*
X2136Y78D01*
X2132Y78D01*
X2132Y76D01*
X2130Y76D01*
X2130Y74D01*
X2126Y74D01*
X2126Y72D01*
X2120Y72D01*
X2120Y70D01*
X2114Y70D01*
X2114Y68D01*
X2184Y68D01*
X2184Y70D01*
X2178Y70D01*
X2178Y72D01*
X2172Y72D01*
X2172Y74D01*
X2168Y74D01*
X2168Y76D01*
X2166Y76D01*
X2166Y78D01*
X2162Y78D01*
X2162Y80D01*
X2160Y80D01*
X2160Y82D01*
X2138Y82D01*
G37*
D02*
G36*
X2238Y82D02*
X2238Y80D01*
X2236Y80D01*
X2236Y78D01*
X2232Y78D01*
X2232Y76D01*
X2230Y76D01*
X2230Y74D01*
X2226Y74D01*
X2226Y72D01*
X2220Y72D01*
X2220Y70D01*
X2214Y70D01*
X2214Y68D01*
X2284Y68D01*
X2284Y70D01*
X2278Y70D01*
X2278Y72D01*
X2272Y72D01*
X2272Y74D01*
X2268Y74D01*
X2268Y76D01*
X2266Y76D01*
X2266Y78D01*
X2262Y78D01*
X2262Y80D01*
X2260Y80D01*
X2260Y82D01*
X2238Y82D01*
G37*
D02*
G36*
X2338Y82D02*
X2338Y80D01*
X2336Y80D01*
X2336Y78D01*
X2332Y78D01*
X2332Y76D01*
X2330Y76D01*
X2330Y74D01*
X2326Y74D01*
X2326Y72D01*
X2320Y72D01*
X2320Y70D01*
X2314Y70D01*
X2314Y68D01*
X2384Y68D01*
X2384Y70D01*
X2378Y70D01*
X2378Y72D01*
X2372Y72D01*
X2372Y74D01*
X2368Y74D01*
X2368Y76D01*
X2366Y76D01*
X2366Y78D01*
X2362Y78D01*
X2362Y80D01*
X2360Y80D01*
X2360Y82D01*
X2338Y82D01*
G37*
D02*
G36*
X2438Y82D02*
X2438Y80D01*
X2436Y80D01*
X2436Y78D01*
X2432Y78D01*
X2432Y76D01*
X2430Y76D01*
X2430Y74D01*
X2426Y74D01*
X2426Y72D01*
X2420Y72D01*
X2420Y70D01*
X2414Y70D01*
X2414Y68D01*
X2484Y68D01*
X2484Y70D01*
X2478Y70D01*
X2478Y72D01*
X2472Y72D01*
X2472Y74D01*
X2468Y74D01*
X2468Y76D01*
X2466Y76D01*
X2466Y78D01*
X2462Y78D01*
X2462Y80D01*
X2460Y80D01*
X2460Y82D01*
X2438Y82D01*
G37*
D02*
G36*
X2532Y78D02*
X2532Y76D01*
X3276Y76D01*
X3276Y78D01*
X2532Y78D01*
G37*
D02*
G36*
X2532Y78D02*
X2532Y76D01*
X3276Y76D01*
X3276Y78D01*
X2532Y78D01*
G37*
D02*
G36*
X2530Y76D02*
X2530Y74D01*
X2526Y74D01*
X2526Y72D01*
X2520Y72D01*
X2520Y70D01*
X2514Y70D01*
X2514Y68D01*
X3276Y68D01*
X3276Y76D01*
X2530Y76D01*
G37*
D02*
G36*
X40Y68D02*
X40Y66D01*
X3276Y66D01*
X3276Y68D01*
X40Y68D01*
G37*
D02*
G36*
X40Y68D02*
X40Y66D01*
X3276Y66D01*
X3276Y68D01*
X40Y68D01*
G37*
D02*
G36*
X40Y68D02*
X40Y66D01*
X3276Y66D01*
X3276Y68D01*
X40Y68D01*
G37*
D02*
G36*
X40Y68D02*
X40Y66D01*
X3276Y66D01*
X3276Y68D01*
X40Y68D01*
G37*
D02*
G36*
X40Y68D02*
X40Y66D01*
X3276Y66D01*
X3276Y68D01*
X40Y68D01*
G37*
D02*
G36*
X40Y68D02*
X40Y66D01*
X3276Y66D01*
X3276Y68D01*
X40Y68D01*
G37*
D02*
G36*
X40Y68D02*
X40Y66D01*
X3276Y66D01*
X3276Y68D01*
X40Y68D01*
G37*
D02*
G36*
X40Y68D02*
X40Y66D01*
X3276Y66D01*
X3276Y68D01*
X40Y68D01*
G37*
D02*
G36*
X40Y68D02*
X40Y66D01*
X3276Y66D01*
X3276Y68D01*
X40Y68D01*
G37*
D02*
G36*
X40Y68D02*
X40Y66D01*
X3276Y66D01*
X3276Y68D01*
X40Y68D01*
G37*
D02*
G36*
X40Y68D02*
X40Y66D01*
X3276Y66D01*
X3276Y68D01*
X40Y68D01*
G37*
D02*
G36*
X40Y68D02*
X40Y66D01*
X3276Y66D01*
X3276Y68D01*
X40Y68D01*
G37*
D02*
G36*
X40Y68D02*
X40Y66D01*
X3276Y66D01*
X3276Y68D01*
X40Y68D01*
G37*
D02*
G36*
X40Y66D02*
X40Y42D01*
X3276Y42D01*
X3276Y66D01*
X40Y66D01*
G37*
D02*
G36*
X3164Y540D02*
X3164Y536D01*
X3162Y536D01*
X3162Y534D01*
X3160Y534D01*
X3160Y530D01*
X3158Y530D01*
X3158Y526D01*
X3156Y526D01*
X3156Y524D01*
X3154Y524D01*
X3154Y520D01*
X3152Y520D01*
X3152Y518D01*
X3150Y518D01*
X3150Y514D01*
X3148Y514D01*
X3148Y510D01*
X3146Y510D01*
X3146Y508D01*
X3144Y508D01*
X3144Y504D01*
X3142Y504D01*
X3142Y500D01*
X3140Y500D01*
X3140Y498D01*
X3138Y498D01*
X3138Y494D01*
X3136Y494D01*
X3136Y492D01*
X3134Y492D01*
X3134Y490D01*
X3132Y490D01*
X3132Y488D01*
X3130Y488D01*
X3130Y486D01*
X3128Y486D01*
X3128Y484D01*
X3126Y484D01*
X3126Y382D01*
X3146Y382D01*
X3146Y384D01*
X3148Y384D01*
X3148Y386D01*
X3150Y386D01*
X3150Y390D01*
X3152Y390D01*
X3152Y392D01*
X3154Y392D01*
X3154Y394D01*
X3156Y394D01*
X3156Y396D01*
X3158Y396D01*
X3158Y400D01*
X3160Y400D01*
X3160Y402D01*
X3162Y402D01*
X3162Y404D01*
X3164Y404D01*
X3164Y406D01*
X3166Y406D01*
X3166Y408D01*
X3168Y408D01*
X3168Y412D01*
X3170Y412D01*
X3170Y414D01*
X3172Y414D01*
X3172Y416D01*
X3174Y416D01*
X3174Y418D01*
X3176Y418D01*
X3176Y422D01*
X3178Y422D01*
X3178Y424D01*
X3180Y424D01*
X3180Y426D01*
X3182Y426D01*
X3182Y428D01*
X3184Y428D01*
X3184Y540D01*
X3164Y540D01*
G37*
D02*
G36*
X1496Y476D02*
X1496Y474D01*
X1494Y474D01*
X1494Y472D01*
X1490Y472D01*
X1490Y470D01*
X1488Y470D01*
X1488Y468D01*
X1486Y468D01*
X1486Y466D01*
X1484Y466D01*
X1484Y464D01*
X1482Y464D01*
X1482Y462D01*
X1478Y462D01*
X1478Y460D01*
X1476Y460D01*
X1476Y458D01*
X1474Y458D01*
X1474Y456D01*
X1472Y456D01*
X1472Y454D01*
X1470Y454D01*
X1470Y452D01*
X1466Y452D01*
X1466Y450D01*
X1464Y450D01*
X1464Y448D01*
X1462Y448D01*
X1462Y446D01*
X1460Y446D01*
X1460Y444D01*
X1458Y444D01*
X1458Y442D01*
X1454Y442D01*
X1454Y396D01*
X1452Y396D01*
X1452Y330D01*
X1450Y330D01*
X1450Y278D01*
X1470Y278D01*
X1470Y280D01*
X1472Y280D01*
X1472Y282D01*
X1474Y282D01*
X1474Y284D01*
X1476Y284D01*
X1476Y286D01*
X1478Y286D01*
X1478Y288D01*
X1480Y288D01*
X1480Y290D01*
X1482Y290D01*
X1482Y292D01*
X1484Y292D01*
X1484Y294D01*
X1486Y294D01*
X1486Y296D01*
X1488Y296D01*
X1488Y298D01*
X1490Y298D01*
X1490Y300D01*
X1492Y300D01*
X1492Y302D01*
X1494Y302D01*
X1494Y304D01*
X1496Y304D01*
X1496Y306D01*
X1498Y306D01*
X1498Y308D01*
X1500Y308D01*
X1500Y310D01*
X1502Y310D01*
X1502Y312D01*
X1504Y312D01*
X1504Y314D01*
X1506Y314D01*
X1506Y316D01*
X1508Y316D01*
X1508Y318D01*
X1510Y318D01*
X1510Y320D01*
X1512Y320D01*
X1512Y322D01*
X1514Y322D01*
X1514Y324D01*
X1516Y324D01*
X1516Y326D01*
X1518Y326D01*
X1518Y328D01*
X1520Y328D01*
X1520Y330D01*
X1524Y330D01*
X1524Y332D01*
X1528Y332D01*
X1528Y334D01*
X1532Y334D01*
X1532Y336D01*
X1538Y336D01*
X1538Y338D01*
X1680Y338D01*
X1680Y340D01*
X1966Y340D01*
X1966Y342D01*
X2252Y342D01*
X2252Y344D01*
X2536Y344D01*
X2536Y346D01*
X2822Y346D01*
X2822Y348D01*
X2888Y348D01*
X2888Y382D01*
X2886Y382D01*
X2886Y388D01*
X2884Y388D01*
X2884Y402D01*
X2882Y402D01*
X2882Y404D01*
X2884Y404D01*
X2884Y416D01*
X2886Y416D01*
X2886Y422D01*
X2888Y422D01*
X2888Y454D01*
X2922Y454D01*
X2922Y456D01*
X2928Y456D01*
X2928Y476D01*
X1496Y476D01*
G37*
D02*
G54D24*
X2917Y704D02*
X2958Y704D01*
X2917Y703D02*
X2958Y703D01*
X2917Y702D02*
X2958Y702D01*
X2917Y701D02*
X2958Y701D01*
X2917Y700D02*
X2958Y700D01*
X2917Y699D02*
X2958Y699D01*
X2917Y698D02*
X2958Y698D01*
X2917Y697D02*
X2958Y697D01*
X2917Y696D02*
X2958Y696D01*
X2917Y695D02*
X2958Y695D01*
X2917Y694D02*
X2958Y694D01*
X2917Y693D02*
X2958Y693D01*
X2917Y692D02*
X2958Y692D01*
X2917Y691D02*
X2958Y691D01*
X2917Y690D02*
X2958Y690D01*
X2917Y689D02*
X2958Y689D01*
X2917Y688D02*
X2958Y688D01*
X2917Y687D02*
X2958Y687D01*
X2917Y686D02*
X2958Y686D01*
X2917Y685D02*
X2958Y685D01*
X2917Y684D02*
X2936Y684D01*
X2939Y684D02*
X2958Y684D01*
X2917Y683D02*
X2931Y683D01*
X2945Y683D02*
X2958Y683D01*
X2917Y682D02*
X2928Y682D01*
X2947Y682D02*
X2958Y682D01*
X2917Y681D02*
X2927Y681D01*
X2949Y681D02*
X2958Y681D01*
X2917Y680D02*
X2925Y680D01*
X2950Y680D02*
X2958Y680D01*
X2917Y679D02*
X2924Y679D01*
X2952Y679D02*
X2958Y679D01*
X2917Y678D02*
X2923Y678D01*
X2953Y678D02*
X2958Y678D01*
X2917Y677D02*
X2922Y677D01*
X2954Y677D02*
X2958Y677D01*
X2917Y676D02*
X2921Y676D01*
X2955Y676D02*
X2958Y676D01*
X2917Y675D02*
X2920Y675D01*
X2955Y675D02*
X2958Y675D01*
X2917Y674D02*
X2920Y674D01*
X2956Y674D02*
X2958Y674D01*
X2917Y673D02*
X2919Y673D01*
X2956Y673D02*
X2958Y673D01*
X2917Y672D02*
X2918Y672D01*
X2957Y672D02*
X2958Y672D01*
X2917Y671D02*
X2918Y671D01*
X2957Y671D02*
X2958Y671D01*
X2917Y670D02*
X2918Y670D01*
X2958Y670D02*
X2958Y670D01*
X2917Y669D02*
X2917Y669D01*
X2958Y669D02*
X2958Y669D01*
X2958Y668D02*
X2958Y668D01*
X2917Y658D02*
X2917Y658D01*
X2958Y658D02*
X2958Y658D01*
X2917Y657D02*
X2918Y657D01*
X2958Y657D02*
X2958Y657D01*
X2917Y656D02*
X2918Y656D01*
X2958Y656D02*
X2958Y656D01*
X2917Y655D02*
X2918Y655D01*
X2957Y655D02*
X2958Y655D01*
X2917Y654D02*
X2919Y654D01*
X2957Y654D02*
X2958Y654D01*
X2917Y653D02*
X2919Y653D01*
X2956Y653D02*
X2958Y653D01*
X2917Y652D02*
X2920Y652D01*
X2956Y652D02*
X2958Y652D01*
X2917Y651D02*
X2921Y651D01*
X2955Y651D02*
X2958Y651D01*
X2917Y650D02*
X2921Y650D01*
X2954Y650D02*
X2958Y650D01*
X2917Y649D02*
X2922Y649D01*
X2953Y649D02*
X2958Y649D01*
X2917Y648D02*
X2923Y648D01*
X2952Y648D02*
X2958Y648D01*
X2917Y647D02*
X2925Y647D01*
X2951Y647D02*
X2958Y647D01*
X2917Y646D02*
X2926Y646D01*
X2950Y646D02*
X2958Y646D01*
X2917Y645D02*
X2928Y645D01*
X2948Y645D02*
X2958Y645D01*
X2917Y644D02*
X2930Y644D01*
X2946Y644D02*
X2958Y644D01*
X2918Y643D02*
X2933Y643D01*
X2943Y643D02*
X2958Y643D01*
X2918Y424D02*
X2933Y424D01*
X2943Y424D02*
X2958Y424D01*
X2917Y423D02*
X2930Y423D01*
X2945Y423D02*
X2958Y423D01*
X2917Y422D02*
X2928Y422D01*
X2948Y422D02*
X2958Y422D01*
X2917Y421D02*
X2926Y421D01*
X2949Y421D02*
X2958Y421D01*
X2917Y420D02*
X2925Y420D01*
X2951Y420D02*
X2958Y420D01*
X2917Y419D02*
X2924Y419D01*
X2952Y419D02*
X2958Y419D01*
X2917Y418D02*
X2922Y418D01*
X2953Y418D02*
X2958Y418D01*
X2917Y417D02*
X2922Y417D01*
X2954Y417D02*
X2958Y417D01*
X2917Y416D02*
X2921Y416D01*
X2955Y416D02*
X2958Y416D01*
X2917Y415D02*
X2920Y415D01*
X2955Y415D02*
X2958Y415D01*
X2917Y414D02*
X2919Y414D01*
X2956Y414D02*
X2958Y414D01*
X2917Y413D02*
X2919Y413D01*
X2957Y413D02*
X2958Y413D01*
X2917Y412D02*
X2918Y412D01*
X2957Y412D02*
X2958Y412D01*
X2917Y411D02*
X2918Y411D01*
X2958Y411D02*
X2958Y411D01*
X2917Y410D02*
X2918Y410D01*
X2958Y410D02*
X2958Y410D01*
X2917Y409D02*
X2917Y409D01*
X2958Y409D02*
X2958Y409D01*
X2958Y408D02*
X2958Y408D01*
X2958Y399D02*
X2958Y399D01*
X2917Y398D02*
X2917Y398D01*
X2958Y398D02*
X2958Y398D01*
X2917Y397D02*
X2918Y397D01*
X2958Y397D02*
X2958Y397D01*
X2917Y396D02*
X2918Y396D01*
X2958Y396D02*
X2958Y396D01*
X2917Y395D02*
X2918Y395D01*
X2957Y395D02*
X2958Y395D01*
X2917Y394D02*
X2919Y394D01*
X2957Y394D02*
X2958Y394D01*
X2917Y393D02*
X2919Y393D01*
X2956Y393D02*
X2958Y393D01*
X2917Y392D02*
X2920Y392D01*
X2955Y392D02*
X2958Y392D01*
X2917Y391D02*
X2921Y391D01*
X2955Y391D02*
X2958Y391D01*
X2917Y390D02*
X2922Y390D01*
X2954Y390D02*
X2958Y390D01*
X2917Y389D02*
X2922Y389D01*
X2953Y389D02*
X2958Y389D01*
X2917Y388D02*
X2924Y388D01*
X2952Y388D02*
X2958Y388D01*
X2917Y387D02*
X2925Y387D01*
X2951Y387D02*
X2958Y387D01*
X2917Y386D02*
X2926Y386D01*
X2949Y386D02*
X2958Y386D01*
X2917Y385D02*
X2928Y385D01*
X2947Y385D02*
X2958Y385D01*
X2917Y384D02*
X2931Y384D01*
X2945Y384D02*
X2958Y384D01*
X2917Y383D02*
X2934Y383D01*
X2941Y383D02*
X2958Y383D01*
X2917Y382D02*
X2958Y382D01*
X2917Y381D02*
X2958Y381D01*
X2917Y380D02*
X2958Y380D01*
X2917Y379D02*
X2958Y379D01*
X2917Y378D02*
X2958Y378D01*
X2917Y377D02*
X2958Y377D01*
X2917Y376D02*
X2958Y376D01*
X2917Y375D02*
X2958Y375D01*
X2917Y374D02*
X2958Y374D01*
X2917Y373D02*
X2958Y373D01*
X2917Y372D02*
X2958Y372D01*
X2917Y371D02*
X2958Y371D01*
X2917Y370D02*
X2958Y370D01*
X2917Y369D02*
X2958Y369D01*
X2917Y368D02*
X2958Y368D01*
X2917Y367D02*
X2958Y367D01*
X2917Y366D02*
X2958Y366D01*
X2917Y365D02*
X2958Y365D01*
X2917Y364D02*
X2958Y364D01*
X2917Y363D02*
X2958Y363D01*
D02*
G04 End of Copper1*
M02*